<?xml version="1.0" encoding="utf-8"?>
<!-- Generator: Adobe Illustrator 26.2.1, SVG Export Plug-In . SVG Version: 6.00 Build 0)  -->
<svg version="1.1" id="Capa_1" xmlns="http://www.w3.org/2000/svg" xmlns:xlink="http://www.w3.org/1999/xlink" x="0px" y="0px"
	 viewBox="0 0 725.39 451.82" style="enable-background:new 0 0 725.39 451.82;" xml:space="preserve">
<style type="text/css">
	.st0{display:none;}
	.st1{display:inline;}
	.st2{fill:#F5F5F5;}
	.st3{fill:#EBEBEB;}
	.st4{fill:#E0E0E0;}
	.st5{fill:#FF725E;}
	.st6{fill:#263238;}
	.st7{fill:#455A64;}
	.st8{opacity:0.2;}
	.st9{opacity:0.3;}
	.st10{enable-background:new    ;}
	.st11{fill:#FFFFFF;}
	.st12{fill:#FFBF9D;}
	.st13{fill:#FF9A6C;}
</style>
<g id="Background_Complete">
</g>
<g id="Background_Simple" class="st0">
	<g class="st1">
		<path class="st2" d="M491.43-626.18l-0.88,1.87c-7.38,15.76-5.8,34.32,4.64,48.04c1.34,1.76,2.81,3.43,4.4,4.98
			c11.46,11.17,28.85,15.95,44.6,12.25c9.26-2.18,18.32-7.09,27.7-5.77c12.21,1.72,20.16,13.15,26.62,23.55
			c6.46,10.4,14.45,21.81,26.66,23.48c7.65,1.05,15.4-2.16,21.63-6.8c16.48-12.28,23.84-34.36,21.35-54.55
			c-2.48-20.2-13.67-38.48-28.04-52.83c-20.13-20.1-47.68-33.62-76.36-33.68C535.07-665.7,505.79-651.06,491.43-626.18z"/>
	</g>
	<g class="st1">
		<path class="st2" d="M159.24-239.93l1.82-0.98c15.34-8.22,25.16-24.05,24.99-41.29c-0.02-2.22-0.2-4.43-0.55-6.63
			c-2.51-15.8-13.6-30.03-28.44-36.47c-8.72-3.79-18.92-5.26-25.65-11.93c-8.76-8.68-8.31-22.59-7.27-34.79
			c1.03-12.2,1.45-26.12-7.35-34.76c-5.51-5.41-13.64-7.47-21.41-7.47c-20.56,0-39.64,13.3-49.72,30.98
			c-10.08,17.68-12.04,39.02-9.09,59.11c4.13,28.15,18.13,55.45,41.09,72.64C100.64-234.32,132.86-228.57,159.24-239.93z"/>
	</g>
</g>
<g id="Stars">
</g>
<g id="Portals">
</g>
<g id="Texts">
</g>
<g id="Character_00000101791268415360144000000006004427990235662522_">
	<g>
		<g>
			<g>
				<g>
					
						<ellipse transform="matrix(0.0399 -0.9992 0.9992 0.0399 494.871 633.4466)" class="st3" cx="577.06" cy="59.21" rx="37.01" ry="31.41"/>
				</g>
			</g>
			<g>
				<g>
					<path class="st4" d="M598.94,60.24c-0.89,18.61-13.3,33.4-28.61,35.21c1.62,0.39,3.28,0.64,4.98,0.73
						c17.33,0.89,32.17-14.95,33.15-35.36c0.98-20.42-12.27-37.68-29.6-38.57c-1.53-0.08-3.05-0.02-4.54,0.15
						C589.14,25.99,599.82,41.84,598.94,60.24z"/>
				</g>
			</g>
		</g>
		<g>
			<g>
				<g>
					
						<ellipse transform="matrix(0.9952 -0.0975 0.0975 0.9952 -39.2055 36.6794)" class="st3" cx="355.69" cy="419.48" rx="37" ry="17.95"/>
				</g>
			</g>
			<g>
				<g>
					<path class="st4" d="M355.99,432.02c-18.56,1.46-34.02-4.02-36.74-12.53c-0.29,0.96-0.44,1.93-0.42,2.91
						c0.17,9.94,16.81,16.69,37.17,15.09c20.36-1.6,36.73-10.96,36.56-20.89c-0.01-0.88-0.16-1.73-0.43-2.56
						C389.45,422.83,374.34,430.58,355.99,432.02z"/>
				</g>
			</g>
		</g>
		<g>
			<g>
				<g>
					
						<ellipse transform="matrix(0.7666 -0.6422 0.6422 0.7666 -204.8753 127.7723)" class="st3" cx="73.31" cy="345.69" rx="24.45" ry="28.8"/>
				</g>
			</g>
			<g>
				<g>
					<path class="st4" d="M60.33,356.7c9.4,11.04,24.08,14.25,34.37,8.08c-0.81,1.01-1.72,1.95-2.72,2.82
						c-10.25,8.79-26.92,6.09-37.24-6.02c-10.31-12.11-10.36-29.05-0.11-37.84c0.91-0.78,1.87-1.46,2.87-2.06
						C50.08,330.94,51.03,345.78,60.33,356.7z"/>
				</g>
			</g>
		</g>
		<g>
			<g>
				<g>
					
						<ellipse transform="matrix(0.0147 -0.9999 0.9999 0.0147 -178.062 261.4291)" class="st3" cx="43.62" cy="221.06" rx="18.78" ry="12.84"/>
				</g>
			</g>
			<g>
				<g>
					<path class="st4" d="M34.69,220.76c-0.2,9.45,4.4,17.41,10.59,18.91c-0.67,0.14-1.36,0.2-2.05,0.18
						c-7.09-0.21-12.65-8.79-12.43-19.16c0.22-10.37,6.15-18.61,13.24-18.4c0.63,0.02,1.24,0.1,1.84,0.25
						C39.73,203.79,34.89,211.41,34.69,220.76z"/>
				</g>
			</g>
		</g>
		<g>
			<g>
				<g>
					<path class="st3" d="M645.91,305.28c-5.38,10.15-2.74,22.05,5.88,26.59c8.63,4.54,19.98-0.01,25.36-10.16
						s2.74-22.05-5.89-26.59C662.64,290.59,651.29,295.14,645.91,305.28z"/>
				</g>
			</g>
			<g>
				<g>
					<path class="st4" d="M672.39,319.26c4.9-9.25,3.14-19.96-3.74-25.21c0.89,0.27,1.77,0.63,2.62,1.08
						c8.63,4.54,11.26,16.44,5.88,26.59s-16.73,14.69-25.36,10.16c-0.76-0.4-1.48-0.86-2.15-1.37
						C657.83,333.01,667.54,328.41,672.39,319.26z"/>
				</g>
			</g>
		</g>
		<g>
			<g>
				<g>
					
						<ellipse transform="matrix(0.331 -0.9436 0.9436 0.331 67.2641 196.3684)" class="st3" cx="172.12" cy="50.75" rx="28.8" ry="24.45"/>
				</g>
			</g>
			<g>
				<g>
					<path class="st4" d="M154.2,44.29c-4.69,13.72,0.05,27.98,10.61,33.68c-1.28-0.18-2.56-0.48-3.81-0.9
						c-12.8-4.33-19-20.04-13.85-35.09c5.14-15.05,19.68-23.75,32.47-19.42c1.13,0.38,2.21,0.86,3.24,1.41
						C171.11,22.32,158.84,30.72,154.2,44.29z"/>
				</g>
			</g>
		</g>
		<g>
			<g>
				<g>
					<path class="st4" d="M505.81,49.42l4.2,2.5c0.55,0.32,0.5,1.13-0.08,1.42l-4.46,2.23c-0.14,0.07-0.26,0.18-0.34,0.31
						l-2.61,4.25c-0.34,0.55-1.14,0.53-1.42-0.04l-2.13-4.4c-0.07-0.14-0.17-0.25-0.3-0.33l-4.2-2.5c-0.54-0.32-0.5-1.13,0.08-1.42
						l4.46-2.23c0.14-0.07,0.26-0.18,0.34-0.31l2.61-4.25c0.34-0.55,1.14-0.53,1.42,0.04l2.13,4.4
						C505.58,49.23,505.68,49.34,505.81,49.42z"/>
				</g>
			</g>
		</g>
		<g>
			<g>
				<g>
					<path class="st4" d="M98.92,411.3l4.2,2.5c0.55,0.32,0.5,1.13-0.08,1.42l-4.46,2.23c-0.14,0.07-0.26,0.18-0.34,0.31l-2.61,4.25
						c-0.34,0.55-1.14,0.53-1.42-0.04l-2.13-4.4c-0.07-0.14-0.17-0.25-0.3-0.33l-4.2-2.5c-0.54-0.32-0.5-1.13,0.08-1.42l4.46-2.23
						c0.14-0.07,0.26-0.18,0.34-0.31l2.61-4.25c0.34-0.55,1.14-0.53,1.42,0.04l2.13,4.4C98.68,411.11,98.79,411.23,98.92,411.3z"/>
				</g>
			</g>
		</g>
		<g>
			<g>
				<g>
					<path class="st4" d="M481.07,411.05l4.2,2.5c0.54,0.32,0.5,1.13-0.08,1.42l-4.46,2.23c-0.14,0.07-0.26,0.18-0.34,0.31
						l-2.61,4.25c-0.34,0.55-1.14,0.53-1.42-0.04l-2.13-4.4c-0.07-0.14-0.17-0.25-0.3-0.33l-4.2-2.5c-0.55-0.32-0.5-1.13,0.08-1.42
						l4.46-2.23c0.14-0.07,0.26-0.18,0.34-0.31l2.61-4.25c0.34-0.55,1.14-0.53,1.42,0.04l2.13,4.4
						C480.83,410.86,480.94,410.98,481.07,411.05z"/>
				</g>
			</g>
		</g>
		<g>
			<g>
				<g>
					<path class="st4" d="M653.22,404.73l4.2,2.5c0.54,0.32,0.5,1.13-0.08,1.42l-4.46,2.23c-0.14,0.07-0.26,0.18-0.34,0.31
						l-2.61,4.25c-0.34,0.55-1.14,0.53-1.42-0.04l-2.13-4.4c-0.07-0.14-0.17-0.25-0.3-0.33l-4.2-2.5c-0.54-0.32-0.5-1.13,0.08-1.42
						l4.46-2.23c0.14-0.07,0.26-0.18,0.34-0.31l2.61-4.25c0.34-0.55,1.14-0.53,1.42,0.04l2.13,4.4
						C652.98,404.53,653.09,404.65,653.22,404.73z"/>
				</g>
			</g>
		</g>
		<g>
			<g>
				<g>
					<path class="st4" d="M204.51,97.87l4.2,2.5c0.55,0.32,0.5,1.13-0.08,1.42l-4.46,2.23c-0.14,0.07-0.26,0.18-0.34,0.31
						l-2.61,4.25c-0.34,0.55-1.14,0.53-1.42-0.04l-2.13-4.4c-0.07-0.14-0.17-0.25-0.3-0.33l-4.2-2.5c-0.54-0.32-0.5-1.13,0.08-1.42
						l4.46-2.23c0.14-0.07,0.26-0.18,0.34-0.31l2.61-4.25c0.34-0.55,1.14-0.53,1.42,0.04l2.13,4.4
						C204.27,97.67,204.38,97.79,204.51,97.87z"/>
				</g>
			</g>
		</g>
		<g>
			<g>
				<g>
					<path class="st4" d="M231.36,13.43l4.2,2.5c0.54,0.32,0.5,1.13-0.08,1.42l-4.46,2.23c-0.14,0.07-0.26,0.18-0.34,0.31
						l-2.61,4.25c-0.34,0.55-1.14,0.53-1.42-0.04l-2.13-4.4c-0.07-0.14-0.17-0.25-0.3-0.33l-4.2-2.5c-0.54-0.32-0.5-1.13,0.08-1.42
						l4.46-2.23c0.14-0.07,0.26-0.18,0.34-0.31l2.61-4.25c0.34-0.55,1.14-0.53,1.42,0.04l2.13,4.4
						C231.12,13.23,231.22,13.35,231.36,13.43z"/>
				</g>
			</g>
		</g>
		<g>
			<g>
				<g>
					<path class="st4" d="M95.18,50.22l2.13,1.27c0.28,0.16,0.25,0.57-0.04,0.72l-2.26,1.13c-0.07,0.04-0.13,0.09-0.17,0.16
						l-1.32,2.16c-0.17,0.28-0.58,0.27-0.72-0.02l-1.08-2.23c-0.03-0.07-0.09-0.13-0.15-0.17l-2.13-1.27
						c-0.28-0.16-0.25-0.57,0.04-0.72l2.26-1.13c0.07-0.04,0.13-0.09,0.17-0.16l1.32-2.16c0.17-0.28,0.58-0.27,0.72,0.02l1.08,2.23
						C95.06,50.12,95.11,50.18,95.18,50.22z"/>
				</g>
			</g>
		</g>
		<g>
			<g>
				<g>
					<path class="st4" d="M332.99,37.9l2.13,1.27c0.28,0.16,0.25,0.57-0.04,0.72l-2.26,1.13c-0.07,0.04-0.13,0.09-0.17,0.16
						l-1.32,2.16c-0.17,0.28-0.58,0.27-0.72-0.02l-1.08-2.23c-0.03-0.07-0.09-0.13-0.15-0.17l-2.13-1.27
						c-0.28-0.16-0.25-0.57,0.04-0.72l2.26-1.13c0.07-0.04,0.13-0.09,0.17-0.16l1.32-2.16c0.17-0.28,0.58-0.27,0.72,0.02l1.08,2.23
						C332.87,37.8,332.92,37.86,332.99,37.9z"/>
				</g>
			</g>
		</g>
		<g>
			<g>
				<g>
					<path class="st4" d="M530.81,23.84l2.13,1.27c0.28,0.16,0.25,0.57-0.04,0.72l-2.26,1.13c-0.07,0.04-0.13,0.09-0.17,0.16
						l-1.32,2.16c-0.17,0.28-0.58,0.27-0.72-0.02l-1.08-2.23c-0.03-0.07-0.09-0.13-0.15-0.17l-2.13-1.27
						c-0.28-0.16-0.25-0.57,0.04-0.72l2.26-1.13c0.07-0.04,0.13-0.09,0.17-0.16l1.32-2.16c0.17-0.28,0.58-0.27,0.72,0.02l1.08,2.23
						C530.69,23.75,530.75,23.81,530.81,23.84z"/>
				</g>
			</g>
		</g>
		<g>
			<g>
				<g>
					<path class="st4" d="M667.43,30.8l2.13,1.27c0.28,0.16,0.25,0.57-0.04,0.72l-2.26,1.13c-0.07,0.04-0.13,0.09-0.17,0.16
						l-1.32,2.16c-0.17,0.28-0.58,0.27-0.72-0.02l-1.08-2.23c-0.03-0.07-0.09-0.13-0.15-0.17l-2.13-1.27
						c-0.28-0.16-0.25-0.57,0.04-0.72l2.26-1.13c0.07-0.04,0.13-0.09,0.17-0.16l1.32-2.16c0.17-0.28,0.58-0.27,0.72,0.02l1.08,2.23
						C667.31,30.7,667.36,30.76,667.43,30.8z"/>
				</g>
			</g>
		</g>
		<g>
			<g>
				<g>
					<path class="st4" d="M434.24,432.45l2.5,1.46c0.32,0.19,0.3,0.67-0.04,0.84l-2.63,1.35c-0.08,0.04-0.15,0.11-0.2,0.19
						l-1.52,2.53c-0.2,0.33-0.68,0.32-0.84-0.02l-1.29-2.6c-0.04-0.08-0.1-0.15-0.18-0.19l-2.5-1.46c-0.32-0.19-0.3-0.67,0.04-0.84
						l2.63-1.35c0.08-0.04,0.15-0.11,0.2-0.19l1.52-2.53c0.2-0.33,0.68-0.32,0.84,0.02l1.29,2.6
						C434.1,432.33,434.16,432.4,434.24,432.45z"/>
				</g>
			</g>
		</g>
		<g>
			<g>
				<g>
					<path class="st4" d="M684.73,248.46l2.5,1.46c0.32,0.19,0.3,0.67-0.04,0.84l-2.63,1.35c-0.08,0.04-0.15,0.11-0.2,0.19
						l-1.52,2.53c-0.2,0.33-0.68,0.32-0.84-0.02l-1.29-2.6c-0.04-0.08-0.1-0.15-0.18-0.19l-2.5-1.46c-0.32-0.19-0.3-0.67,0.04-0.84
						l2.63-1.35c0.08-0.04,0.15-0.11,0.2-0.19l1.52-2.53c0.2-0.33,0.68-0.32,0.84,0.02l1.29,2.6
						C684.59,248.34,684.66,248.41,684.73,248.46z"/>
				</g>
			</g>
		</g>
		<g>
			<g>
				<g>
					<path class="st4" d="M39.35,270.71l2.01,1.2c0.26,0.16,0.24,0.54-0.04,0.68l-2.14,1.07c-0.07,0.03-0.12,0.09-0.16,0.15
						l-1.25,2.04c-0.16,0.26-0.55,0.25-0.68-0.02l-1.02-2.11c-0.03-0.07-0.08-0.12-0.15-0.16l-2.01-1.2
						c-0.26-0.16-0.24-0.54,0.04-0.68l2.14-1.07c0.07-0.03,0.12-0.09,0.16-0.15l1.25-2.04c0.16-0.26,0.55-0.25,0.68,0.02l1.02,2.11
						C39.24,270.62,39.29,270.67,39.35,270.71z"/>
				</g>
			</g>
		</g>
		<g>
			<g>
				<g>
					<path class="st4" d="M255.38,431.25l2.01,1.2c0.26,0.16,0.24,0.54-0.04,0.68l-2.14,1.07c-0.07,0.03-0.12,0.09-0.16,0.15
						l-1.25,2.04c-0.16,0.26-0.55,0.25-0.68-0.02l-1.02-2.11c-0.03-0.07-0.08-0.12-0.15-0.16l-2.01-1.2
						c-0.26-0.16-0.24-0.54,0.04-0.68l2.14-1.07c0.07-0.03,0.12-0.09,0.16-0.15l1.25-2.04c0.16-0.26,0.55-0.25,0.68,0.02l1.02,2.11
						C255.26,431.16,255.31,431.22,255.38,431.25z"/>
				</g>
			</g>
		</g>
		<g>
			<g>
				<g>
					<path class="st4" d="M635.38,370.5l2.01,1.2c0.26,0.16,0.24,0.54-0.04,0.68l-2.14,1.07c-0.07,0.03-0.12,0.09-0.16,0.15
						l-1.25,2.04c-0.16,0.26-0.55,0.25-0.68-0.02l-1.02-2.11c-0.03-0.07-0.08-0.12-0.15-0.16l-2.01-1.2
						c-0.26-0.16-0.24-0.54,0.04-0.68l2.14-1.07c0.07-0.03,0.12-0.09,0.16-0.15l1.25-2.04c0.16-0.26,0.55-0.25,0.68,0.02l1.02,2.11
						C635.27,370.41,635.32,370.46,635.38,370.5z"/>
				</g>
			</g>
		</g>
		<g>
			<g>
				<g>
					<path class="st4" d="M602.98,434.7l2.01,1.2c0.26,0.16,0.24,0.54-0.04,0.68l-2.14,1.07c-0.07,0.03-0.12,0.09-0.16,0.15
						l-1.25,2.04c-0.16,0.26-0.55,0.25-0.68-0.02l-1.02-2.11c-0.03-0.07-0.08-0.12-0.15-0.16l-2.01-1.2
						c-0.26-0.16-0.24-0.54,0.04-0.68l2.14-1.07c0.07-0.03,0.12-0.09,0.16-0.15l1.25-2.04c0.16-0.26,0.55-0.25,0.68,0.02l1.02,2.11
						C602.86,434.61,602.92,434.66,602.98,434.7z"/>
				</g>
			</g>
		</g>
		<g>
			<g>
				<g>
					<path class="st4" d="M635.85,112.06l2.18,1.3c0.28,0.17,0.26,0.59-0.04,0.74l-2.32,1.16c-0.07,0.04-0.13,0.09-0.18,0.16
						l-1.35,2.21c-0.18,0.29-0.59,0.27-0.74-0.02l-1.11-2.28c-0.03-0.07-0.09-0.13-0.16-0.17l-2.18-1.3
						c-0.28-0.17-0.26-0.59,0.04-0.74l2.32-1.16c0.07-0.04,0.13-0.09,0.18-0.16l1.35-2.21c0.18-0.29,0.59-0.27,0.74,0.02l1.11,2.28
						C635.72,111.96,635.78,112.02,635.85,112.06z"/>
				</g>
			</g>
		</g>
		<g>
			<g>
				<g>
					<g>
						<path class="st5" d="M566.06,150.11l1.04,0.64c0.13,0.08,0.13,0.28-0.01,0.35l-1.07,0.51c-0.03,0.02-0.06,0.04-0.08,0.07
							l-0.6,1.02c-0.08,0.13-0.27,0.12-0.35-0.02l-0.55-1.09c-0.02-0.03-0.04-0.06-0.08-0.08l-1.04-0.64
							c-0.13-0.08-0.13-0.28,0.01-0.35l1.07-0.51c0.03-0.02,0.06-0.04,0.08-0.07l0.6-1.02c0.08-0.13,0.27-0.12,0.35,0.02l0.55,1.09
							C566,150.06,566.03,150.09,566.06,150.11z"/>
					</g>
				</g>
			</g>
			<g>
				<g>
					<g>
						<path class="st5" d="M566.88,301.27l1.04,0.64c0.13,0.08,0.13,0.28-0.01,0.35l-1.07,0.51c-0.03,0.02-0.06,0.04-0.08,0.07
							l-0.6,1.02c-0.08,0.13-0.27,0.12-0.35-0.02l-0.55-1.09c-0.02-0.03-0.04-0.06-0.08-0.08l-1.04-0.64
							c-0.13-0.08-0.13-0.28,0.01-0.35l1.07-0.51c0.03-0.02,0.06-0.04,0.08-0.07l0.6-1.02c0.08-0.13,0.27-0.12,0.35,0.02l0.55,1.09
							C566.82,301.22,566.85,301.25,566.88,301.27z"/>
					</g>
				</g>
			</g>
			<g>
				<g>
					<g>
						<path class="st5" d="M608.41,232l2.01,1.2c0.26,0.16,0.24,0.54-0.04,0.68l-2.14,1.07c-0.07,0.03-0.12,0.09-0.16,0.15
							l-1.25,2.04c-0.16,0.26-0.55,0.25-0.68-0.02l-1.02-2.11c-0.03-0.07-0.08-0.12-0.15-0.16l-2.01-1.2
							c-0.26-0.16-0.24-0.54,0.04-0.68l2.14-1.07c0.07-0.03,0.12-0.09,0.16-0.15l1.25-2.04c0.16-0.26,0.55-0.25,0.68,0.02l1.02,2.11
							C608.29,231.91,608.34,231.96,608.41,232z"/>
					</g>
				</g>
			</g>
			<g>
				<g>
					<g>
						<path class="st5" d="M554.9,161.42l2.02,1.25c0.26,0.16,0.25,0.54-0.02,0.67l-2.07,0.99c-0.07,0.03-0.12,0.08-0.16,0.14
							l-1.17,1.98c-0.15,0.26-0.53,0.23-0.67-0.04l-1.07-2.12c-0.03-0.07-0.09-0.12-0.15-0.16l-2.02-1.25
							c-0.26-0.16-0.25-0.54,0.02-0.67l2.07-0.99c0.07-0.03,0.12-0.08,0.16-0.14l1.17-1.98c0.15-0.26,0.53-0.23,0.67,0.04l1.07,2.12
							C554.79,161.33,554.84,161.38,554.9,161.42z"/>
					</g>
				</g>
			</g>
			<g>
				<g>
					<g>
						<path class="st5" d="M79.82,220.24l1.53,0.97c0.2,0.13,0.19,0.42-0.02,0.51l-1.59,0.73c-0.05,0.02-0.09,0.06-0.12,0.11
							l-0.91,1.5c-0.12,0.19-0.41,0.17-0.51-0.04l-0.8-1.63c-0.02-0.05-0.06-0.09-0.11-0.12l-1.53-0.97
							c-0.2-0.13-0.19-0.42,0.02-0.51l1.59-0.73c0.05-0.02,0.09-0.06,0.12-0.11l0.91-1.5c0.12-0.19,0.41-0.17,0.51,0.04l0.8,1.63
							C79.74,220.17,79.77,220.21,79.82,220.24z"/>
					</g>
				</g>
			</g>
			<g>
				<g>
					<g>
						<path class="st5" d="M112.94,254.85l1.48,0.85c0.19,0.11,0.19,0.38,0.01,0.48l-1.46,0.76c-0.05,0.02-0.08,0.06-0.11,0.11
							l-0.79,1.45c-0.1,0.19-0.38,0.18-0.48-0.01l-0.82-1.49c-0.03-0.05-0.06-0.09-0.11-0.11l-1.48-0.85
							c-0.19-0.11-0.19-0.38-0.01-0.48l1.46-0.76c0.05-0.02,0.08-0.06,0.11-0.11l0.79-1.45c0.1-0.19,0.38-0.18,0.48,0.01l0.82,1.49
							C112.86,254.78,112.9,254.82,112.94,254.85z"/>
					</g>
				</g>
			</g>
			<g>
				<g>
					<g>
						<path class="st5" d="M157.24,140.21l1.48,0.85c0.19,0.11,0.19,0.38,0.01,0.48l-1.46,0.76c-0.05,0.02-0.08,0.06-0.11,0.11
							l-0.79,1.45c-0.1,0.19-0.38,0.18-0.48-0.01l-0.82-1.49c-0.03-0.05-0.06-0.09-0.11-0.11l-1.48-0.85
							c-0.19-0.11-0.19-0.38-0.01-0.48l1.46-0.76c0.05-0.02,0.08-0.06,0.11-0.11l0.79-1.45c0.1-0.19,0.38-0.18,0.48,0.01l0.82,1.49
							C157.16,140.14,157.2,140.18,157.24,140.21z"/>
					</g>
				</g>
			</g>
			<g>
				<g>
					<g>
						<path class="st5" d="M272.18,115.91l1.48,0.85c0.19,0.11,0.19,0.38,0.01,0.48l-1.46,0.76c-0.05,0.02-0.08,0.06-0.11,0.11
							l-0.79,1.45c-0.1,0.19-0.38,0.18-0.48-0.01l-0.82-1.49c-0.03-0.05-0.06-0.09-0.11-0.11l-1.48-0.85
							c-0.19-0.11-0.19-0.38-0.01-0.48l1.46-0.76c0.05-0.02,0.08-0.06,0.11-0.11l0.79-1.45c0.1-0.19,0.38-0.18,0.48,0.01l0.82,1.49
							C272.1,115.84,272.14,115.88,272.18,115.91z"/>
					</g>
				</g>
			</g>
			<g>
				<g>
					<g>
						<path class="st5" d="M102.14,260.42l2.93,1.68c0.38,0.22,0.39,0.76,0.01,0.96l-2.9,1.51c-0.09,0.05-0.17,0.12-0.21,0.21
							l-1.56,2.87c-0.2,0.37-0.75,0.36-0.96-0.03l-1.63-2.96c-0.05-0.09-0.13-0.17-0.22-0.22l-2.93-1.68
							c-0.38-0.22-0.39-0.76-0.01-0.96l2.9-1.51c0.09-0.05,0.17-0.12,0.21-0.21l1.56-2.87c0.2-0.37,0.75-0.36,0.96,0.03l1.63,2.96
							C101.97,260.29,102.05,260.36,102.14,260.42z"/>
					</g>
				</g>
			</g>
			<g>
				<g>
					<g>
						<path class="st5" d="M292.91,100.55l2.93,1.68c0.38,0.22,0.39,0.76,0.01,0.96l-2.9,1.51c-0.09,0.05-0.17,0.12-0.21,0.21
							l-1.56,2.87c-0.2,0.37-0.75,0.36-0.96-0.03l-1.63-2.96c-0.05-0.09-0.13-0.17-0.22-0.22l-2.93-1.68
							c-0.38-0.22-0.39-0.76-0.01-0.96l2.9-1.51c0.09-0.05,0.16-0.12,0.21-0.21l1.56-2.87c0.2-0.37,0.75-0.36,0.96,0.03l1.63,2.96
							C292.74,100.42,292.82,100.5,292.91,100.55z"/>
					</g>
				</g>
			</g>
			<g>
				<g>
					<g>
						<path class="st5" d="M254.37,397.73l2.93,1.68c0.38,0.22,0.39,0.76,0.01,0.96l-2.9,1.51c-0.09,0.05-0.17,0.12-0.21,0.21
							l-1.56,2.87c-0.2,0.37-0.75,0.36-0.96-0.03l-1.63-2.96c-0.05-0.09-0.13-0.17-0.22-0.22l-2.93-1.68
							c-0.38-0.22-0.39-0.76-0.01-0.96l2.9-1.51c0.09-0.05,0.16-0.12,0.21-0.21l1.56-2.87c0.2-0.37,0.75-0.36,0.96,0.03l1.63,2.96
							C254.2,397.6,254.28,397.68,254.37,397.73z"/>
					</g>
				</g>
			</g>
			<g>
				<g>
					<g>
						<path class="st5" d="M523.97,333.76l2.93,1.68c0.38,0.22,0.39,0.76,0.01,0.96l-2.9,1.51c-0.09,0.05-0.17,0.12-0.21,0.21
							l-1.56,2.87c-0.2,0.37-0.75,0.36-0.96-0.03l-1.63-2.96c-0.05-0.09-0.13-0.17-0.22-0.22l-2.93-1.68
							c-0.38-0.22-0.39-0.76-0.01-0.96l2.9-1.51c0.09-0.05,0.17-0.12,0.21-0.21l1.56-2.87c0.2-0.37,0.75-0.36,0.96,0.03l1.63,2.96
							C523.8,333.63,523.88,333.71,523.97,333.76z"/>
					</g>
				</g>
			</g>
			<g>
				<g>
					<g>
						<path class="st5" d="M483.62,116.59l1.91,1.09c0.25,0.14,0.25,0.5,0.01,0.62l-1.89,0.98c-0.06,0.03-0.11,0.08-0.14,0.14
							l-1.02,1.87c-0.13,0.24-0.49,0.23-0.62-0.02l-1.06-1.93c-0.03-0.06-0.08-0.11-0.14-0.15l-1.91-1.09
							c-0.25-0.14-0.25-0.5-0.01-0.62l1.89-0.98c0.06-0.03,0.11-0.08,0.14-0.14l1.02-1.87c0.13-0.24,0.49-0.23,0.62,0.02l1.06,1.93
							C483.51,116.51,483.56,116.56,483.62,116.59z"/>
					</g>
				</g>
			</g>
		</g>
		<g>
			<g>
				<g>
					
						<ellipse transform="matrix(0.9552 -0.296 0.296 0.9552 -5.5739 82.1841)" class="st6" cx="268.64" cy="59.5" rx="22.72" ry="11.58"/>
				</g>
			</g>
			<g>
				<g>
					<path class="st7" d="M265.83,51.92c10.88-3.52,21.35-2.39,24.78,2.4c-0.03-0.62-0.14-1.24-0.36-1.83
						c-2.19-6.02-13.64-7.76-25.58-3.89c-11.93,3.87-19.83,11.88-17.64,17.89c0.19,0.53,0.46,1.03,0.8,1.5
						C247.59,62.26,255.07,55.41,265.83,51.92z"/>
				</g>
			</g>
		</g>
		<g>
			<g>
				<g>
					
						<ellipse transform="matrix(0.7309 -0.6825 0.6825 0.7309 -127.1133 489.9431)" class="st6" cx="557.72" cy="406.16" rx="42.83" ry="27.51"/>
				</g>
			</g>
			<g>
				<g>
					<path class="st7" d="M570.9,420.02c-15.74,14.73-35.77,19.46-47.07,11.8c0.72,1.29,1.58,2.48,2.61,3.57
						c10.4,11.08,32.83,6.95,50.1-9.21c17.27-16.16,22.83-38.25,12.43-49.32c-0.92-0.98-1.94-1.84-3.04-2.58
						C592.52,386.06,586.47,405.45,570.9,420.02z"/>
				</g>
			</g>
		</g>
		<g>
			<g>
				<g>
					
						<ellipse transform="matrix(0.1524 -0.9883 0.9883 0.1524 238.6279 484.5166)" class="st6" cx="401.79" cy="103.14" rx="22.03" ry="57.53"/>
				</g>
			</g>
			<g>
				<g>
					<path class="st7" d="M405.64,88.21c28.53,4.86,50.01,16.84,51.21,27.87c0.77-1.03,1.32-2.13,1.63-3.29
						c3.14-11.82-19.68-25.72-50.98-31.06c-31.3-5.33-59.22-0.08-62.37,11.74c-0.28,1.05-0.35,2.11-0.23,3.18
						C351.95,87.2,377.42,83.4,405.64,88.21z"/>
				</g>
			</g>
			<g>
				<g>
					<g>
						<path class="st7" d="M399.38,101.26c7.17,3.75,11.99,10.83,18.63,15.44c4.4,3.05,9.73,5.16,12.7,9.62
							c-0.29-2.61-2.08-4.78-3.86-6.7c-5.02-5.42-10.66-10.27-16.77-14.43c-3.14-2.14-6.62-4.15-10.41-4.13"/>
					</g>
				</g>
				<g class="st8">
					<g>
						<path d="M399.38,101.26c7.17,3.75,11.99,10.83,18.63,15.44c4.4,3.05,9.73,5.16,12.7,9.62c-0.29-2.61-2.08-4.78-3.86-6.7
							c-5.02-5.42-10.66-10.27-16.77-14.43c-3.14-2.14-6.62-4.15-10.41-4.13"/>
					</g>
				</g>
				<g>
					<g>
						<path class="st7" d="M433.5,4.48c-0.13-1.16-0.34-2.4-1.13-3.26c-1.08-1.18-2.89-1.3-4.49-1.19
							c-6.82,0.51-15.5,10.62-19.67,16.04l0.7,30.09C427.59,36.38,435.1,18.93,433.5,4.48z"/>
					</g>
				</g>
				<g class="st8">
					<g>
						<path d="M433.5,4.48c-0.13-1.16-0.34-2.4-1.13-3.26c-1.08-1.18-2.89-1.3-4.49-1.19c-6.82,0.51-15.5,10.62-19.67,16.04
							l0.7,30.09C427.59,36.38,435.1,18.93,433.5,4.48z"/>
					</g>
				</g>
				<g>
					<g>
						<path class="st7" d="M403.96,66.27c3.57-1.19,7.15-2.28,10.7-2.86c3.55-0.58,7.13-2.07,10.63-2.89
							c4.54-1.07,8.79-3.12,13.15-4.79c4.36-1.67,9.01-2.99,13.65-2.48c-3.43-1.73-7.33-2.36-11.17-2.35
							c-3.84,0-7.65,0.61-11.44,1.21c-5.26,0.84-10.62,1.71-15.39,4.09C409.33,58.59,404.95,61.04,403.96,66.27"/>
					</g>
				</g>
				<g class="st8">
					<g>
						<path d="M403.96,66.27c3.57-1.19,7.15-2.28,10.7-2.86c3.55-0.58,7.13-2.07,10.63-2.89c4.54-1.07,8.79-3.12,13.15-4.79
							c4.36-1.67,9.01-2.99,13.65-2.48c-3.43-1.73-7.33-2.36-11.17-2.35c-3.84,0-7.65,0.61-11.44,1.21
							c-5.26,0.84-10.62,1.71-15.39,4.09C409.33,58.59,404.95,61.04,403.96,66.27"/>
					</g>
				</g>
				<g>
					<g>
						<path class="st7" d="M379.73,67.3c-4.62-6.76-13.86-8.74-21.81-10.71c10.57,9.11,21.49,20.63,29.65,31.94
							C389.42,83.04,385.57,75.84,379.73,67.3z"/>
					</g>
				</g>
				<g class="st8">
					<g>
						<path d="M379.73,67.3c-4.62-6.76-13.86-8.74-21.81-10.71c10.57,9.11,21.49,20.63,29.65,31.94
							C389.42,83.04,385.57,75.84,379.73,67.3z"/>
					</g>
				</g>
				<g>
					<g>
						<path class="st7" d="M385.69,109.29c-9.51-2.75-17.35-13.61-26.72-16.68C369.78,92.1,383.31,98.6,385.69,109.29"/>
					</g>
				</g>
				<g class="st8">
					<g>
						<path d="M385.69,109.29c-9.51-2.75-17.35-13.61-26.72-16.68C369.78,92.1,383.31,98.6,385.69,109.29"/>
					</g>
				</g>
				<g>
					<g>
						<path class="st7" d="M395.16,87.34c5.32-0.43,10.67,0.93,15.55,3.11c4.88,2.18,9.35,5.14,13.8,8.1
							c0.41-3.45-1.6-6.67-3.52-9.56c-1.45-2.17-2.9-4.36-4.73-6.23c-1.83-1.86-4.08-3.4-6.63-3.97c-3.07-0.7-6.39,0.08-9.01,1.84
							C398.01,82.39,396.31,84.41,395.16,87.34"/>
					</g>
				</g>
				<g>
					<g>
						<path class="st7" d="M386.41,122.38c0,0,4.72-32.25,9.95-50.03s10.3-38.01,10.3-38.01l2.06,0.56c0,0-11.04,35.12-15.34,56.95
							c-4.3,21.81-2.87,31.61-2.87,31.61L386.41,122.38"/>
					</g>
				</g>
				<g>
					<g>
						<path class="st7" d="M431.58,2.22c0.01,0.01-0.07,0.12-0.22,0.33c-0.18,0.24-0.4,0.54-0.68,0.9c-0.6,0.78-1.45,1.91-2.49,3.33
							c-2.08,2.83-4.83,6.83-7.57,11.44c-2.73,4.61-4.93,8.94-6.43,12.12c-0.75,1.59-1.34,2.88-1.73,3.78
							c-0.19,0.42-0.35,0.76-0.47,1.03c-0.11,0.23-0.17,0.35-0.19,0.35c-0.01,0,0.03-0.13,0.12-0.38c0.11-0.28,0.24-0.63,0.41-1.06
							c0.36-0.92,0.91-2.23,1.63-3.83c1.44-3.21,3.61-7.57,6.35-12.19c2.75-4.62,5.54-8.61,7.67-11.4c1.07-1.4,1.95-2.52,2.58-3.27
							c0.3-0.35,0.54-0.64,0.73-0.86C431.48,2.31,431.57,2.21,431.58,2.22z"/>
					</g>
				</g>
				<g>
					<g>
						<path class="st7" d="M403.2,50.7c-6.15-6.81-7.91-16.24-5.35-25.04c1.79-6.16,5.69-11.46,9.76-16.42
							c0.35-0.43,0.75-0.89,1.3-0.99c0.76-0.14,1.45,0.45,1.96,1.03c4.44,5.04,5.72,12.18,5.4,18.88
							c-0.21,4.46-1.07,8.95-3.06,12.95C411.23,45.12,407.27,48.85,403.2,50.7"/>
					</g>
				</g>
				<g>
					<g>
						<path class="st6" d="M403.2,50.7c-0.01,0,0.02-0.13,0.1-0.38c0.09-0.28,0.2-0.63,0.34-1.05c0.31-0.91,0.73-2.24,1.21-3.89
							c0.97-3.3,2.08-7.92,2.93-13.09c0.84-5.18,1.32-9.91,1.66-13.33c0.16-1.68,0.29-3.05,0.39-4.06c0.05-0.45,0.09-0.81,0.12-1.1
							c0.03-0.25,0.05-0.38,0.07-0.38c0.01,0,0.01,0.13,0.01,0.39c-0.01,0.29-0.03,0.66-0.05,1.11c-0.05,0.96-0.14,2.35-0.28,4.07
							c-0.27,3.43-0.72,8.17-1.56,13.36c-0.85,5.19-2,9.82-3.04,13.11c-0.52,1.64-0.97,2.96-1.32,3.86c-0.16,0.42-0.3,0.76-0.4,1.03
							C403.27,50.59,403.22,50.71,403.2,50.7z"/>
					</g>
				</g>
				<g class="st8">
					<g>
						<path d="M395.16,87.34c5.32-0.43,10.67,0.93,15.55,3.11c4.88,2.18,9.35,5.14,13.8,8.1c0.41-3.45-1.6-6.67-3.52-9.56
							c-1.45-2.17-2.9-4.36-4.73-6.23c-1.83-1.86-4.08-3.4-6.63-3.97c-3.07-0.7-6.39,0.08-9.01,1.84
							C398.01,82.39,396.31,84.41,395.16,87.34"/>
					</g>
				</g>
				<g>
					<g>
						<path class="st7" d="M418.48,113.6c-0.01,0.01-0.1-0.06-0.27-0.21c-0.19-0.18-0.43-0.4-0.72-0.66
							c-0.61-0.58-1.49-1.43-2.62-2.43c-0.55-0.51-1.17-1.06-1.84-1.64c-0.66-0.59-1.39-1.19-2.17-1.81
							c-1.56-1.23-3.31-2.55-5.32-3.65c-2-1.11-4.1-1.8-6.08-1.82c-0.99-0.03-1.93-0.04-2.81,0.07c-0.87,0.1-1.67,0.29-2.39,0.51
							c-1.43,0.44-2.51,1.02-3.22,1.46s-1.08,0.73-1.1,0.71c-0.01-0.01,0.08-0.09,0.25-0.23c0.17-0.15,0.43-0.35,0.78-0.59
							c0.7-0.48,1.77-1.11,3.22-1.58c0.72-0.24,1.54-0.44,2.43-0.56c0.89-0.13,1.85-0.12,2.85-0.1c2.03,0,4.22,0.71,6.24,1.83
							c2.04,1.11,3.8,2.45,5.36,3.7c0.78,0.63,1.5,1.24,2.16,1.84c0.67,0.59,1.28,1.15,1.82,1.67c1.1,1.03,1.96,1.91,2.54,2.52
							c0.27,0.28,0.49,0.51,0.67,0.71C418.41,113.51,418.48,113.6,418.48,113.6z"/>
					</g>
				</g>
				<g>
					<g>
						<path class="st7" d="M379.85,102.62c0.01-0.02,0.21,0.1,0.55,0.34c0.34,0.23,0.82,0.61,1.37,1.1
							c1.11,0.98,2.51,2.52,3.68,4.47c1.17,1.96,1.87,3.91,2.21,5.36c0.17,0.72,0.28,1.31,0.32,1.73c0.05,0.41,0.06,0.64,0.04,0.64
							c-0.06,0.01-0.2-0.9-0.6-2.31c-0.4-1.41-1.13-3.32-2.27-5.24c-1.15-1.92-2.49-3.46-3.55-4.47
							C380.55,103.22,379.81,102.67,379.85,102.62z"/>
					</g>
				</g>
				<g>
					<g>
						<path class="st7" d="M367.32,64.12c0.01-0.01,0.14,0.07,0.37,0.23c0.27,0.19,0.61,0.42,1.04,0.72c0.46,0.33,1,0.71,1.63,1.16
							c0.63,0.45,1.29,1.05,2.05,1.66c3.01,2.49,6.88,6.36,10.28,11.3c1.66,2.49,3.11,4.95,4.25,7.28c1.13,2.33,2.04,4.49,2.7,6.33
							c0.67,1.84,1.15,3.35,1.47,4.4c0.15,0.49,0.28,0.89,0.38,1.2c0.08,0.28,0.12,0.42,0.11,0.43c-0.01,0-0.07-0.13-0.18-0.4
							c-0.11-0.27-0.26-0.67-0.44-1.18c-0.37-1.03-0.88-2.53-1.58-4.35c-0.69-1.83-1.62-3.96-2.76-6.27
							c-1.15-2.31-2.59-4.76-4.25-7.23c-3.38-4.9-7.19-8.77-10.15-11.31c-0.75-0.63-1.39-1.23-2.01-1.7
							c-0.61-0.46-1.14-0.86-1.59-1.2c-0.41-0.32-0.74-0.57-1-0.77C367.43,64.23,367.31,64.13,367.32,64.12z"/>
					</g>
				</g>
				<g>
					<g>
						<path class="st7" d="M410.94,85.87c-0.01,0.02-0.27-0.09-0.73-0.3c-0.25-0.12-0.53-0.25-0.83-0.4
							c-0.32-0.16-0.72-0.27-1.14-0.43c-1.68-0.59-4.22-1.13-6.91-0.49c-1.35,0.28-2.56,0.82-3.59,1.4
							c-1.04,0.58-1.89,1.25-2.56,1.85c-1.36,1.21-1.94,2.19-1.99,2.15c-0.02-0.01,0.11-0.26,0.4-0.69c0.3-0.41,0.75-1.01,1.43-1.64
							c0.66-0.64,1.51-1.34,2.57-1.95c1.05-0.62,2.29-1.18,3.67-1.47c2.78-0.66,5.39-0.06,7.08,0.6c0.42,0.18,0.82,0.31,1.14,0.49
							c0.3,0.17,0.57,0.32,0.81,0.46C410.72,85.69,410.95,85.84,410.94,85.87z"/>
					</g>
				</g>
				<g>
					<g>
						<path class="st7" d="M429.94,54.53c0,0.01-0.14,0.05-0.42,0.12c-0.32,0.07-0.72,0.17-1.22,0.29
							c-1.06,0.25-2.59,0.62-4.47,1.14c-1.87,0.53-4.1,1.2-6.51,2.1c-2.41,0.9-5.03,2-7.58,3.5c-1.26,0.76-2.46,1.59-3.41,2.58
							c-0.95,1.03-1.86,2.03-2.72,3c-1.71,1.93-3.17,3.73-4.29,5.32c-1.13,1.59-1.93,2.94-2.45,3.9c-0.52,0.96-0.77,1.51-0.8,1.49
							c-0.01,0,0.04-0.15,0.15-0.41c0.11-0.27,0.28-0.66,0.52-1.14c0.48-0.98,1.26-2.37,2.36-3.98c1.11-1.61,2.55-3.45,4.25-5.39
							c0.85-0.97,1.76-1.98,2.71-3.01c0.99-1.04,2.21-1.88,3.49-2.65c2.58-1.52,5.22-2.61,7.65-3.5c2.43-0.88,4.67-1.53,6.56-2.03
							c1.89-0.48,3.44-0.82,4.51-1.03c0.51-0.09,0.92-0.17,1.24-0.22C429.79,54.53,429.94,54.51,429.94,54.53z"/>
					</g>
				</g>
				<g>
					<g>
						<path class="st7" d="M394.88,82.38c-0.02,0-0.03-0.31-0.03-0.86c0.01-0.62,0.02-1.4,0.03-2.33c0.01-1.96-0.03-4.68-0.36-7.65
							s-0.92-5.62-1.36-7.54c-0.21-0.9-0.39-1.66-0.53-2.27c-0.12-0.54-0.18-0.84-0.15-0.84s0.12,0.28,0.29,0.81
							c0.16,0.53,0.38,1.29,0.64,2.24c0.5,1.9,1.14,4.56,1.47,7.56c0.34,2.99,0.34,5.73,0.26,7.69c-0.04,0.98-0.09,1.78-0.14,2.33
							C394.94,82.08,394.9,82.38,394.88,82.38z"/>
					</g>
				</g>
				<g>
					<g>
						<path class="st7" d="M398.63,60.17c0.5-3.71,0.02-7.52-1.04-11.11c-2.91-9.85-10.42-18.24-19.9-22.2
							c5.05,12.24,10.11,24.47,15.16,36.71l1.64,6.34C397.03,67.16,398.13,63.88,398.63,60.17z"/>
					</g>
				</g>
				<g class="st8">
					<g>
						<path d="M398.63,60.17c0.5-3.71,0.02-7.52-1.04-11.11c-2.91-9.85-10.42-18.24-19.9-22.2c5.05,12.24,10.11,24.47,15.16,36.71
							l1.64,6.34C397.03,67.16,398.13,63.88,398.63,60.17z"/>
					</g>
				</g>
			</g>
		</g>
		<g>
			<g>
				<g>
					<g>
						
							<ellipse transform="matrix(0.7081 -0.7061 0.7061 0.7081 -238.903 239.2697)" class="st6" cx="169.95" cy="408.59" rx="29.02" ry="45.18"/>
					</g>
				</g>
				<g>
					<g>
						<path class="st7" d="M155.76,422.96c-16.08-16.08-21.76-37.03-14.07-49.21c-1.33,0.8-2.56,1.76-3.68,2.87
							c-11.32,11.35-6.19,34.86,11.45,52.5c17.64,17.65,41.11,22.75,52.43,11.4c1-1.01,1.87-2.11,2.62-3.29
							C192.31,444.58,171.67,438.87,155.76,422.96z"/>
					</g>
				</g>
			</g>
			<g>
				<g>
					<g>
						<path class="st7" d="M173.75,401.28L188,386.11l1.7,1.69c0,0-12.05,14-12.25,17.34L173.75,401.28z"/>
					</g>
				</g>
				<g>
					<g>
						<g>
							<g>
								<polygon class="st5" points="150.53,392.55 131.02,421.67 160.59,451.24 189.97,428.83 								"/>
							</g>
						</g>
					</g>
				</g>
				<g>
					<g>
						<path class="st5" d="M160.78,451.08c-2.67,2.62-11.38-1.94-19.46-10.18c-8.08-8.24-12.46-17.04-9.79-19.66
							c2.67-2.62,11.38,1.94,19.46,10.18C159.07,439.66,163.45,448.46,160.78,451.08z"/>
					</g>
				</g>
				<g class="st9">
					<g>
						<path d="M160.78,451.08c-2.67,2.62-11.38-1.94-19.46-10.18c-8.08-8.24-12.46-17.04-9.79-19.66
							c2.67-2.62,11.38,1.94,19.46,10.18C159.07,439.66,163.45,448.46,160.78,451.08z"/>
					</g>
				</g>
				<g>
					<g>
						<path class="st5" d="M190.84,431.06c-2.44,2.22-14.79,0.33-28.27-12.07c-13.48-12.4-21.12-21.73-14.24-29
							c5.65-5.97,16.93-1.43,30.41,10.97C192.22,413.35,198.86,423.76,190.84,431.06z"/>
					</g>
				</g>
				<g>
					<g>
						<g>
							<path class="st6" d="M160.59,451.24c-0.01-0.01,0.15-0.15,0.47-0.42c0.35-0.28,0.82-0.66,1.42-1.15
								c1.28-1.02,3.1-2.47,5.4-4.3c4.69-3.69,11.32-8.9,19.2-15.09l-0.03,0.03c0.61-0.68,0.61-1.76,0.42-2.74
								c-0.19-1-0.57-1.99-1.02-2.95c-0.91-1.93-2.1-3.81-3.44-5.64c-2.68-3.66-5.92-7.18-9.49-10.53
								c-3.89-3.65-7.98-6.87-12.16-9.43c-2.09-1.27-4.21-2.4-6.36-3.2c-1.07-0.39-2.16-0.72-3.24-0.85
								c-1.06-0.13-2.22-0.06-2.9,0.63l0.02-0.03c-5.31,7.8-9.75,14.33-12.89,18.94c-1.56,2.26-2.79,4.05-3.65,5.3
								c-0.41,0.59-0.74,1.05-0.98,1.39c-0.22,0.31-0.35,0.47-0.36,0.46s0.09-0.18,0.3-0.5c0.23-0.35,0.53-0.82,0.92-1.43
								c0.84-1.27,2.04-3.08,3.55-5.37c3.1-4.63,7.49-11.2,12.73-19.04l0.01-0.01l0.01-0.01c0.42-0.45,1-0.68,1.56-0.78
								c0.57-0.1,1.15-0.09,1.72-0.02c1.14,0.13,2.25,0.47,3.36,0.86c2.2,0.81,4.34,1.94,6.45,3.22c4.22,2.58,8.33,5.82,12.25,9.48
								c3.59,3.37,6.85,6.9,9.55,10.61c1.34,1.85,2.55,3.75,3.47,5.73c0.46,0.99,0.84,2.01,1.04,3.07c0.19,1.03,0.23,2.25-0.55,3.14
								l-0.01,0.01l-0.02,0.01c-7.92,6.13-14.59,11.29-19.31,14.94c-2.33,1.79-4.19,3.2-5.48,4.19c-0.62,0.46-1.1,0.83-1.46,1.09
								C160.77,451.13,160.59,451.25,160.59,451.24z"/>
						</g>
					</g>
				</g>
			</g>
		</g>
		<g>
			<g>
				<g>
					<g>
						<path class="st5" d="M258.24,289.59h-53.73v-26.32l51.18-124.48h30.71v124.48h13.31v26.32H286.4v33.42h-28.15v-33.42H258.24z
							 M258.24,263.28v-71.85h-0.51l-27.63,71.85H258.24z"/>
					</g>
				</g>
				<g class="st9">
					<g>
						<path d="M258.24,289.59h-53.73v-26.32l51.18-124.48h30.71v124.48h13.31v26.32H286.4v33.42h-28.15v-33.42H258.24z
							 M258.24,263.28v-71.85h-0.51l-27.63,71.85H258.24z"/>
					</g>
				</g>
				<g>
					<g>
						<path class="st5" d="M245.43,289.59H191.7v-26.32l51.18-124.48h30.71v124.48h13.31v26.32h-13.31v33.42h-28.15v-33.42H245.43z
							 M245.43,263.28v-71.85h-0.51l-27.63,71.85H245.43z"/>
					</g>
				</g>
			</g>
			<g>
				<g>
					<g>
						<path class="st5" d="M322.19,313.54c-7.34-8.07-11-19.47-11-34.21v-96.85c0-14.74,3.67-26.14,11-34.21
							c7.33-8.07,17.91-12.11,31.73-12.11s24.39,4.04,31.73,12.11c7.33,8.07,11,19.47,11,34.21v96.85c0,14.74-3.67,26.14-11,34.21
							c-7.34,8.07-17.91,12.11-31.73,12.11S329.52,321.61,322.19,313.54z M368.5,281.17V180.64c0-12.11-4.86-18.16-14.58-18.16
							s-14.58,6.05-14.58,18.16v100.53c0,12.11,4.86,18.16,14.58,18.16S368.5,293.28,368.5,281.17z"/>
					</g>
				</g>
				<g class="st9">
					<g>
						<path d="M385.65,148.27c-7.34-8.07-17.91-12.11-31.73-12.11s-24.4,4.04-31.73,12.11c-7.34,8.07-11,19.47-11,34.21v96.85
							c0,14.74,3.67,26.14,11,34.21c7.33,8.07,17.91,12.11,31.73,12.11s24.39-4.03,31.73-12.11c7.33-8.07,11-19.47,11-34.21v-96.85
							C396.65,167.75,392.98,156.34,385.65,148.27z M368.5,281.17c0,12.11-4.86,18.16-14.58,18.16s-14.58-7.6-14.58-18.16V180.64
							c0-10.98,4.86-18.16,14.58-18.16s14.58,6.05,14.58,18.16V281.17z"/>
					</g>
				</g>
				<g>
					<g>
						<path class="st5" d="M309.38,313.54c-7.34-8.07-11-19.47-11-34.21v-96.85c0-14.74,3.67-26.14,11-34.21
							c7.33-8.07,17.91-12.11,31.73-12.11s24.39,4.04,31.73,12.11c7.33,8.07,11,19.47,11,34.21v96.85c0,14.74-3.67,26.14-11,34.21
							c-7.34,8.07-17.91,12.11-31.73,12.11S316.71,321.61,309.38,313.54z M355.69,281.17V180.64c0-12.11-4.86-18.16-14.58-18.16
							s-14.58,6.05-14.58,18.16v100.53c0,12.11,4.86,18.16,14.58,18.16C350.83,299.33,355.69,293.28,355.69,281.17z"/>
					</g>
				</g>
			</g>
			<g>
				<g>
					<g>
						<path class="st5" d="M459.5,289.59h-53.74v-26.32l51.18-124.48h30.71v124.48h13.31v26.32h-13.31v33.42H459.5V289.59z
							 M459.5,263.28v-71.85h-0.51l-27.64,71.85H459.5z"/>
					</g>
				</g>
				<g class="st9">
					<g>
						<path d="M459.5,289.59h-53.74v-26.32l51.18-124.48h30.71v124.48h13.31v26.32h-13.31v33.42H459.5V289.59z M459.5,263.28v-71.85
							h-0.51l-27.64,71.85H459.5z"/>
					</g>
				</g>
				<g>
					<g>
						<path class="st5" d="M446.69,289.59h-53.74v-26.32l51.18-124.48h30.71v124.48h13.31v26.32h-13.31v33.42h-28.15V289.59z
							 M446.69,263.28v-71.85h-0.51l-27.64,71.85H446.69z"/>
					</g>
				</g>
			</g>
		</g>
		<g class="st10">
			<path class="st6" d="M215.38,364.62h8.32v3.68h-13.1v-19.83h4.78V364.62z"/>
			<path class="st6" d="M233.8,368.3c-0.16-0.3-0.31-0.74-0.44-1.32c-0.84,1.06-2.02,1.59-3.54,1.59c-1.39,0-2.57-0.42-3.54-1.26
				c-0.97-0.84-1.46-1.89-1.46-3.17c0-1.6,0.59-2.8,1.77-3.62c1.18-0.82,2.9-1.23,5.15-1.23h1.42v-0.78c0-1.36-0.59-2.04-1.76-2.04
				c-1.09,0-1.63,0.54-1.63,1.62h-4.59c0-1.42,0.61-2.58,1.82-3.47s2.76-1.33,4.64-1.33c1.88,0,3.36,0.46,4.45,1.38
				c1.09,0.92,1.65,2.18,1.68,3.77v6.52c0.02,1.35,0.23,2.39,0.63,3.1v0.23H233.8z M230.93,365.3c0.57,0,1.05-0.12,1.42-0.37
				c0.38-0.25,0.65-0.52,0.81-0.83v-2.36h-1.33c-1.6,0-2.4,0.72-2.4,2.15c0,0.42,0.14,0.76,0.42,1.01
				C230.13,365.17,230.49,365.3,230.93,365.3z"/>
			<path class="st6" d="M260.93,361.04c0,2.29-0.52,4.11-1.55,5.48c-1.03,1.37-2.42,2.05-4.17,2.05c-1.35,0-2.46-0.49-3.34-1.48
				v6.88h-4.59v-20.4h4.29l0.14,1.36c0.88-1.09,2.04-1.63,3.47-1.63c1.82,0,3.23,0.67,4.24,2.01c1.01,1.34,1.51,3.18,1.51,5.52
				V361.04z M256.34,360.75c0-2.62-0.76-3.92-2.29-3.92c-1.09,0-1.82,0.39-2.18,1.17v5.8c0.4,0.82,1.13,1.22,2.21,1.22
				c1.46,0,2.21-1.26,2.26-3.79V360.75z"/>
			<path class="st6" d="M271.25,368.3c-0.16-0.3-0.31-0.74-0.44-1.32c-0.84,1.06-2.02,1.59-3.54,1.59c-1.39,0-2.57-0.42-3.54-1.26
				c-0.97-0.84-1.46-1.89-1.46-3.17c0-1.6,0.59-2.8,1.77-3.62c1.18-0.82,2.9-1.23,5.15-1.23h1.42v-0.78c0-1.36-0.59-2.04-1.76-2.04
				c-1.09,0-1.63,0.54-1.63,1.62h-4.59c0-1.42,0.61-2.58,1.82-3.47s2.76-1.33,4.64-1.33c1.88,0,3.36,0.46,4.45,1.38
				c1.09,0.92,1.65,2.18,1.68,3.77v6.52c0.02,1.35,0.23,2.39,0.63,3.1v0.23H271.25z M269.52,347.38h4.85l-3.79,4.28l-3.74-0.01
				L269.52,347.38z M268.38,365.3c0.57,0,1.05-0.12,1.42-0.37c0.38-0.25,0.65-0.52,0.81-0.83v-2.36h-1.33c-1.6,0-2.4,0.72-2.4,2.15
				c0,0.42,0.14,0.76,0.42,1.01C267.58,365.17,267.94,365.3,268.38,365.3z"/>
			<path class="st6" d="M277.21,360.82c0-1.49,0.25-2.8,0.74-3.95s1.19-2.03,2.11-2.65c0.92-0.62,1.98-0.93,3.2-0.93
				c1.53,0,2.73,0.52,3.59,1.55l0.16-1.28h4.17v14.18c0,1.3-0.3,2.43-0.91,3.38c-0.6,0.96-1.48,1.69-2.62,2.21s-2.47,0.77-3.98,0.77
				c-1.08,0-2.13-0.21-3.14-0.61c-1.01-0.41-1.79-0.94-2.32-1.59l1.92-2.7c0.85,1.01,1.98,1.51,3.38,1.51
				c2.03,0,3.05-1.04,3.05-3.13v-0.46c-0.88,0.97-1.99,1.46-3.34,1.46c-1.8,0-3.25-0.69-4.36-2.06c-1.11-1.38-1.66-3.22-1.66-5.52
				V360.82z M281.82,361.11c0,1.21,0.23,2.16,0.68,2.87c0.45,0.7,1.09,1.05,1.91,1.05c0.99,0,1.71-0.33,2.17-0.99v-6.2
				c-0.44-0.67-1.16-1.01-2.14-1.01c-0.82,0-1.46,0.37-1.92,1.1C282.05,358.66,281.82,359.72,281.82,361.11z"/>
			<path class="st6" d="M293.76,349.76c0-0.65,0.24-1.19,0.71-1.61s1.08-0.63,1.84-0.63s1.37,0.21,1.84,0.63s0.71,0.95,0.71,1.61
				c0,0.65-0.24,1.19-0.71,1.61s-1.08,0.63-1.84,0.63s-1.37-0.21-1.84-0.63S293.76,350.42,293.76,349.76z M298.63,368.3h-4.6v-14.73
				h4.6V368.3z"/>
			<path class="st6" d="M305.67,353.56l0.15,1.73c1.02-1.33,2.42-2,4.21-2c1.53,0,2.68,0.46,3.44,1.38c0.76,0.92,1.15,2.3,1.18,4.14
				v9.49h-4.6V359c0-0.74-0.15-1.29-0.45-1.64c-0.3-0.35-0.84-0.53-1.63-0.53c-0.9,0-1.57,0.35-2,1.06v10.4h-4.59v-14.73H305.67z"/>
			<path class="st6" d="M325.49,368.3c-0.16-0.3-0.31-0.74-0.44-1.32c-0.84,1.06-2.02,1.59-3.54,1.59c-1.39,0-2.57-0.42-3.54-1.26
				c-0.97-0.84-1.46-1.89-1.46-3.17c0-1.6,0.59-2.8,1.77-3.62c1.18-0.82,2.9-1.23,5.15-1.23h1.42v-0.78c0-1.36-0.59-2.04-1.76-2.04
				c-1.09,0-1.63,0.54-1.63,1.62h-4.59c0-1.42,0.61-2.58,1.82-3.47s2.76-1.33,4.64-1.33c1.88,0,3.36,0.46,4.45,1.38
				c1.09,0.92,1.65,2.18,1.68,3.77v6.52c0.02,1.35,0.23,2.39,0.63,3.1v0.23H325.49z M322.61,365.3c0.57,0,1.05-0.12,1.42-0.37
				c0.38-0.25,0.65-0.52,0.81-0.83v-2.36h-1.33c-1.6,0-2.4,0.72-2.4,2.15c0,0.42,0.14,0.76,0.42,1.01
				C321.82,365.17,322.18,365.3,322.61,365.3z"/>
			<path class="st6" d="M343.15,353.56l0.15,1.73c1.02-1.33,2.42-2,4.21-2c1.53,0,2.68,0.46,3.44,1.38c0.76,0.92,1.15,2.3,1.18,4.14
				v9.49h-4.6V359c0-0.74-0.15-1.29-0.45-1.64c-0.3-0.35-0.84-0.53-1.63-0.53c-0.9,0-1.57,0.35-2,1.06v10.4h-4.59v-14.73H343.15z"/>
			<path class="st6" d="M354.09,360.79c0-1.47,0.29-2.78,0.86-3.93c0.57-1.15,1.39-2.03,2.46-2.65c1.07-0.62,2.33-0.93,3.77-0.93
				c2.21,0,3.94,0.68,5.21,2.05c1.27,1.37,1.91,3.22,1.91,5.58v0.16c0,2.3-0.64,4.12-1.91,5.47s-3,2.02-5.18,2.02
				c-2.1,0-3.78-0.63-5.05-1.88c-1.27-1.26-1.96-2.96-2.06-5.12L354.09,360.79z M358.67,361.08c0,1.36,0.21,2.36,0.64,3
				c0.43,0.64,1.06,0.95,1.89,0.95c1.63,0,2.47-1.26,2.51-3.77v-0.46c0-2.64-0.84-3.96-2.53-3.96c-1.53,0-2.37,1.14-2.49,3.42
				L358.67,361.08z"/>
			<path class="st6" d="M384.4,368.57c-2.26,0-4.09-0.67-5.49-2.02c-1.4-1.35-2.1-3.1-2.1-5.26v-0.38c0-1.51,0.28-2.84,0.84-3.99
				c0.56-1.15,1.37-2.04,2.45-2.68c1.07-0.63,2.34-0.95,3.81-0.95c2.07,0,3.7,0.64,4.9,1.93s1.8,3.08,1.8,5.37v1.79h-9.12
				c0.16,0.83,0.52,1.47,1.08,1.95s1.27,0.71,2.15,0.71c1.45,0,2.59-0.51,3.4-1.52l2.1,2.48c-0.57,0.79-1.38,1.42-2.43,1.89
				C386.73,368.34,385.61,368.57,384.4,368.57z M383.88,356.83c-1.34,0-2.14,0.89-2.4,2.67h4.63v-0.36c0.02-0.73-0.17-1.3-0.56-1.71
				C385.17,357.04,384.61,356.83,383.88,356.83z"/>
			<path class="st6" d="M398.42,357.62l2.14-4.06h4.77l-3.88,7.18l4.07,7.56h-4.79l-2.31-4.36l-2.27,4.36h-4.82l4.08-7.56
				l-3.87-7.18h4.82L398.42,357.62z"/>
			<path class="st6" d="M406.77,349.76c0-0.65,0.24-1.19,0.71-1.61c0.47-0.42,1.08-0.63,1.84-0.63c0.75,0,1.37,0.21,1.84,0.63
				c0.47,0.42,0.71,0.95,0.71,1.61c0,0.65-0.24,1.19-0.71,1.61c-0.47,0.42-1.08,0.63-1.84,0.63c-0.75,0-1.37-0.21-1.84-0.63
				C407.01,350.95,406.77,350.42,406.77,349.76z M411.65,368.3h-4.6v-14.73h4.6V368.3z"/>
			<path class="st6" d="M422.19,364.16c0-0.39-0.2-0.7-0.61-0.94c-0.41-0.24-1.19-0.48-2.33-0.73s-2.09-0.59-2.83-1
				c-0.75-0.41-1.31-0.91-1.7-1.5c-0.39-0.59-0.59-1.27-0.59-2.03c0-1.35,0.56-2.47,1.67-3.34c1.12-0.88,2.58-1.31,4.38-1.31
				c1.94,0,3.5,0.44,4.68,1.32c1.18,0.88,1.77,2.04,1.77,3.47h-4.6c0-1.18-0.62-1.77-1.87-1.77c-0.48,0-0.88,0.13-1.21,0.4
				c-0.33,0.27-0.49,0.6-0.49,1c0,0.41,0.2,0.74,0.6,0.99s1.04,0.46,1.91,0.63s1.65,0.36,2.31,0.59c2.21,0.76,3.32,2.13,3.32,4.1
				c0,1.34-0.6,2.44-1.79,3.28c-1.19,0.84-2.74,1.27-4.64,1.27c-1.26,0-2.39-0.23-3.38-0.68c-0.99-0.46-1.76-1.07-2.32-1.85
				c-0.55-0.78-0.83-1.6-0.83-2.46h4.29c0.02,0.68,0.25,1.18,0.68,1.49c0.44,0.31,0.99,0.47,1.67,0.47c0.63,0,1.1-0.13,1.41-0.38
				S422.19,364.57,422.19,364.16z"/>
			<path class="st6" d="M434.1,349.9v3.66h2.42v3.19h-2.42v6.74c0,0.55,0.1,0.94,0.3,1.16c0.2,0.22,0.59,0.33,1.18,0.33
				c0.45,0,0.83-0.03,1.14-0.08v3.28c-0.83,0.26-1.69,0.39-2.59,0.39c-1.58,0-2.75-0.37-3.5-1.12c-0.75-0.74-1.13-1.87-1.13-3.39
				v-7.31h-1.88v-3.19h1.88v-3.66H434.1z"/>
			<path class="st6" d="M445.46,368.57c-2.26,0-4.09-0.67-5.49-2.02c-1.4-1.35-2.1-3.1-2.1-5.26v-0.38c0-1.51,0.28-2.84,0.84-3.99
				s1.37-2.04,2.44-2.68s2.34-0.95,3.81-0.95c2.07,0,3.7,0.64,4.9,1.93c1.2,1.29,1.8,3.08,1.8,5.37v1.79h-9.12
				c0.16,0.83,0.52,1.47,1.08,1.95s1.27,0.71,2.15,0.71c1.45,0,2.59-0.51,3.4-1.52l2.1,2.48c-0.57,0.79-1.38,1.42-2.43,1.89
				C447.8,368.34,446.67,368.57,445.46,368.57z M444.94,356.83c-1.34,0-2.14,0.89-2.4,2.67h4.63v-0.36c0.02-0.73-0.17-1.3-0.56-1.71
				C446.23,357.04,445.67,356.83,444.94,356.83z"/>
		</g>
		<g>
			<g>
				<g>
					<g>
						
							<ellipse transform="matrix(0.9802 -0.1978 0.1978 0.9802 -32.6961 109.924)" class="st6" cx="533.87" cy="218.62" rx="24.39" ry="76.42"/>
					</g>
				</g>
				<g>
					<g>
						<path class="st7" d="M550.58,215.47c-7.61-37.71-22.79-67.11-35.42-70c1.12-0.88,2.32-1.46,3.62-1.72
							c13.2-2.66,30.67,28.71,39.02,70.09c8.35,41.37,4.41,77.07-8.79,79.73c-1.17,0.24-2.37,0.2-3.6-0.08
							C555.64,285.45,558.1,252.77,550.58,215.47z"/>
					</g>
				</g>
			</g>
			<g>
				<g>
					<g>
						<g>
							<g>
								<g>
									<g>
										<g>
											<g>
												<g>
													<g>
														<g>
															<g>
																<g>
																	<g>
																		<g>
																			<g>
																				<g>
																					<path class="st6" d="M682.53,144.16l14.15-20.65c0,0,25.74,7.44,28.72,3.88l-39.05-28.87l-23.36,31.26
																						L682.53,144.16z"/>
																				</g>
																			</g>
																		</g>
																	</g>
																</g>
															</g>
														</g>
													</g>
												</g>
											</g>
										</g>
									</g>
								</g>
							</g>
						</g>
						<g>
							<g>
								<g>
									<g>
										<g>
											<g>
												<g>
													<g>
														<g>
															<g>
																<g>
																	<g>
																		<g>
																			<g>
																				<g>
																					<g>
																						<path class="st4" d="M683.35,116.28c-0.6-0.77-0.5-2,0.24-2.63s2-0.54,2.61,0.22
																							c0.62,0.75,0.53,2.24-0.27,2.79c-0.81,0.55-2.28,0.35-2.69-0.53"/>
																					</g>
																				</g>
																			</g>
																		</g>
																	</g>
																</g>
															</g>
														</g>
													</g>
												</g>
											</g>
										</g>
									</g>
								</g>
							</g>
						</g>
						<g>
							<g>
								<g>
									<g>
										<g>
											<g>
												<g>
													<g>
														<g>
															<g>
																<g>
																	<g>
																		<g>
																			<g>
																				<g>
																					<path class="st7" d="M686.35,98.53l-2.23,3.24l38.27,26.46c0,0,2.3,0.53,3.01-0.84L686.35,98.53z"/>
																				</g>
																			</g>
																		</g>
																	</g>
																</g>
															</g>
														</g>
													</g>
												</g>
											</g>
										</g>
									</g>
								</g>
							</g>
						</g>
						<g>
							<g>
								<g>
									<g>
										<g>
											<g>
												<g>
													<g>
														<g>
															<g>
																<g>
																	<g>
																		<g>
																			<g>
																				<g>
																					<g>
																						<path class="st11" d="M697.16,124.18c0.13-0.2-0.75-0.99-1.24-2.29c-0.52-1.29-0.39-2.48-0.62-2.53
																							c-0.2-0.09-0.76,1.26-0.15,2.83C695.75,123.76,697.07,124.39,697.16,124.18z"/>
																					</g>
																				</g>
																			</g>
																		</g>
																	</g>
																</g>
															</g>
														</g>
													</g>
												</g>
											</g>
										</g>
									</g>
								</g>
							</g>
						</g>
						<g>
							<g>
								<g>
									<g>
										<g>
											<g>
												<g>
													<g>
														<g>
															<g>
																<g>
																	<g>
																		<g>
																			<g>
																				<g>
																					<g>
																						<path class="st11" d="M702.51,125.52c0.18-0.15-0.41-1.09-0.46-2.37c-0.09-1.28,0.39-2.28,0.2-2.41
																							c-0.16-0.16-1.11,0.86-1.02,2.45C701.3,124.79,702.37,125.69,702.51,125.52z"/>
																					</g>
																				</g>
																			</g>
																		</g>
																	</g>
																</g>
															</g>
														</g>
													</g>
												</g>
											</g>
										</g>
									</g>
								</g>
							</g>
						</g>
						<g>
							<g>
								<g>
									<g>
										<g>
											<g>
												<g>
													<g>
														<g>
															<g>
																<g>
																	<g>
																		<g>
																			<g>
																				<g>
																					<g>
																						<path class="st11" d="M708.46,122.33c-0.14-0.17-1.11,0.59-1.4,1.99c-0.29,1.4,0.3,2.48,0.5,2.38
																							c0.22-0.08,0.06-1.06,0.31-2.22C708.09,123.34,708.63,122.49,708.46,122.33z"/>
																					</g>
																				</g>
																			</g>
																		</g>
																	</g>
																</g>
															</g>
														</g>
													</g>
												</g>
											</g>
										</g>
									</g>
								</g>
							</g>
						</g>
						<g>
							<g>
								<g>
									<g>
										<g>
											<g>
												<g>
													<g>
														<g>
															<g>
																<g>
																	<g>
																		<g>
																			<g>
																				<g>
																					<g>
																						<path class="st11" d="M693.41,128.53c0.05-0.23-1.02-0.62-2.04-1.49c-1.04-0.85-1.61-1.83-1.83-1.74
																							c-0.21,0.06,0.09,1.37,1.3,2.38C692.05,128.69,693.4,128.75,693.41,128.53z"/>
																					</g>
																				</g>
																			</g>
																		</g>
																	</g>
																</g>
															</g>
														</g>
													</g>
												</g>
											</g>
										</g>
									</g>
								</g>
							</g>
						</g>
					</g>
					<g>
						<g>
							<g>
								<g>
									<g>
										<g>
											<g>
												<g>
													<g>
														<g>
															<g>
																<g>
																	<g>
																		<g>
																			<g>
																				<path class="st6" d="M668.96,228.08l14.27-20.56c0,0,25.69,7.6,28.7,4.05l-38.88-29.09l-23.54,31.13
																					L668.96,228.08z"/>
																			</g>
																		</g>
																	</g>
																</g>
															</g>
														</g>
													</g>
												</g>
											</g>
										</g>
									</g>
								</g>
							</g>
						</g>
					</g>
					<g>
						<g>
							<g>
								<g>
									<g>
										<g>
											<g>
												<g>
													<g>
														<g>
															<g>
																<g>
																	<g>
																		<g>
																			<g>
																				<g>
																					<path class="st4" d="M669.95,200.2c-0.6-0.77-0.49-2,0.26-2.63c0.74-0.63,2-0.53,2.61,0.23
																						s0.52,2.24-0.29,2.79c-0.81,0.54-2.28,0.34-2.69-0.54"/>
																				</g>
																			</g>
																		</g>
																	</g>
																</g>
															</g>
														</g>
													</g>
												</g>
											</g>
										</g>
									</g>
								</g>
							</g>
						</g>
					</g>
					<g>
						<g>
							<g>
								<g>
									<g>
										<g>
											<g>
												<g>
													<g>
														<g>
															<g>
																<g>
																	<g>
																		<g>
																			<g>
																				<path class="st7" d="M673.05,182.47l-2.25,3.23l38.11,26.69c0,0,2.29,0.54,3.01-0.82L673.05,182.47z"/>
																			</g>
																		</g>
																	</g>
																</g>
															</g>
														</g>
													</g>
												</g>
											</g>
										</g>
									</g>
								</g>
							</g>
						</g>
					</g>
					<g>
						<g>
							<g>
								<g>
									<g>
										<g>
											<g>
												<g>
													<g>
														<g>
															<g>
																<g>
																	<g>
																		<g>
																			<g>
																				<g>
																					<path class="st11" d="M683.71,208.19c0.14-0.19-0.75-0.99-1.23-2.3c-0.51-1.3-0.38-2.48-0.61-2.54
																						c-0.2-0.09-0.77,1.25-0.16,2.83C682.3,207.76,683.62,208.39,683.71,208.19z"/>
																				</g>
																			</g>
																		</g>
																	</g>
																</g>
															</g>
														</g>
													</g>
												</g>
											</g>
										</g>
									</g>
								</g>
							</g>
						</g>
					</g>
					<g>
						<g>
							<g>
								<g>
									<g>
										<g>
											<g>
												<g>
													<g>
														<g>
															<g>
																<g>
																	<g>
																		<g>
																			<g>
																				<g>
																					<path class="st11" d="M689.05,209.55c0.18-0.15-0.4-1.09-0.44-2.38c-0.08-1.28,0.41-2.27,0.21-2.41
																						c-0.16-0.16-1.12,0.85-1.03,2.45C687.85,208.81,688.91,209.73,689.05,209.55z"/>
																				</g>
																			</g>
																		</g>
																	</g>
																</g>
															</g>
														</g>
													</g>
												</g>
											</g>
										</g>
									</g>
								</g>
							</g>
						</g>
					</g>
					<g>
						<g>
							<g>
								<g>
									<g>
										<g>
											<g>
												<g>
													<g>
														<g>
															<g>
																<g>
																	<g>
																		<g>
																			<g>
																				<g>
																					<path class="st11" d="M695.02,206.4c-0.14-0.17-1.12,0.58-1.41,1.99c-0.3,1.4,0.29,2.48,0.49,2.38
																						c0.22-0.08,0.07-1.06,0.32-2.21C694.65,207.41,695.19,206.56,695.02,206.4z"/>
																				</g>
																			</g>
																		</g>
																	</g>
																</g>
															</g>
														</g>
													</g>
												</g>
											</g>
										</g>
									</g>
								</g>
							</g>
						</g>
					</g>
					<g>
						<g>
							<g>
								<g>
									<g>
										<g>
											<g>
												<g>
													<g>
														<g>
															<g>
																<g>
																	<g>
																		<g>
																			<g>
																				<g>
																					<path class="st11" d="M679.94,212.51c0.05-0.23-1.02-0.62-2.04-1.5c-1.04-0.86-1.6-1.84-1.82-1.75
																						c-0.21,0.06,0.08,1.37,1.29,2.38C678.58,212.67,679.92,212.73,679.94,212.51z"/>
																				</g>
																			</g>
																		</g>
																	</g>
																</g>
															</g>
														</g>
													</g>
												</g>
											</g>
										</g>
									</g>
								</g>
							</g>
						</g>
					</g>
					<g>
						<g>
							<g>
								<path class="st6" d="M521.69,242.98c1.33,0,119.91-34.16,128.15-41.58c8.25-7.42,41.93-66.18,41.93-66.18l-23.92-19.51
									l-41.58,54.18l-73.02,6.59c0,0-30.78-2.1-36.15,8.91l-0.51,16.48L521.69,242.98z"/>
							</g>
						</g>
					</g>
					<g>
						<g>
							<g>
								<path class="st6" d="M521.69,242.98c1.76,0.05,54.72,58.99,71.32,62.34c16.59,3.35,24.94-8.09,30.61-14.95
									c7.22-8.74,56.38-71.47,56.38-71.47l-24.66-20.4l-54.07,57.53l-32.51-44.77l-28.34-2.66l-17.23,15.26L521.69,242.98z"/>
							</g>
						</g>
					</g>
					<g>
						<g>
							<g>
								<g>
									<path class="st7" d="M596.46,261.53c-0.01-0.01,0.06-0.09,0.19-0.24c0.15-0.18,0.35-0.4,0.59-0.68
										c0.55-0.62,1.32-1.48,2.3-2.57c2.04-2.24,4.95-5.44,8.53-9.38c3.62-3.95,7.93-8.65,12.7-13.86c2.4-2.6,4.92-5.33,7.52-8.16
										c2.65-2.79,5.39-5.69,8.19-8.65c6.77-7.13,13.16-13.85,18.69-19.67l0.16-0.16l0.17,0.14c7.3,6.09,13.44,11.21,17.78,14.84
										c2.12,1.79,3.81,3.21,4.99,4.21c0.55,0.47,0.98,0.85,1.31,1.13c0.29,0.26,0.44,0.4,0.43,0.41
										c-0.01,0.01-0.17-0.11-0.48-0.35c-0.33-0.26-0.78-0.62-1.35-1.07c-1.2-0.98-2.92-2.36-5.08-4.11
										c-4.37-3.59-10.55-8.65-17.91-14.68l0.33-0.02c-5.51,5.83-11.88,12.56-18.64,19.71c-2.81,2.96-5.55,5.85-8.2,8.64
										c-2.62,2.82-5.14,5.54-7.55,8.14c-4.81,5.18-9.14,9.85-12.78,13.78c-3.63,3.89-6.58,7.04-8.65,9.26
										c-1.01,1.06-1.8,1.9-2.37,2.5c-0.26,0.26-0.46,0.47-0.63,0.64C596.54,261.47,596.46,261.54,596.46,261.53z"/>
								</g>
							</g>
						</g>
					</g>
					<g>
						<g>
							<g>
								<path class="st7" d="M595.78,221.06c0.01,0.03-0.54,0.23-1.54,0.55c-1.09,0.34-2.51,0.79-4.24,1.33
									c-3.58,1.11-8.54,2.6-13.98,4.36c-1.36,0.45-2.68,0.9-3.96,1.33c-1.28,0.42-2.51,0.82-3.61,1.34
									c-2.21,1.03-3.7,2.79-4.47,4.45c-0.78,1.67-1.06,3.18-1.27,4.2c-0.19,1.03-0.28,1.6-0.32,1.6c-0.02,0-0.02-0.15,0-0.42
									c0.01-0.28,0.05-0.68,0.12-1.21c0.15-1.04,0.37-2.57,1.13-4.32c0.75-1.74,2.29-3.63,4.59-4.73
									c1.14-0.56,2.38-0.97,3.66-1.39c1.28-0.43,2.6-0.88,3.96-1.34c5.45-1.77,10.43-3.2,14.03-4.22c1.81-0.51,3.27-0.9,4.29-1.17
									C595.2,221.16,595.77,221.03,595.78,221.06z"/>
							</g>
						</g>
					</g>
				</g>
				<g>
					<g>
						<g>
							<path class="st7" d="M505.72,192.26c-0.02-0.01,0.07-0.17,0.24-0.47c0.1-0.17,0.21-0.35,0.33-0.56
								c0.16-0.21,0.34-0.45,0.53-0.71c0.82-1.05,2.2-2.42,4.16-3.77c3.89-2.75,9.99-5.36,16.95-7.29
								c6.97-1.92,13.47-2.88,18.2-3.19c2.36-0.16,4.28-0.15,5.61-0.07c0.66,0.04,1.17,0.09,1.52,0.14c0.35,0.05,0.53,0.08,0.52,0.1
								c-0.01,0.05-0.73-0.02-2.05-0.03s-3.22,0.03-5.57,0.24c-4.69,0.4-11.15,1.41-18.09,3.32c-6.92,1.91-12.99,4.45-16.88,7.09
								c-1.96,1.3-3.35,2.6-4.21,3.6c-0.2,0.24-0.39,0.47-0.56,0.67c-0.14,0.19-0.26,0.37-0.37,0.52
								C505.85,192.13,505.74,192.27,505.72,192.26z"/>
						</g>
					</g>
				</g>
				<g>
					<g>
						<g>
							<path class="st7" d="M554.81,275.85c-0.01,0.01-0.15-0.08-0.41-0.27c-0.3-0.23-0.67-0.52-1.12-0.87
								c-1.03-0.81-2.41-1.9-4.09-3.22c-3.45-2.72-8.36-6.28-13.81-10.19c-5.46-3.92-10.17-7.78-13.42-10.74
								c-1.62-1.48-2.92-2.7-3.79-3.57c-0.4-0.4-0.73-0.73-1-1c-0.23-0.23-0.34-0.36-0.32-0.38c0.01-0.01,0.15,0.09,0.4,0.3
								c0.29,0.25,0.64,0.56,1.07,0.93c0.91,0.82,2.25,2,3.9,3.44c3.31,2.89,8.04,6.69,13.49,10.6s10.34,7.53,13.74,10.33
								c1.7,1.39,3.07,2.53,3.99,3.35c0.42,0.38,0.77,0.69,1.06,0.94C554.7,275.71,554.82,275.83,554.81,275.85z"/>
						</g>
					</g>
				</g>
			</g>
		</g>
		<g>
			<g>
				<g>
					<g>
						
							<ellipse transform="matrix(0.3506 -0.9365 0.9365 0.3506 -104.3684 300.2919)" class="st6" cx="164.35" cy="225.4" rx="80.4" ry="25.66"/>
					</g>
				</g>
				<g>
					<g>
						<path class="st7" d="M147.55,219.3c14.19-37.9,34.87-65.92,48.47-66.82c-1.01-1.1-2.17-1.91-3.48-2.39
							c-13.27-4.97-36.65,24.72-52.22,66.3c-15.57,41.59-17.43,79.33-4.15,84.3c1.18,0.44,2.43,0.6,3.75,0.52
							C130.62,291.16,133.51,256.8,147.55,219.3z"/>
					</g>
				</g>
				<g>
					<g>
						<g>
							<g>
								<g>
									<path class="st12" d="M8.6,125.7c0,0-3.54-9.03-5.07-12.3c-1.53-3.27-1.2-13.25-0.18-15.06s0.08-3.19,0.08-3.19
										s-5.22-9.73-2.78-12.13l1.42-0.16c0,0,5.23,10.44,5.4,10.65c0.18,0.21,1.32,0.26,1.68-1.56c0.36-1.82-0.52-7.22-0.52-7.22
										s-1.98-3.44-2.12-5.8c-0.05-0.89,0.74-2.14,1.45-2.68l0.71-0.54c0,0,4.39,7.94,4.63,9.88c0.24,1.94,1.05,6.15,1.05,6.15
										l0.61-0.49l0.05-9.74c0,0-2.2-8.24-0.53-10.04s1.83-0.29,1.83-0.29s3.13,8.41,3.37,10.55c0.1,0.87,0.19,9.23,0.19,9.23
										l1.35-0.56l0.47-7.82c0,0-1.58-7.76,0.79-8.55l1.9-0.06c0,0,1.8,10.21,2,10.69S25,96.79,25,96.79l0.48,1.1l1.37-1.86
										c0,0,0.61-1.79,3.34-3.28c2.72-1.5,3.92-0.41,3.92-0.41l-3.42,6.08c0,0-3.11,7.11-4.39,8.74s-5.62,5.48-6.31,5.85
										c-0.69,0.38,0.08,3.53,0.08,3.53l1.08,2.2L8.6,125.7z"/>
								</g>
							</g>
						</g>
					</g>
					<g>
						<g>
							<g>
								<g>
									<g>
										<path class="st13" d="M22.29,101.9c0,0.1-1.1,0.08-2.8,0.49c-1.68,0.4-3.97,1.34-5.91,3.13c-1.94,1.8-3.06,4-3.59,5.64
											c-0.54,1.66-0.6,2.76-0.71,2.75c-0.06,0-0.15-1.12,0.31-2.87c0.44-1.73,1.55-4.07,3.59-5.96c2.81-2.24,5.1-3.1,6.22-3.1
											C21.18,101.66,22.3,101.84,22.29,101.9z"/>
									</g>
								</g>
							</g>
						</g>
					</g>
					<g>
						<g>
							<g>
								<g>
									<g>
										<path class="st13" d="M22.76,90.74c0,0.2-4.11-0.47-8.94,0.8c-4.85,1.21-8.13,3.77-8.23,3.6
											c-0.04-0.05,0.71-0.76,2.12-1.64c1.4-0.88,3.5-1.89,5.96-2.53c2.47-0.63,4.79-0.75,6.44-0.65
											C21.77,90.42,22.77,90.67,22.76,90.74z"/>
									</g>
								</g>
							</g>
						</g>
					</g>
					<g>
						<g>
							<g>
								<path class="st12" d="M8.6,125.7c0.34,0.82,17.56,52.94,25,58.54c7.45,5.6,56.62,20.05,56.62,20.05l7.73-26.2L49.85,163
									l-29.86-49.97L8.6,125.7z"/>
							</g>
						</g>
					</g>
				</g>
				<g>
					<g>
						<g>
							<polygon class="st5" points="101.13,170.89 63.99,164.55 56.05,196.85 99.02,206.68 							"/>
						</g>
					</g>
				</g>
				<g>
					<g>
						<g>
							<g>
								<g>
									<g>
										<g>
											<g>
												<g>
													<g>
														<g>
															<g>
																<path class="st12" d="M124.46,173.46l-2.18-56.98c-0.08-14.19-8.41-25.97-22.59-25.5l-1.31,0.12
																	c-13.16,1.21-23.2,12.32-23.05,25.54c0.14,12.3,0.45,25.89,1.13,32.43c1.41,13.54,15.17,14.41,15.17,14.41
																	c0.03,0,4.21,16.86,4.21,16.86l4.8,1.59l0,0L124.46,173.46z"/>
															</g>
														</g>
													</g>
												</g>
											</g>
										</g>
									</g>
								</g>
							</g>
						</g>
						<g>
							<g>
								<g>
									<g>
										<g>
											<g>
												<g>
													<g>
														<g>
															<g>
																<g>
																	<path class="st13" d="M91.63,163.48c0,0,8.59-0.28,17.17-6.84c0,0-2.5,10.91-16.14,10.94L91.63,163.48z"/>
																</g>
															</g>
														</g>
													</g>
												</g>
											</g>
										</g>
									</g>
								</g>
							</g>
						</g>
						<g>
							<g>
								<g>
									<g>
										<g>
											<g>
												<g>
													<g>
														<g>
															<g>
																<g>
																	<g>
																		<g>
																			<g>
																				<g>
																					<g>
																						<g>
																							<path class="st6" d="M82.17,127.68c0.06,1.03,0.97,1.82,2.05,1.78c1.07-0.04,1.89-0.9,1.84-1.93
																								c-0.06-1.03-0.97-1.82-2.04-1.78C82.93,125.79,82.11,126.65,82.17,127.68z"/>
																						</g>
																					</g>
																				</g>
																			</g>
																		</g>
																	</g>
																</g>
															</g>
														</g>
													</g>
												</g>
											</g>
										</g>
									</g>
								</g>
							</g>
						</g>
						<g>
							<g>
								<g>
									<g>
										<g>
											<g>
												<g>
													<g>
														<g>
															<g>
																<g>
																	<g>
																		<g>
																			<g>
																				<g>
																					<g>
																						<g>
																							<g>
																								<path class="st6" d="M78.76,122.37c0.26,0.23,1.63-0.99,3.71-1.18c2.08-0.22,3.71,0.72,3.91,0.44
																									c0.1-0.12-0.19-0.56-0.9-0.98c-0.7-0.42-1.86-0.79-3.16-0.66s-2.35,0.7-2.93,1.25
																									S78.63,122.27,78.76,122.37z"/>
																							</g>
																						</g>
																					</g>
																				</g>
																			</g>
																		</g>
																	</g>
																</g>
															</g>
														</g>
													</g>
												</g>
											</g>
										</g>
									</g>
								</g>
							</g>
						</g>
						<g>
							<g>
								<g>
									<g>
										<g>
											<g>
												<g>
													<g>
														<g>
															<g>
																<g>
																	<g>
																		<g>
																			<g>
																				<g>
																					<g>
																						<g>
																							<g>
																								<path class="st6" d="M98.64,127.31c0.26,0.23,1.63-0.99,3.72-1.18c2.08-0.22,3.71,0.72,3.91,0.44
																									c0.1-0.12-0.18-0.56-0.9-0.98c-0.7-0.42-1.86-0.79-3.16-0.66s-2.35,0.71-2.93,1.25
																									C98.69,126.73,98.51,127.2,98.64,127.31z"/>
																							</g>
																						</g>
																					</g>
																				</g>
																			</g>
																		</g>
																	</g>
																</g>
															</g>
														</g>
													</g>
												</g>
											</g>
										</g>
									</g>
								</g>
							</g>
						</g>
						<g>
							<g>
								<g>
									<g>
										<g>
											<g>
												<g>
													<g>
														<g>
															<g>
																<g>
																	<g>
																		<g>
																			<g>
																				<g>
																					<g>
																						<g>
																							<path class="st6" d="M93.23,137.67c0-0.12-1.32-0.22-3.44-0.3c-0.54-0.01-1.05-0.07-1.17-0.42
																								c-0.16-0.37,0.01-0.97,0.21-1.61c0.38-1.33,0.78-2.73,1.2-4.2c1.65-5.97,2.8-10.86,2.56-10.92
																								c-0.24-0.06-1.78,4.72-3.43,10.69c-0.4,1.47-0.77,2.87-1.13,4.21c-0.15,0.62-0.43,1.34-0.08,2.11
																								c0.18,0.38,0.6,0.64,0.95,0.7c0.35,0.07,0.65,0.05,0.92,0.04C91.92,137.91,93.23,137.79,93.23,137.67z"/>
																						</g>
																					</g>
																				</g>
																			</g>
																		</g>
																	</g>
																</g>
															</g>
														</g>
													</g>
												</g>
											</g>
										</g>
									</g>
								</g>
							</g>
						</g>
						<g>
							<g>
								<g>
									<g>
										<g>
											<g>
												<g>
													<g>
														<g>
															<g>
																<g>
																	<g>
																		<g>
																			<path class="st6" d="M96.9,121.82c0.33,0.51,2.3-0.24,4.76-0.52c2.45-0.33,4.54-0.09,4.74-0.66
																				c0.08-0.27-0.37-0.71-1.28-1.06c-0.9-0.35-2.25-0.57-3.72-0.39s-2.73,0.72-3.52,1.28
																				C97.09,121.04,96.75,121.58,96.9,121.82z"/>
																		</g>
																	</g>
																</g>
															</g>
														</g>
													</g>
												</g>
											</g>
										</g>
									</g>
								</g>
							</g>
						</g>
						<g>
							<g>
								<g>
									<g>
										<g>
											<g>
												<g>
													<g>
														<g>
															<g>
																<g>
																	<g>
																		<g>
																			<path class="st6" d="M78.27,117.08c0.47,0.44,2.13-0.18,4.17-0.36c2.03-0.24,3.8,0.03,4.16-0.5
																				c0.16-0.25-0.15-0.71-0.94-1.1c-0.78-0.39-2.05-0.66-3.45-0.52c-1.4,0.15-2.58,0.67-3.26,1.21
																				C78.26,116.36,78.06,116.87,78.27,117.08z"/>
																		</g>
																	</g>
																</g>
															</g>
														</g>
													</g>
												</g>
											</g>
										</g>
									</g>
								</g>
							</g>
						</g>
						<g>
							<g>
								<g>
									<g>
										<g>
											<g>
												<g>
													<g>
														<g>
															<path class="st12" d="M122.09,126.63c0.22-0.12,9.06-3.61,9.62,5.68c0.56,9.3-8.89,7.94-8.92,7.67
																C122.76,139.72,122.09,126.63,122.09,126.63z"/>
														</g>
													</g>
												</g>
											</g>
										</g>
									</g>
								</g>
							</g>
						</g>
						<g>
							<g>
								<g>
									<g>
										<g>
											<g>
												<g>
													<g>
														<g>
															<g>
																<path class="st13" d="M125.42,136.29c0.04-0.03,0.17,0.1,0.45,0.21c0.27,0.11,0.74,0.16,1.21-0.05
																	c0.96-0.42,1.69-2.03,1.64-3.71c-0.03-0.85-0.25-1.64-0.59-2.29c-0.32-0.66-0.79-1.11-1.29-1.17
																	c-0.5-0.08-0.83,0.23-0.93,0.5c-0.11,0.27-0.04,0.45-0.09,0.47c-0.02,0.02-0.21-0.14-0.16-0.53
																	c0.03-0.19,0.12-0.41,0.33-0.6s0.53-0.31,0.88-0.29c0.72,0.01,1.4,0.63,1.78,1.34c0.41,0.71,0.69,1.61,0.72,2.56
																	c0.05,1.88-0.8,3.69-2.12,4.16c-0.64,0.21-1.2,0.05-1.5-0.16C125.45,136.51,125.39,136.31,125.42,136.29z"/>
															</g>
														</g>
													</g>
												</g>
											</g>
										</g>
									</g>
								</g>
							</g>
						</g>
						<g>
							<g>
								<g>
									<g>
										<g>
											<g>
												<g>
													<g>
														<g>
															<g>
																<g>
																	<path class="st6" d="M99.86,138.64c-0.32,0-0.23,2.13-1.99,3.73c-1.76,1.61-4.04,1.47-4.05,1.77
																		c-0.02,0.14,0.53,0.39,1.49,0.37c0.94-0.01,2.31-0.38,3.38-1.36s1.5-2.24,1.53-3.12
																		C100.26,139.14,100,138.62,99.86,138.64z"/>
																</g>
															</g>
														</g>
													</g>
												</g>
											</g>
										</g>
									</g>
								</g>
							</g>
						</g>
					</g>
					<g>
						<g>
							<g>
								<g>
									<g>
										<g>
											<g>
												<g>
													<path class="st6" d="M55.94,105.36c0.11-0.56,0.48-1.03,0.95-1.35c1.03-0.69,2.26-0.69,3.44-0.78
														c2.95-0.23,5.83-1.17,8.37-2.66c-0.95-0.41-1.84-0.92-2.61-1.6c-1.6-1.41-2.6-3.65-2.04-5.7
														c0.11-0.38,0.3-0.79,0.67-0.93c0.59-0.22,1.16,0.34,1.61,0.78c1.48,1.46,2.8,2.05,4.85,1.71
														c1.27-0.21,2.5-0.57,3.47-1.26c0.04-0.04,0.07-0.09,0.11-0.14c0.45-0.53,0.89-1.03,1.33-1.52l0,0l0,0
														c3.28-3.69,6.14-6.27,9.16-7.71c4.43-2.11,11.97-3.32,16.78-2.37s9.3,4.53,10.25,9.33c2.51-2.41,6.5-2.64,9.81-1.54
														l0.08-0.04c3.68,1.06,5.96,4.74,7.25,8.34c0.07,0.2,0.13,0.4,0.2,0.6c1.34,1.85,3.09,3.4,5.14,4.43
														c0.36,0.18,0.77,0.4,0.84,0.8c0.07,0.39-0.25,0.74-0.56,1c-0.82,0.67-1.8,1.14-2.84,1.39
														c0.38,0.85,0.82,1.68,1.35,2.46c0.45,0.66,0.98,1.46,0.67,2.2c-0.24,0.57-0.93,0.84-1.55,0.79
														c-0.62-0.05-1.18-0.36-1.72-0.65c0.46,0.94,0.92,1.87,1.38,2.81c-1.29,0.31-2.64,0.29-3.93-0.02
														c-0.55,3.48-0.73,9.87-1.47,12.25c-2.46,0.2-3.08-0.04-4.3,0.45c-1.58,0.63-0.79,3.45-2.93,2.77
														c-1.09-0.35-2.98-4.29-3.4-5.35c-2.81-7.06-4.08-14.74-3.69-22.33c-1.59-1.5-3.47-2.68-5.5-3.48l0.17,0.14
														c-3.88-1.08-8.26-2.12-11.76-0.11c-2.71,1.56-4.18,4.56-6.12,7.01c-3.69,4.64-8.03,7.26-13.93,7.88
														c-0.28,4.14-0.02,10.86,0.01,14.7l-3.74-7.46v0.03c-0.29-0.43-0.54-0.87-0.78-1.31l-0.08-0.13v-0.02
														c-0.38-0.71-0.74-1.42-1.21-2.11c-0.01,0.01-0.02,0.02-0.03,0.04c-1.96,1.96-5.19-0.65-3.69-2.98
														c0.3-0.46,0.66-0.88,1.08-1.23c-0.89,0.95-2.28,1.46-3.55,1.16c-1.27-0.31-2.31-1.5-2.28-2.81
														c0.02-0.89,0.6-1.72,1.38-2.12c-1.67,0.23-3.4-0.03-4.92-0.77C56.68,107.42,55.69,106.58,55.94,105.36z"/>
												</g>
											</g>
										</g>
									</g>
								</g>
							</g>
						</g>
						<g>
							<g>
								<g>
									<g>
										<g>
											<g>
												<g>
													<path class="st7" d="M108.12,92.98c-0.03,0.04,0.59,0.32,1.44,1.16c0.84,0.84,1.82,2.32,2.37,4.39
														c0.28,1.03,0.48,2.18,0.56,3.44c0.08,1.25,0.07,2.6,0.06,4.02c0,1.42-0.01,2.92,0.17,4.47
														c0.09,0.77,0.24,1.56,0.45,2.33c0.22,0.76,0.47,1.59,1.1,2.22c0.5,0.51,1.29,0.71,1.96,0.53
														c0.67-0.16,1.25-0.56,1.67-1.08c0.81-1.08,0.95-2.38,1.1-3.54l-0.28,0.05c0.53,1,1.07,1.98,1.83,2.75
														c0.75,0.77,1.75,1.25,2.74,1.28c0.49,0.01,0.98-0.1,1.39-0.33c0.42-0.24,0.71-0.61,0.9-1
														c0.18-0.39,0.26-0.82,0.21-1.22s-0.23-0.78-0.5-1.03l-0.14,0.14c1.12,1.13,2.27,1.7,3.06,2.01
														c0.4,0.15,0.71,0.24,0.93,0.3c0.21,0.05,0.33,0.07,0.33,0.06s-0.11-0.05-0.31-0.11c-0.21-0.07-0.52-0.17-0.9-0.34
														c-0.77-0.33-1.88-0.93-2.96-2.05l-0.14,0.14c0.49,0.46,0.57,1.31,0.22,2.02c-0.18,0.35-0.44,0.68-0.81,0.88
														c-0.36,0.21-0.81,0.3-1.26,0.29c-0.91-0.03-1.84-0.48-2.54-1.22c-0.72-0.73-1.24-1.69-1.77-2.69l-0.22-0.42l-0.06,0.48
														c-0.15,1.15-0.3,2.41-1.04,3.38c-0.37,0.47-0.9,0.83-1.49,0.97c-0.59,0.15-1.23-0.01-1.67-0.45
														c-0.55-0.54-0.81-1.33-1.02-2.08c-0.21-0.76-0.35-1.53-0.45-2.29c-0.19-1.52-0.19-3.01-0.19-4.43s0.01-2.77-0.09-4.04
														c-0.09-1.27-0.31-2.44-0.61-3.48c-0.58-2.09-1.61-3.59-2.5-4.42C108.75,93.22,108.12,92.98,108.12,92.98z"/>
												</g>
											</g>
										</g>
									</g>
								</g>
							</g>
						</g>
						<g>
							<g>
								<g>
									<g>
										<g>
											<g>
												<g>
													<path class="st7" d="M66.85,108.82c0,0,0.04,0.03,0.11,0.09c0.1,0.06,0.21,0.14,0.36,0.23c0.16,0.1,0.35,0.22,0.6,0.33
														c0.24,0.12,0.52,0.27,0.85,0.38c1.3,0.52,3.36,0.99,5.89,0.69c2.5-0.3,5.46-1.37,8.02-3.54
														c2.6-2.12,4.8-5.15,6.55-8.57c0.89-1.71,1.59-3.45,2.38-5.06c0.79-1.62,1.67-3.12,2.78-4.33
														c1.1-1.22,2.4-2.15,3.77-2.62c0.68-0.25,1.38-0.34,2.05-0.37c0.67-0.01,1.32,0.09,1.92,0.25
														c1.2,0.32,2.18,0.91,2.94,1.53c0.76,0.63,1.29,1.31,1.66,1.9c0.7,1.21,0.78,2.01,0.83,2c0.01,0,0-0.05-0.02-0.14
														c-0.02-0.11-0.05-0.25-0.09-0.41c-0.09-0.36-0.28-0.88-0.61-1.5c-0.36-0.61-0.88-1.32-1.65-1.97
														c-0.77-0.65-1.77-1.27-3-1.61c-0.61-0.17-1.28-0.27-1.98-0.28c-0.69,0.02-1.43,0.11-2.14,0.36
														c-1.43,0.48-2.78,1.43-3.9,2.67c-1.14,1.24-2.05,2.76-2.85,4.39c-0.8,1.63-1.51,3.36-2.39,5.05
														c-1.73,3.39-3.91,6.38-6.45,8.49c-2.52,2.15-5.4,3.22-7.86,3.54c-2.48,0.33-4.52-0.1-5.82-0.58
														C67.51,109.24,66.87,108.78,66.85,108.82z"/>
												</g>
											</g>
										</g>
									</g>
								</g>
							</g>
						</g>
						<g>
							<g>
								<g>
									<g>
										<g>
											<g>
												<g>
													<path class="st7" d="M65.24,102.92c-0.01,0.02,0.17,0.13,0.51,0.31c0.33,0.19,0.84,0.41,1.49,0.64
														c0.64,0.24,1.44,0.45,2.33,0.61c0.9,0.15,1.9,0.23,2.95,0.21c1.05-0.04,2.04-0.18,2.93-0.38
														c0.88-0.21,1.66-0.47,2.29-0.75c0.63-0.27,1.13-0.53,1.45-0.73c0.33-0.2,0.5-0.32,0.49-0.34
														c-0.03-0.05-0.76,0.38-2.02,0.86c-0.63,0.25-1.4,0.48-2.27,0.67c-0.87,0.18-1.85,0.31-2.88,0.35
														c-1.03,0.02-2.01-0.05-2.89-0.18c-0.88-0.14-1.67-0.33-2.31-0.53C66.02,103.25,65.27,102.86,65.24,102.92z"/>
												</g>
											</g>
										</g>
									</g>
								</g>
							</g>
						</g>
					</g>
				</g>
				<g>
					<g>
						<g>
							<g>
								<path class="st5" d="M166.68,277.74l0.94-4.5c-11.32-5.01-21.6-12.11-30.3-20.91l-50.05-50.64l1.3-14.53l24.64-23.07
									c0,0,11.75-7.79,26.98-1.76c17.3,6.86,24.62,16.57,44.82,40.11c8,9.33,3.51,1.54,11.33,6.59c0,0-4.91,26.67-14.19,43.2
									C175.36,264.33,166.68,277.74,166.68,277.74z"/>
							</g>
						</g>
					</g>
					<g>
						<g>
							<g>
								<g>
									<path class="st6" d="M92.45,207.07c-0.06,0.04-0.79-0.93-1.85-2.57c-1.06-1.65-2.42-3.99-3.73-6.67
										c-1.31-2.69-2.32-5.2-2.97-7.04c-0.65-1.85-0.96-3.02-0.9-3.04c0.08-0.03,0.51,1.1,1.25,2.9c0.74,1.8,1.8,4.27,3.1,6.94
										c1.3,2.67,2.6,5.02,3.57,6.71C91.9,205.99,92.52,207.03,92.45,207.07z"/>
								</g>
							</g>
						</g>
					</g>
				</g>
				<g>
					<g class="st9">
						<g>
							<path d="M179.6,240.5c0,0,1.47-8.22-1.67-16.39s-11.25-19.67-11.25-19.67l-2.79,2.63L179.6,240.5z"/>
						</g>
					</g>
					<g>
						<g>
							<g>
								<path class="st12" d="M136.29,290.79l18.03-47.16l-9.5-11.87l-17.92-22.02c0,0-12.79-6.64-18.92-16.44
									c-1.91-3.06-2.28-8.23-0.28-12.01c5.6-10.59,17.19-14.78,28.74-11.62l10.16,6.66c0,0,33.53,52.55,32.99,62.68
									c-0.38,7.15-28.66,55.57-28.66,55.57L136.29,290.79z"/>
							</g>
						</g>
					</g>
					<g>
						<g>
							<g>
								<path class="st12" d="M137.56,288.78l-20.01,1.72c-2.11,0.18-4.01,1.34-5.14,3.12l-8.95,14.13c0,0,3.57,1.65,5.93-0.99
									c2.43-2.72,6.18-8.19,6.18-8.19l-1.7,15.74c0,0,4.61,0.45,5.39-3.06c0.89-4.03,0.96-9.31,0.96-9.31l4.5,14.96
									c0,0,4.89-1.61,3.32-7.27c-0.99-3.57-2.06-7.25-2.06-7.25l5.49,9.74c0,0,3.99-0.35,2.95-3.97
									c-0.69-2.41-2.81-7.19-2.81-7.19s11.52,0.87,13.81,0.04c3.12-1.13,6.31-7.75,6.31-7.75L137.56,288.78z"/>
							</g>
						</g>
					</g>
					<g>
						<g>
							<g>
								<g>
									<path class="st5" d="M119.82,166.94c0,0-16.79,9.03-14.95,21.65c1.84,12.62,16.28,19.2,16.28,19.2l18.77,20.12l29.5-25.63
										l-26.84-33.35"/>
								</g>
							</g>
						</g>
						<g>
							<g>
								<g>
									<g>
										<path class="st6" d="M142.57,168.93c0,0,0.05,0.04,0.14,0.14c0.1,0.12,0.23,0.26,0.38,0.45c0.35,0.42,0.84,1.01,1.47,1.77
											c1.29,1.58,3.16,3.86,5.52,6.75c4.74,5.85,11.47,14.16,19.51,24.09l0.14,0.18l-0.17,0.15
											c-8.61,7.49-18.65,16.23-29.33,25.52l-0.15,0.13l-0.2,0.17l-0.18-0.19c-6.62-7.1-12.96-13.91-18.76-20.13l0.08,0.06
											c-3.57-1.78-6.7-4.03-9.33-6.58c-2.6-2.56-4.72-5.44-5.9-8.54c-0.25-0.79-0.57-1.54-0.74-2.32
											c-0.15-0.79-0.36-1.55-0.44-2.32c-0.18-1.55-0.08-3.07,0.22-4.48c0.61-2.84,1.98-5.2,3.4-7.12
											c2.92-3.83,6.03-6.13,8.14-7.63c1.07-0.74,1.93-1.26,2.51-1.6c0.28-0.15,0.5-0.28,0.67-0.37
											c0.15-0.08,0.23-0.11,0.24-0.11c0,0.01-0.07,0.05-0.22,0.15c-0.17,0.1-0.38,0.24-0.65,0.41c-0.57,0.36-1.41,0.9-2.46,1.66
											c-2.07,1.53-5.14,3.86-7.99,7.68c-1.39,1.91-2.71,4.24-3.29,7.01c-0.29,1.38-0.37,2.86-0.19,4.36
											c0.08,0.75,0.3,1.5,0.45,2.27c0.17,0.76,0.49,1.5,0.74,2.27c2.43,6.04,8.09,11.32,15.04,14.82l0.05,0.03l0.03,0.03
											c5.8,6.22,12.16,13.02,18.78,20.11l-0.37-0.02l0.15-0.13c10.69-9.27,20.75-18,29.37-25.47l-0.03,0.33
											c-7.98-9.98-14.66-18.33-19.36-24.21c-2.32-2.92-4.15-5.23-5.41-6.83c-0.61-0.78-1.08-1.38-1.41-1.81
											c-0.15-0.19-0.26-0.35-0.36-0.47C142.6,168.99,142.57,168.94,142.57,168.93z"/>
									</g>
								</g>
							</g>
						</g>
					</g>
				</g>
				<g>
					<g>
						<g>
							<path class="st13" d="M121.92,292.65c0,0.09-0.66,0.07-1.64,0.35c-0.97,0.27-2.28,0.91-3.27,2.09
								c-0.98,1.18-1.38,2.59-1.46,3.59c-0.1,1.02,0.04,1.66-0.05,1.67c-0.05,0.02-0.32-0.61-0.32-1.69c0-1.07,0.36-2.61,1.43-3.91
								c1.08-1.29,2.53-1.92,3.58-2.11C121.26,292.44,121.93,292.59,121.92,292.65z"/>
						</g>
					</g>
				</g>
				<g>
					<g>
						<g>
							<path class="st13" d="M123.76,295c0.03,0.07-0.4,0.36-1.07,0.85c-0.33,0.25-0.73,0.54-1.14,0.9
								c-0.39,0.37-0.83,0.77-1.01,1.31c-0.38,1.14-0.3,2.32-0.24,3.13c0.08,0.82,0.21,1.32,0.14,1.35
								c-0.06,0.03-0.32-0.45-0.5-1.29c-0.16-0.83-0.32-2.05,0.11-3.37c0.24-0.69,0.77-1.14,1.19-1.5c0.45-0.36,0.88-0.63,1.24-0.84
								C123.23,295.12,123.73,294.94,123.76,295z"/>
						</g>
					</g>
				</g>
				<g>
					<g>
						<g>
							<path class="st13" d="M132.13,296.88c0.02,0.07-0.6,0.25-1.61,0.37c-0.97,0.14-2.46,0.22-3.37,1.38
								c-0.88,1.15-1.06,2.6-0.87,3.53c0.19,0.95,0.51,1.51,0.43,1.55c-0.04,0.03-0.48-0.46-0.79-1.47
								c-0.29-1.01-0.19-2.61,0.82-3.93c0.51-0.66,1.27-1.05,1.94-1.21c0.68-0.17,1.3-0.19,1.8-0.21
								C131.5,296.86,132.12,296.81,132.13,296.88z"/>
						</g>
					</g>
				</g>
				<g>
					<g>
						<g>
							<path class="st13" d="M147.68,292.64c-0.05,0.13-2.45-0.67-5.37-1.79c-1.46-0.56-2.77-1.08-3.71-1.48
								c-0.94-0.4-1.52-0.67-1.5-0.7c0.05-0.21,2.48,0.58,5.4,1.69C145.41,291.48,147.73,292.51,147.68,292.64z"/>
						</g>
					</g>
				</g>
			</g>
			<g class="st9">
				<g>
					<path d="M192.64,203.6c0,0-3.59,31.41-10.63,44.21c-7.03,12.8-12.82,23.76-12.82,23.76l-0.5,2.42c0,0,14.28-22.53,16.87-28.13
						c2.58-5.61,7.29-16.87,9.88-27.81c2.58-10.88,2.99-12.77,2.91-12.77C198.36,205.28,194.27,202.28,192.64,203.6z"/>
				</g>
			</g>
		</g>
	</g>
</g>
</svg>
