<?xml version="1.0" encoding="utf-8"?>
<!-- Generator: Adobe Illustrator 26.2.1, SVG Export Plug-In . SVG Version: 6.00 Build 0)  -->
<svg version="1.1" id="Capa_1" xmlns="http://www.w3.org/2000/svg" xmlns:xlink="http://www.w3.org/1999/xlink" x="0px" y="0px"
	 viewBox="0 0 222.2 300.1" style="enable-background:new 0 0 222.2 300.1;" xml:space="preserve">
<style type="text/css">
	.st0{fill:#FFE812;}
	.st1{fill:#C20F14;}
	.st2{fill:#DAC028;}
	.st3{fill-rule:evenodd;clip-rule:evenodd;fill:#6B86C0;}
	.st4{fill-rule:evenodd;clip-rule:evenodd;fill:#FFFFFF;}
	.st5{fill-rule:evenodd;clip-rule:evenodd;fill:#FFE812;}
	.st6{fill-rule:evenodd;clip-rule:evenodd;fill:#DAC028;}
	.st7{fill-rule:evenodd;clip-rule:evenodd;fill:#C20F14;}
</style>
<g>
	<path class="st0" d="M111.1,0c30.8,0,58.6,16.9,78.7,44.2c20,27.1,32.4,64.6,32.4,105.9c0,41.3-12.4,78.8-32.4,105.9
		c-20.1,27.3-47.9,44.1-78.7,44.1c-30.8,0-58.6-16.9-78.7-44.1C12.4,228.9,0,191.4,0,150.1c0-41.3,12.4-78.8,32.4-105.9
		C52.5,16.9,80.3,0,111.1,0"/>
	<path class="st1" d="M219.8,181.1c-4.5,28.9-15.1,54.7-30,74.9c-20.1,27.3-47.9,44.1-78.7,44.1c-30.8,0-58.6-16.9-78.7-44.1
		c-14.9-20.1-25.5-46-30-74.9H219.8z"/>
	<path class="st2" d="M80.6,171l-8.9-5.4l5.7-8.2l-5.2-4.9l-9.7,4.6l-7.8-11.9l8.5-7.3l-1.5-7.6l-11.3-1.2v-15.1l10.2-0.4l2.2-7.5
		l-7.6-6.8l7.6-12.3l9,3l5.8-4.8l-3.9-8.5l13.6-9.1l6.2,8l8.1-2.1l0.6-10l16.3,0.5l1,9.5l7.6,1.9l5.3-5.9c0,0,0.8-1,1.6-1.1
		c0.8-0.1,1.6,0.4,1.6,0.4l10.5,6.6c0,0,0.6,0.4,0.8,1.1c0.3,1-0.1,1.4-0.1,1.4l-3.1,6.3l5.1,6l10.4-3.6l6.9,11.5l-7.1,7.3l1,7.6
		l11.4,1l0.2,15.1l-11.4,1l-1.9,7.4l7.7,7.6l-7.8,11.6l-9.3-3.8l-4.5,4l-2.3-2.6l-5.7-3.8l-2-3.5l0.6-3l2.9-3.2l2.2-3.3l2.2-3.4
		l1.9-5.6l1.3-4.2l0.3-6l-0.9-4.9l-1.6-4.1l-2.8-6.1l-5.7-6.6l-11.3-6.3l-8-2.5l-0.4-2.8l-0.9-4.9l-2.8-1.7l-2.4,1.2l-0.9,4.1
		l0.1,3.4l-5.6,1.6l-2.3,0.6L96.4,91l-3.9,1.9l-4.1,2.3l-3.5,3.5l-2.2,3.5l-3,4l-1.7,5.4l-1,4.6l-1.2,3.7l0.5,5l1.8,6.6l1,3.3l2,3.6
		l4.9,5.1l1.8,2.1l-4.7,15.3l3.9-2.5l5.5-9.1l1.7,4.5l5.8,6.5L80.6,171z"/>
	<path class="st3" d="M54.6,186.5l-0.3,3l13.9,7.5l34.8,20.6l1.2-29.8l0-8.5l-2.3-0.6l-1.9-1.1l-0.3-2.4l2.7-2.5
		c0,0,0.9,0.1,1.3,0.1s-0.5-1.7-0.5-1.7l-0.4-4.4l-3.7-6.3l-17.3,9.9L54.6,186.5z M132,150.2l-3,3.5l-2.2,3.5l-3.6,5.1l-0.5,3.6
		l-1.4,4.9L121,173l3.3,1l0.6,2l-0.8,2.4l-2.7,0.7l-0.7,5.8l0.5,28.2l9.5-6.7l21.2-15l19.6-14.2L146,157.8L132,150.2z"/>
	<path d="M80.6,171l-8.9-5.4l5.7-8.2l-5.2-4.9l-9.7,4.6l-7.8-11.9l8.5-7.3l-1.5-7.6l-11.3-1.2v-15.1l10.2-0.4l2.2-7.5l-7.6-6.8
		l7.6-12.3l9,3l5.8-4.8l-3.9-8.5l13.6-9.1l6.2,8l8.1-2.1l0.6-10l16.3,0.5l1,9.5l7.6,1.9l5.3-5.9c0,0,0.8-1,1.6-1.1
		c0.8-0.1,1.6,0.4,1.6,0.4l10.5,6.6c0,0,0.6,0.4,0.8,1.1c0.3,1-0.1,1.4-0.1,1.4l-3.1,6.3l5.1,6l10.4-3.6l6.9,11.5l-7.1,7.3l1,7.6
		l11.4,1l0.2,15.1l-11.4,1l-1.9,7.4l7.7,7.6l-7.8,11.6l-9.3-3.8l-4.5,4l-2.3-2.6l6.2-5.4l8.7,3.5l4.6-6.8l-7-7l3-11.8l10.6-1
		l-0.1-8.7l-11-0.9l-1.6-12.1l6.4-6.6l-4.1-6.8l-10,3.4l-8.1-9.6l3.5-7l-8.4-5.2l-6.3,7l-12-3l-1-8.9l-9.8-0.3l-0.5,9.1l-12.8,3.3
		l-5.6-7.2l-8.4,5.6l3.8,8.2l-9.3,7.8l-8.2-2.8l-4.6,7.4l7.1,6.3l-3.6,12l-9.3,0.4v8.5l10.7,1.2l2.5,12.1l-7.7,6.6l4.4,6.7l9.1-4.3
		L82,157l-5.3,7.6l5.7,3.5L80.6,171z"/>
	<path d="M86.7,146.9c-7.9-6.6-12.4-16-12.4-26c0-7.9,2.9-15.7,8.2-21.8c5.2-6,14-11.9,24.4-12.6l0.7,2.7
		c-17.8,1.6-29.8,17.3-29.8,31.8c0,8.9,4.1,17.4,11.2,23.3L86.7,146.9z"/>
	<polygon class="st4" points="113.3,79 115,83 113.9,87.7 112.5,90.8 130.7,136.4 135.3,147.7 136.5,156.5 131.3,149.2 131.5,144.9 
		131.9,142.1 131.6,140.6 130.8,138.7 129,135.6 121.6,136.2 122,133 123.6,129.1 120.7,123.4 117.6,121.4 115.2,116.8 112.5,110.5 
		107.4,118.7 103.5,117.3 100.4,115.2 107.9,96.7 109.6,90 108,83.9 109.5,79.4 111.3,78.5 	"/>
	<path d="M134.1,147l-2.2-2.7c7.5-6.1,11.8-14.6,11.8-23.4c0.1-15.1-8.8-26.9-28.6-31.4l0.8-3.1c21.1,3.9,31.4,19,31.4,34.5
		C147.2,130.7,142.4,140.3,134.1,147"/>
	<polygon points="171.3,179.1 131.8,149.4 128.5,147.1 130.6,144.2 133.9,146.6 174.2,177.2 	"/>
	<polygon class="st4" points="121.2,212.5 169.7,179.7 170.2,191 120.9,227.6 	"/>
	<polygon class="st4" points="54.3,189.4 103.8,218.4 104.2,232.6 88.4,223.4 54.1,200.9 	"/>
	<polygon points="52.3,185.9 98.2,158.9 100,162 80,173.7 58.5,186.3 55.8,188.2 	"/>
	<path class="st5" d="M94.6,136.1l16.3,0.1l19.8,0.1l2.6,2.5l-2.1,3.8l-1.7,2.9l0.6,7.4l-2.3,2.4l-2.2,2.6l-2.6,4.9l-1.4,5l-1.1,5.3
		l3.7,0.8l0.5,1.7l-0.7,2.6l-2.7,0.7l-0.4,79.6l-1.9,2l-5,1.3l-2.5-0.1l-3.7-0.8l-4.2-2.3l0.6-79.5l-2.9-0.4c0,0-1.4-1.5-1.4-1.7
		c0-0.2,0.1-3.4,0.1-3.4l3.6-0.9l-0.3-2.8l-2.5-6.4l-2.1-4.6l-3.5-4l-1.7-2.8l0.4-6.5l-1.5-1l-2.7-2.1l1.3-4.6L94.6,136.1z"/>
	<polygon points="102.6,235.7 52.5,202.3 52.4,185.8 103.3,215.5 102.6,220.7 56,192.1 55.7,198.8 103.3,229.1 	"/>
	<polygon points="122.4,223.3 122.3,222.8 168.2,189.2 168.1,182.6 122.5,214.3 121.7,210.1 171.4,176.3 171.8,190.4 174.2,191.7 
		122.2,230 119.7,225.2 	"/>
	<path d="M111.4,80.4L111.4,80.4c-0.5,0.4-1.2,1.9-1.2,4.1c0,2.2,0.8,3.6,1.2,4.1c0.5-0.4,1.2-1.8,1.2-4.1
		C112.6,82.3,111.9,80.9,111.4,80.4 M111.4,92.2c-3.1,0-5.4-3.3-5.4-7.7c0-4.5,2.3-7.7,5.4-7.7c3.2,0,5.4,3.2,5.4,7.7
		S114.6,92.2,111.4,92.2z"/>
	<polygon points="115.8,122.2 112.2,114.3 108.9,120.5 105.8,118.9 112.3,106.3 119,120.7 	"/>
	<polygon class="st4" points="89.8,142.6 94,145.7 90.9,152.4 84,160.7 85.4,151 	"/>
	<polygon points="73.5,189.2 70.3,187.8 88.8,140.5 92.1,141.8 86.1,157.1 92.1,145.4 95.2,147.1 	"/>
	<polygon points="129.1,137 111.4,91.9 101.7,116.9 98.4,115.6 110.2,87 111.5,89.3 112.6,87 132.3,135.7 	"/>
	<polygon points="147.8,186.3 129,148.2 132.2,146.7 133.8,150 132.3,146.1 135.6,144.8 151.1,184.9 	"/>
	<path d="M94.3,143.9L94.3,143.9h35.2c0.6-0.1,1.2-1,1.4-2.1c0.2-1.4-0.1-3.1-1.8-4.1H94c-1.5,0.5-2.1,1.7-2.1,2.7
		C91.8,141.9,92.7,143.2,94.3,143.9 M129.6,147.4h-36l-0.3-0.1c-3.2-1.2-5.1-4-5-7.1c0.2-2.9,2.1-5.2,4.9-6l0.2-0.1H130l0.4,0.2
		c3.8,1.8,4.6,5.5,4.1,8.1C133.9,145.2,132,147.2,129.6,147.4L129.6,147.4L129.6,147.4z"/>
	<path d="M102.7,174.6c-1.3-9.4-4.5-16.2-9.7-20.3l-0.5-0.4v-9.1l38.6-0.1l0.3,9.4l-0.4,0.4c-5,4.9-7.8,11.6-8.5,19.9l-2.8-0.2
		c0.7-8.7,3.8-16,8.9-21.3l-0.2-5.4l-33.1,0.1v5c5.4,4.6,8.8,11.9,10.1,21.7L102.7,174.6z"/>
	<path class="st6" d="M117.7,179.9h2.4v80.9h-2.4V179.9z M104.9,179.5h2.4v80.9h-2.4V179.5z"/>
	<path d="M112.5,263.4c-4.1,0-7.6-1.2-9.6-3.4l-0.4-0.4v-0.6l0.2-79.8h2.8l-0.2,79.2c1.7,1.4,4.7,2.2,8,2.1c2.8-0.1,5.2-0.9,6.4-2
		v-79.2h2.8v80.2l-0.3,0.4c-1.5,2-4.8,3.3-8.7,3.5C113.1,263.4,112.8,263.4,112.5,263.4"/>
	<path d="M102.4,177.8L102.4,177.8h20.5c0.1-0.1,0.5-0.4,0.5-1.1c0-0.4,0-1.2-0.8-1.8h-20.5c-0.6,0.2-0.9,0.8-0.9,1.3
		C101.2,176.8,101.6,177.4,102.4,177.8 M123,180.6h-21.2l-0.2-0.1c-2-0.8-3.3-2.5-3.2-4.5c0.1-1.9,1.3-3.4,3.1-3.9l0.2-0.1h21.5
		l0.3,0.1c2,1,3,3,2.6,5.3C125.8,179.2,124.5,180.5,123,180.6L123,180.6z"/>
	<polygon class="st7" points="121.9,136.5 122.3,132.4 122.7,125.2 118.7,121.7 109.1,119.2 103.5,117.3 99.8,114.9 97.2,110.9 
		95.4,106.4 94.2,102.6 92.5,105.1 90.2,107.4 88.5,104.5 86.6,105.5 84.5,108.6 82.3,114.1 83.5,122.2 87.1,128.2 92.2,133.2 
		95.4,135.4 106.3,136.1 	"/>
	<path d="M103.6,134.4L103.6,134.4h-4.4c-11.7-6.1-14.5-12-15.3-17.8c-0.4-3.2,0.8-6.5,3.8-9.9c0.2,0.8,0.4,1.5,0.6,2.2
		c0.2,0.7,0.4,0.8,0.6,1.9l0.3,1.5l0.6,1.3l0.5-3.4c0.4-2.2,1.9-4,3.3-4.6c1.9,8.9,7.1,14.1,15.3,15.4l0.1,0
		c6.8,0.5,11,2.1,12.3,4.8c1,1.9,0.6,4.7-1.3,8.1h-11.4L103.6,134.4z M123.9,124.6c-1.9-3.6-6.6-5.7-14.5-6.3
		c-7.8-1.3-12.2-6.5-13.5-15.8l-0.4-2.7l-1.9,1.9c-1.3,1.3-2.4,2.6-3.3,3.9c-0.1-0.6-0.3-1.3-0.3-2l-0.3-2.6l-1.9,1.8
		c-5,4.8-7.1,9.4-6.4,14.2c0.9,6.8,3.1,13.4,16,20l4.8,0.1H115v-0.3h6.8l0.4-0.7C124.8,131.4,125.4,127.6,123.9,124.6z"/>
	<path d="M187.2,46.1c-19.5-26.5-46.4-42.8-76.1-42.8C81.4,3.3,54.5,19.6,35,46.1c-19.6,26.6-31.7,63.4-31.7,104s12.1,77.4,31.7,104
		c19.5,26.5,46.4,42.8,76.1,42.8c29.7,0,56.6-16.4,76.1-42.8c19.6-26.6,31.7-63.4,31.7-104C218.9,109.4,206.8,72.7,187.2,46.1
		 M111.1,0c30.8,0,58.6,16.9,78.7,44.2c20,27.1,32.4,64.6,32.4,105.9c0,41.3-12.4,78.8-32.4,105.9c-20.1,27.3-47.9,44.1-78.7,44.1
		c-30.8,0-58.6-16.9-78.7-44.1C12.4,228.9,0,191.4,0,150.1c0-41.3,12.4-78.8,32.4-105.9C52.5,16.9,80.3,0,111.1,0z"/>
	<path d="M192.2,158.8l0.1,7.6c0,0.7,0.6,1.3,1.3,1.3c0.7,0,1.3-0.6,1.3-1.4l-0.1-6.1l2.9,0l0,5.2c0,0.7,0.6,1.3,1.3,1.3
		c0.7,0,1.3-0.6,1.3-1.4l0-5.2l2.8,0l0,6c0,0.7,0.6,1.3,1.3,1.3c0.7,0,1.3-0.6,1.3-1.3l-0.1-7.5c0-0.8-0.7-1.5-1.5-1.5l-10.6,0.1
		C192.9,157.3,192.2,157.9,192.2,158.8 M194.4,147.2l3-0.2l0.2,3.4c0.1,1.5-0.4,2.2-1.3,2.3h0c-1,0.1-1.5-0.7-1.6-2L194.4,147.2z
		 M199.8,146.9l2.9-0.2l0.2,2.9c0.1,1.3-0.4,2-1.3,2h0c-1,0.1-1.5-0.7-1.6-2.1L199.8,146.9z M193,144.4c-0.8,0.1-1.4,0.8-1.4,1.6
		l0.3,4.9c0.2,3.1,1.6,5,4,4.8h0c1.8-0.1,2.7-1.1,3.1-2.8c0.6,0.9,1.5,1.7,3,1.6h0c0.9-0.1,1.7-0.4,2.2-1.1c0.7-0.8,1.1-2.1,1-3.6
		l-0.3-4.8c-0.1-0.8-0.8-1.4-1.6-1.4L193,144.4z M192.6,139.2c-0.8,0.1-1.4,0.8-1.4,1.6c0.1,0.8,0.8,1.4,1.6,1.4l10.8-0.7
		c0.8-0.1,1.4-0.8,1.4-1.6c-0.1-0.8-0.8-1.4-1.6-1.4L192.6,139.2z M197,128.5l3.9-0.5l0.4,2.9c0.2,1.4-0.4,2.4-1.6,2.6h0
		c-1.1,0.1-2-0.6-2.2-2L197,128.5z M191,126.2c-0.8,0.1-1.4,0.8-1.3,1.7c0.1,0.8,0.9,1.4,1.7,1.3l2.9-0.4l0.3,2.4l-3.3,3.4
		c-0.4,0.4-0.7,0.9-0.6,1.6c0.1,0.7,0.7,1.3,1.6,1.2c0.5-0.1,0.7-0.3,1.1-0.6l2.2-2.4c0.9,1.5,2.3,2.4,4.4,2.1l0,0
		c1.3-0.2,2.3-0.7,2.9-1.6c0.8-1,1.1-2.4,0.9-4.1l-0.6-4.7c-0.1-0.8-0.9-1.4-1.7-1.3L191,126.2z M193.6,115.6l4.8,0.9l-4,2.7
		L193.6,115.6z M188.4,111.8c-0.8,0.2-1.2,0.9-1.1,1.6c0.1,0.6,0.6,1,1.2,1.2l2.4,0.5l1.2,5.8l-1.9,1.3c-0.6,0.4-0.9,0.9-0.7,1.6
		c0.2,0.8,0.9,1.3,1.7,1.1c0.2,0,0.4-0.1,0.6-0.3l9.5-6.8c0.7-0.5,1-1.1,0.8-1.9l0-0.2c-0.2-0.8-0.7-1.3-1.5-1.5l-11.4-2.5
		C188.8,111.8,188.6,111.8,188.4,111.8z M185.8,106.4c0.6,2.1,1.6,3.3,3,4.2c0.3,0.2,0.7,0.3,1.2,0.2c0.7-0.2,1.1-1,0.9-1.7
		c-0.1-0.3-0.3-0.6-0.6-0.8c-0.9-0.6-1.5-1.3-1.8-2.5c-0.6-2.2,0.8-4.3,3-4.9l0,0c2.2-0.6,4.5,0.4,5.1,2.6c0.3,1,0.2,2-0.2,2.9
		c-0.1,0.2-0.1,0.5,0,0.9c0.2,0.8,1,1.2,1.8,1c0.5-0.1,0.8-0.5,1-0.9c0.5-1.3,0.6-2.8,0.1-4.7c-1.1-4-5-5.9-8.7-4.9l0,0
		C186.8,98.9,184.7,102.6,185.8,106.4z M181.2,86.1c-0.8,0.3-1.2,1.1-0.9,1.9l2.5,6.6c0.3,0.7,1,1.1,1.8,0.8c0.7-0.3,1.1-1,0.8-1.8
		l-1.9-5.2l8.9-3.3c0.8-0.3,1.2-1.1,0.9-1.9c-0.3-0.8-1.1-1.2-1.9-0.9L181.2,86.1z M175.8,77.1l3.3,6.8c0.3,0.7,1.1,0.9,1.8,0.6
		c0.7-0.3,0.9-1.1,0.6-1.8l-2.7-5.5l2.6-1.2l2.3,4.7c0.3,0.7,1.1,0.9,1.8,0.6s0.9-1.1,0.6-1.8l-2.3-4.7l2.5-1.2l2.6,5.4
		c0.3,0.7,1.1,0.9,1.8,0.6c0.7-0.3,0.9-1.1,0.6-1.8l-3.3-6.8c-0.4-0.8-1.2-1.1-2-0.7l-9.5,4.6C175.8,75.5,175.5,76.4,175.8,77.1z
		 M172.3,64.7l6.9-4.3l1.2,2c1.3,2.1,0.7,4.4-1.3,5.6l0,0c-2,1.3-4.3,0.7-5.6-1.3L172.3,64.7z M169.7,62.8c-0.7,0.4-0.9,1.3-0.5,2.1
		l2,3.2c2.2,3.6,6.3,4.6,9.6,2.6l0,0c3.2-2,4.2-6,1.9-9.7l-2-3.2c-0.4-0.7-1.3-0.9-2.1-0.5L169.7,62.8z M165.1,49.4l4.7-1.3
		l-2.4,4.2L165.1,49.4z M158.7,48.3c-0.6,0.5-0.7,1.3-0.3,1.9c0.4,0.5,1,0.7,1.6,0.5l2.3-0.6l3.7,4.7l-1.1,2
		c-0.3,0.6-0.4,1.2,0.1,1.8c0.5,0.6,1.4,0.7,2,0.2c0.1-0.1,0.3-0.3,0.4-0.5l5.5-10.3c0.4-0.7,0.4-1.4-0.1-2.1l-0.1-0.1
		c-0.5-0.6-1.2-0.8-2-0.7L159.3,48C159.1,48.1,158.8,48.2,158.7,48.3z M147.1,38.7c-0.5,0.6-0.4,1.5,0.2,2s1.6,0.4,2.1-0.2l4.2-5.3
		l-0.4,4.7c-0.1,0.6,0.1,1,0.5,1.4c0.4,0.3,0.9,0.3,1.4,0.2l4.6-1.5l-4.2,5.3c-0.5,0.6-0.4,1.6,0.2,2.1c0.6,0.5,1.6,0.4,2.1-0.2
		l6.7-8.5c0.5-0.7,0.4-1.6-0.2-2.1l-0.3-0.2c-0.5-0.4-1-0.4-1.5-0.2l-6.5,2.4l0.8-6.8c0.1-0.5-0.1-1-0.6-1.5l-0.3-0.2
		c-0.7-0.5-1.6-0.4-2.1,0.2L147.1,38.7z M140.1,33.1c-2.1-1.2-2.5-3.8-1.4-5.8l0,0c1.2-2,3.6-2.8,5.6-1.5c2.1,1.2,2.5,3.8,1.4,5.8
		l0,0C144.6,33.5,142.2,34.3,140.1,33.1z M138.7,35.4c3.6,2.1,7.8,1,9.8-2.3l0,0c2-3.3,1-7.5-2.6-9.7c-3.6-2.1-7.8-1-9.8,2.3l0,0
		C134.1,29.1,135.1,33.3,138.7,35.4z M119.5,27.4c-0.2,0.8,0.3,1.6,1.1,1.8c0.8,0.2,1.6-0.3,1.8-1l1.8-7l3.8,9.1
		c0.3,0.6,0.6,1,1.3,1.2l0.1,0c0.8,0.2,1.6-0.3,1.8-1.1l2.7-10.4c0.2-0.8-0.3-1.6-1.1-1.8c-0.8-0.2-1.6,0.3-1.8,1l-1.8,6.8l-3.7-8.8
		c-0.3-0.6-0.6-1.1-1.3-1.2l-0.3-0.1c-0.8-0.2-1.6,0.3-1.8,1.1L119.5,27.4z M110,14.1c0.7,0,1.1-0.1,1.7-0.7l1.2-1.1
		c0.2-0.2,0.4-0.4,0.4-0.7c0-0.4-0.9-0.9-1.7-0.9c-0.5,0-0.8,0.3-1.1,0.7l-1,1.7c-0.1,0.2-0.2,0.4-0.2,0.5
		C109.2,14,109.5,14.2,110,14.1z M110.4,26.3c-2.4,0.1-4.2-1.8-4.2-4.1v0c-0.1-2.3,1.6-4.3,3.9-4.3c2.4-0.1,4.2,1.8,4.2,4.1v0
		C114.4,24.3,112.8,26.3,110.4,26.3z M110.4,29.1c4.2-0.1,7.1-3.3,7-7.2v0c-0.1-3.9-3.2-6.9-7.4-6.8c-4.2,0.1-7.1,3.4-7,7.2v0
		C103.1,26.1,106.2,29.2,110.4,29.1z M96,29.6c0.2,0.8,1.1,1.2,1.9,1s1.2-1.1,1-1.9l-2.8-9l2.7-0.8c0.7-0.2,1.1-1,0.9-1.7
		c-0.2-0.7-1-1.1-1.7-0.9l-8.3,2.5c-0.7,0.2-1.1,1-0.9,1.7c0.2,0.7,1,1.1,1.7,0.9l2.7-0.8L96,29.6z M86.2,34.8
		c3.3-1.5,4.6-4.3,2.9-8l-2.6-5.7c-0.3-0.8-1.2-1.1-2-0.7c-0.8,0.3-1.1,1.2-0.7,2l2.6,5.8c0.9,2,0.3,3.4-1.3,4.2
		c-1.7,0.8-3.1,0.2-4-1.9l-2.6-5.7c-0.3-0.8-1.2-1.1-2-0.8s-1.1,1.2-0.7,2l2.6,5.8C80,35.4,82.8,36.3,86.2,34.8z M69.6,37.8
		l-1.3-4.7l4.2,2.4L69.6,37.8z M68.5,44.2c0.5,0.6,1.3,0.7,1.9,0.3c0.5-0.4,0.7-1,0.5-1.6l-0.6-2.3l4.7-3.7l2,1.1
		c0.6,0.3,1.2,0.4,1.8-0.1c0.6-0.5,0.7-1.4,0.2-2c-0.1-0.2-0.3-0.3-0.5-0.4l-10.3-5.5c-0.7-0.4-1.4-0.4-2.1,0.1L66,30.3
		c-0.6,0.5-0.8,1.2-0.7,2l2.8,11.3C68.3,43.9,68.3,44.1,68.5,44.2z M57.5,52.6l-5.7-5.9l1.7-1.6c1.8-1.7,4.1-1.6,5.8,0.1l0,0
		c1.7,1.7,1.6,4-0.1,5.7L57.5,52.6z M56.2,55.5c0.6,0.6,1.5,0.6,2.1,0l2.7-2.6c3.1-3,3.1-7.1,0.5-9.9l0,0c-2.7-2.7-6.8-2.8-9.9,0.2
		l-2.7,2.6c-0.6,0.6-0.6,1.5,0,2.1L56.2,55.5z M47,61.5l-2.6-4.1l4.8,1L47,61.5z M48,68c0.6,0.4,1.5,0.3,1.9-0.3
		c0.3-0.5,0.3-1.1,0-1.7l-1.3-2l3.3-4.9l2.3,0.4c0.7,0.1,1.3,0,1.7-0.6c0.5-0.7,0.3-1.5-0.4-2c-0.2-0.1-0.3-0.2-0.6-0.2l-11.5-2.1
		c-0.8-0.1-1.5,0.1-2,0.8l-0.1,0.2c-0.5,0.7-0.4,1.4,0,2.1l6.2,9.9C47.6,67.7,47.8,67.9,48,68z M42,75.7l-7.2-3.9l1.1-2
		c1.2-2.1,3.4-2.8,5.5-1.6l0,0c2.1,1.2,2.8,3.4,1.6,5.5L42,75.7z M41.6,78.9c0.7,0.4,1.6,0.1,2-0.6l1.8-3.3c2-3.7,0.9-7.7-2.5-9.6
		l0,0c-3.3-1.8-7.3-0.7-9.4,3.1l-1.8,3.3c-0.4,0.7-0.1,1.6,0.6,2L41.6,78.9z M39.6,83.8c0.8,0.3,1.6,0,2-0.8c0.3-0.8,0-1.6-0.8-2
		l-9.9-4.3c-0.8-0.3-1.6,0-2,0.8c-0.3,0.8,0,1.6,0.8,2L39.6,83.8z M38.4,90.4c0.9-2.8,0.2-5.2-2.4-6.1l0,0c-2.2-0.8-3.7,0.4-5.2,2.8
		c-1.3,2-1.8,2.5-2.6,2.2l0,0c-0.6-0.2-0.9-0.9-0.6-2c0.3-0.9,0.9-1.7,1.8-2.4c0.2-0.2,0.4-0.4,0.4-0.7c0.2-0.7-0.1-1.5-0.9-1.8
		c-0.5-0.2-1,0-1.3,0.2c-1.1,0.9-2,2.1-2.5,3.7c-0.9,2.6,0,5,2.4,5.8l0,0c2.5,0.9,3.8-0.6,5.4-2.9c1.3-2,1.8-2.3,2.5-2l0,0
		c0.8,0.3,1,1.1,0.6,2.3c-0.4,1.2-1.2,2.2-2.3,2.9c-0.2,0.1-0.4,0.3-0.5,0.7c-0.2,0.7,0.1,1.5,0.8,1.8c0.4,0.2,0.9,0.1,1.2-0.2
		C36.8,93.7,37.9,92.1,38.4,90.4z M27,102.7l-3.8-0.9l0.7-2.9c0.4-1.4,1.2-2.1,2.4-1.8l0,0c1.1,0.3,1.7,1.3,1.3,2.7L27,102.7z
		 M31.7,106.9c0.8,0.2,1.6-0.3,1.8-1.1c0.2-0.8-0.3-1.6-1.1-1.8l-2.9-0.7l0.6-2.3l4.3-1.9c0.5-0.2,0.9-0.6,1.1-1.2
		c0.2-0.7-0.2-1.5-1-1.7c-0.5-0.1-0.8,0-1.2,0.2l-2.9,1.4c-0.3-1.8-1.3-3.1-3.4-3.6l0,0c-1.2-0.3-2.4-0.2-3.3,0.4
		c-1.1,0.7-1.9,1.8-2.3,3.5l-1.1,4.6c-0.2,0.8,0.3,1.6,1.1,1.8L31.7,106.9z M30.6,117.2l1.8-7.4c0.2-0.7-0.2-1.4-1-1.6
		c-0.7-0.2-1.4,0.3-1.6,1l-1.5,5.9l-2.8-0.7l1.2-5c0.2-0.7-0.2-1.4-1-1.6c-0.7-0.2-1.4,0.3-1.6,1l-1.2,5l-2.7-0.7l1.5-5.9
		c0.2-0.7-0.2-1.4-1-1.6c-0.7-0.2-1.4,0.3-1.6,1l-1.8,7.3c-0.2,0.8,0.3,1.6,1.1,1.8l10.3,2.6C29.6,118.5,30.4,118.1,30.6,117.2z
		 M29.5,126.3l0-0.2c0.1-0.8-0.2-1.4-0.9-1.9l-9.7-6.1c-0.2-0.1-0.4-0.2-0.6-0.3c-0.8-0.1-1.5,0.4-1.6,1.2c-0.1,0.7,0.3,1.3,0.7,1.6
		l8.2,4.8l-9.2,1.9c-0.6,0.1-1.1,0.6-1.3,1.3c-0.1,0.8,0.4,1.6,1.2,1.7c0.2,0,0.5,0,0.7-0.1l11.1-2.6
		C28.9,127.6,29.4,127.1,29.5,126.3z M26.9,136.6c0.8,0.1,1.5-0.5,1.6-1.4s-0.5-1.5-1.4-1.6l-10.8-1c-0.8-0.1-1.5,0.5-1.6,1.4
		s0.5,1.5,1.3,1.6L26.9,136.6z M26.3,150.9c0.8,0,1.5-0.6,1.5-1.4c0-0.8-0.6-1.5-1.4-1.5l-7.3-0.1l7.9-5.8c0.5-0.4,0.9-0.8,0.9-1.5
		v-0.1c0-0.8-0.6-1.5-1.5-1.5l-10.8-0.2c-0.8,0-1.5,0.6-1.5,1.4c0,0.8,0.6,1.5,1.4,1.5l7,0.1l-7.6,5.6c-0.5,0.4-0.9,0.8-0.9,1.5
		l0,0.3c0,0.8,0.6,1.5,1.5,1.5L26.3,150.9z M27.9,158.8c-0.2-3.6-2.3-5.8-6.4-5.6l-6.3,0.3c-0.8,0-1.5,0.7-1.4,1.6
		c0,0.8,0.7,1.5,1.6,1.4l6.4-0.3c2.1-0.1,3.3,0.9,3.4,2.8c0.1,1.8-1,3-3.2,3.1l-6.3,0.3c-0.8,0-1.5,0.7-1.4,1.6
		c0,0.8,0.7,1.5,1.6,1.4l6.4-0.3C26.2,164.7,28.1,162.4,27.9,158.8z"/>
	<path d="M151.1,63.2l5.6-1.1l-2.9,4.9L151.1,63.2z M146.9,63c-0.2,0.2-0.3,0.5-0.1,0.7c0.1,0.2,0.4,0.3,0.6,0.2l2.6-0.5l3.2,4.6
		l-1.3,2.2c-0.1,0.2-0.2,0.5,0,0.7c0.2,0.2,0.5,0.3,0.8,0.1c0.1-0.1,0.1-0.1,0.2-0.2l5-8.5c0.2-0.3,0.2-0.6,0-0.9l0,0
		c-0.2-0.3-0.5-0.4-0.8-0.3l-9.7,1.8C147.1,62.9,147,62.9,146.9,63z M142.2,58.2c-0.2,0.2-0.2,0.5,0,0.7l3.5,3.7
		c0.2,0.2,0.5,0.2,0.6,0c0.2-0.2,0.2-0.5,0-0.7l-3.2-3.3l5.4-5.2c0.2-0.2,0.2-0.5,0-0.7c-0.2-0.2-0.5-0.2-0.7,0L142.2,58.2z
		 M136.3,54.1c-0.1,0.2-0.1,0.5,0.1,0.7l4.3,2.8c0.2,0.1,0.5,0.1,0.6-0.1c0.1-0.2,0.1-0.5-0.1-0.6l-3.9-2.5l4.1-6.3
		c0.1-0.2,0.1-0.5-0.1-0.7c-0.2-0.2-0.5-0.1-0.7,0.2L136.3,54.1z M133.7,52.8c-0.1,0.2,0,0.6,0.2,0.7c0.2,0.1,0.6,0,0.7-0.2l3.8-7
		c0.1-0.2,0-0.5-0.2-0.7c-0.2-0.1-0.5,0-0.7,0.2L133.7,52.8z M128.5,51.1c2.1,0.8,3.9,0,4.8-2.4l1.6-4.4c0.1-0.3,0-0.6-0.3-0.7
		c-0.3-0.1-0.6,0-0.6,0.3l-1.6,4.4c-0.7,1.8-2,2.4-3.5,1.8c-1.6-0.6-2.2-2-1.5-3.8l1.6-4.4c0.1-0.3,0-0.6-0.3-0.7
		c-0.2-0.1-0.5,0-0.6,0.3l-1.6,4.4C125.5,48.6,126.5,50.4,128.5,51.1z M120.5,46.2l1.2,1.3c-0.6,0.3-1.3,0.5-2.1,0.3
		c-2-0.3-3.2-2.2-2.9-4.2l0,0c0.3-2,2-3.4,4-3.1s3.2,2.2,2.9,4.1v0c-0.1,0.9-0.5,1.6-1.1,2.2l-1.2-1.4c-0.1-0.1-0.2-0.2-0.3-0.2
		c-0.3,0-0.5,0.2-0.6,0.4C120.4,46,120.4,46.1,120.5,46.2z M119.4,48.8c1.1,0.2,2.1,0,2.9-0.5l0.7,0.9c0.1,0.1,0.2,0.2,0.3,0.2
		c0.3,0,0.5-0.2,0.6-0.4c0-0.2,0-0.3-0.1-0.5l-0.7-0.8c0.8-0.7,1.3-1.7,1.5-2.8v0c0.4-2.4-1.1-4.8-3.8-5.2c-2.7-0.4-4.8,1.5-5.2,3.9
		v0C115.2,46.1,116.7,48.4,119.4,48.8z M106.1,47.9c0,0.3,0.2,0.5,0.5,0.5c0.3,0,0.5-0.2,0.5-0.5l-0.3-6.9l5.8,6.8
		c0.2,0.2,0.3,0.3,0.5,0.3h0.1c0.3,0,0.4-0.2,0.4-0.5l-0.3-8c0-0.3-0.2-0.5-0.5-0.5c-0.3,0-0.5,0.2-0.5,0.5l0.3,6.7l-5.7-6.7
		c-0.2-0.2-0.3-0.3-0.5-0.3h-0.1c-0.3,0-0.5,0.2-0.5,0.5L106.1,47.9z M98,46.7l1-4.9l3,4L98,46.7z M96.4,50c0.1,0.2,0.3,0.4,0.5,0.3
		c0.2,0,0.4-0.2,0.4-0.4l0.5-2.2l4.8-1l1.3,1.8c0.1,0.2,0.3,0.3,0.6,0.2c0.3-0.1,0.4-0.3,0.4-0.6c0-0.1-0.1-0.2-0.1-0.2L99.5,41
		c-0.2-0.2-0.4-0.4-0.7-0.3l-0.1,0c-0.3,0.1-0.5,0.3-0.5,0.6l-1.8,8.5C96.4,49.8,96.4,49.9,96.4,50z M88.5,49l-1.4-3.3l2.5-1
		c1.3-0.5,2.3-0.3,2.8,0.8l0,0c0.4,1.1-0.2,2-1.4,2.6L88.5,49z M89.1,53c0.1,0.3,0.4,0.4,0.7,0.3c0.3-0.1,0.4-0.4,0.3-0.7l-1.1-2.8
		l2.4-1l3.6,2.1c0.2,0.1,0.3,0.1,0.5,0.1c0.2-0.1,0.4-0.4,0.3-0.7c-0.1-0.1-0.2-0.2-0.3-0.3l-3.1-1.8c1.2-0.8,1.8-1.9,1.2-3.3l0,0
		c-0.3-0.6-0.7-1.1-1.3-1.4c-0.7-0.3-1.7-0.3-2.7,0.1L86.3,45c-0.2,0.1-0.4,0.4-0.3,0.7L89.1,53z M80.5,53.5l-1.9-3l2.3-1.5
		c1.2-0.8,2.3-0.7,2.9,0.2l0,0c0.6,1,0.2,2-0.9,2.8L80.5,53.5z M81.8,57.3c0.2,0.2,0.5,0.3,0.7,0.2c0.2-0.2,0.3-0.5,0.2-0.7L81,54.3
		l2.2-1.4l3.9,1.4c0.2,0.1,0.4,0.1,0.5,0c0.2-0.1,0.3-0.5,0.2-0.7c-0.1-0.1-0.2-0.2-0.3-0.2L84,52.1c1-1,1.4-2.2,0.6-3.5l0,0
		c-0.4-0.6-0.9-1-1.5-1.1c-0.8-0.2-1.7,0-2.6,0.6L77.7,50c-0.2,0.1-0.3,0.5-0.2,0.7L81.8,57.3z M74.1,60.3l-1.7-4.7l4.6,1.9
		L74.1,60.3z M74.5,64c0.2,0.2,0.5,0.2,0.7,0c0.2-0.2,0.2-0.4,0.1-0.6l-0.8-2.1l3.5-3.4l2.1,0.8c0.2,0.1,0.4,0.1,0.6-0.1
		c0.2-0.2,0.2-0.5,0-0.7c-0.1,0-0.1-0.1-0.2-0.1l-8.1-3.2c-0.3-0.1-0.5-0.1-0.8,0.1l0,0c-0.2,0.2-0.2,0.5-0.2,0.8l2.8,8.2
		C74.4,63.8,74.4,63.9,74.5,64z M70.1,69.4l-2.6-1.7l1.6-2.3c0.8-1.3,1.8-1.7,2.6-1.1l0,0c0.8,0.6,0.9,1.6,0.1,2.7L70.1,69.4z
		 M66.8,67.2l-2.6-1.7l1.5-2.2c0.7-1.1,1.6-1.3,2.3-0.8l0,0c0.9,0.6,0.9,1.6,0.2,2.6L66.8,67.2z M69.9,70.4c0.2,0.2,0.6,0.1,0.7-0.1
		l1.9-2.9c1.1-1.6,1-3.2-0.2-4l0,0c-1-0.7-2-0.3-2.8,0.4c0.1-0.8,0-1.7-0.9-2.3l0,0c-0.5-0.3-1-0.4-1.5-0.3
		c-0.7,0.2-1.4,0.7-1.9,1.5l-1.8,2.7c-0.2,0.2-0.1,0.5,0.2,0.7L69.9,70.4z"/>
	<path d="M198.8,217.7c-1,2.3-3.5,3.1-5.7,2.1l0,0c-2.2-1-3.3-3.4-2.3-5.6s3.5-3.1,5.8-2.1l0,0C198.7,213.1,199.8,215.4,198.8,217.7
		 M200.7,218.6c1.5-3.5-0.1-7.1-3.3-8.6l0,0c-3.2-1.4-6.9-0.1-8.5,3.4c-1.5,3.5,0.1,7.1,3.3,8.6l0,0
		C195.4,223.3,199.1,222,200.7,218.6z M195.3,229.8c1.2-2.3,0.8-4.6-1.3-5.6l0,0c-1.8-0.9-3.3-0.2-5.1,1.9c-1.6,1.9-2.2,2.2-3.1,1.8
		l0,0c-0.7-0.4-1-1.3-0.4-2.5c0.4-0.9,1.1-1.6,2.1-2.1c0.2-0.1,0.3-0.2,0.4-0.4c0.3-0.5,0.1-1.1-0.4-1.4c-0.4-0.2-0.8-0.1-1,0
		c-1.2,0.7-2.1,1.6-2.8,3c-1.1,2.2-0.6,4.4,1.3,5.4l0,0c2,1,3.4,0.1,5.2-2c1.5-1.8,2.2-2,3-1.6l0,0c0.8,0.4,1,1.5,0.4,2.7
		c-0.6,1.2-1.5,2-2.7,2.5c-0.2,0.1-0.3,0.2-0.5,0.5c-0.3,0.5-0.1,1.1,0.4,1.4c0.3,0.2,0.7,0.1,0.9,0
		C193.3,232.4,194.5,231.3,195.3,229.8z M187.9,242.4l3.7-6.3c0.3-0.5,0.1-1.1-0.3-1.3c-0.5-0.3-1.1-0.1-1.3,0.4l-3.2,5.4l-2.9-1.7
		l2.7-4.6c0.3-0.5,0.1-1.1-0.3-1.3c-0.5-0.3-1.1-0.1-1.4,0.3l-2.7,4.6l-2.8-1.6l3.1-5.3c0.3-0.5,0.1-1.1-0.4-1.3
		c-0.5-0.3-1.1-0.1-1.3,0.4l-3.7,6.2c-0.3,0.5-0.1,1.2,0.4,1.5l8.8,5.2C186.9,243.1,187.6,242.9,187.9,242.4z M176.4,247.6l-3.3-2.6
		l1.9-2.5c1-1.3,2.2-1.6,3.2-0.8l0,0c1,0.8,1,2.1,0.1,3.3L176.4,247.6z M179.2,252.6c0.5,0.4,1.1,0.3,1.5-0.2
		c0.4-0.5,0.3-1.1-0.2-1.5l-2.6-2.1l1.7-2.2l4.9,0c0.4,0,0.8-0.1,1.1-0.5c0.3-0.4,0.3-1.1-0.2-1.4c-0.3-0.2-0.5-0.2-0.9-0.2l-3.8,0
		c0.6-1.6,0.4-3.3-1.2-4.5l0,0c-0.9-0.7-1.8-0.9-2.8-0.8c-1.1,0.1-2.2,0.8-3.2,2.1l-2.7,3.5c-0.4,0.5-0.3,1.2,0.2,1.5L179.2,252.6z
		 M175.3,259.1c1.2-1.4,1.8-2.9,1.9-4.2c0.1-0.6-0.1-1.1-0.5-1.5l-2.5-2.2c-0.5-0.4-1.1-0.4-1.6,0.1l-2.3,2.6
		c-0.4,0.4-0.3,1,0.1,1.4c0.4,0.4,1,0.3,1.4-0.1l1.6-1.8l1.7,1.6c-0.1,0.9-0.5,2-1.3,2.9c-1.7,1.9-4.2,1.9-6.1,0.2l0,0
		c-1.8-1.6-2.1-4.2-0.6-5.9c0.9-1,1.8-1.4,2.7-1.6c0.2-0.1,0.4-0.1,0.6-0.3c0.4-0.4,0.4-1.1-0.1-1.5c-0.3-0.3-0.7-0.3-1-0.3
		c-1.4,0.3-2.5,0.9-3.8,2.3c-2.5,2.8-2.1,6.8,0.5,9.1l0,0C169,262,172.7,262,175.3,259.1z M163.6,267.7c-1.9,1.6-4.5,1.2-6.1-0.7
		l0,0c-1.6-1.9-1.5-4.5,0.4-6s4.5-1.2,6.1,0.7l0,0C165.6,263.5,165.6,266.1,163.6,267.7z M164.9,269.2c2.9-2.4,3.1-6.4,0.9-9.1l0,0
		c-2.2-2.7-6.1-3.2-9.1-0.8s-3.1,6.4-0.9,9.1l0,0C158.1,271.2,162,271.7,164.9,269.2z M148.6,273l-2.1-3.6l2.7-1.6
		c1.4-0.8,2.6-0.7,3.3,0.5l0,0c0.6,1.1,0.2,2.3-1.1,3.1L148.6,273z M149.4,278.7c0.3,0.5,1,0.7,1.5,0.4c0.5-0.3,0.7-1,0.4-1.5
		l-1.7-2.9l2.4-1.4l4.6,1.8c0.4,0.2,0.8,0.2,1.2-0.1c0.5-0.3,0.7-0.9,0.4-1.4c-0.2-0.3-0.4-0.4-0.7-0.5l-3.6-1.4
		c1.2-1.3,1.6-2.9,0.5-4.6l0,0c-0.6-0.9-1.3-1.5-2.2-1.8c-1.1-0.3-2.4,0-3.7,0.8l-3.8,2.3c-0.5,0.3-0.7,1-0.4,1.5L149.4,278.7z
		 M139.1,278.3l-1.9-4l2.3-1.1c1.5-0.7,2.8-0.5,3.4,0.8l0,0c0.6,1.2,0,2.5-1.4,3.2L139.1,278.3z M139.3,283.7
		c0.3,0.5,0.9,0.8,1.5,0.5c0.6-0.3,0.8-0.9,0.5-1.5l-1.3-2.7l2.2-1.1c2.5-1.2,3.8-3.5,2.6-6l0,0c-1.1-2.3-3.4-3-6.1-1.7l-3.4,1.7
		c-0.6,0.3-0.8,0.9-0.5,1.5L139.3,283.7z M127.2,287.2c0.2,0.6,0.8,0.9,1.4,0.8l6.5-1.8c0.5-0.1,0.8-0.7,0.7-1.2
		c-0.1-0.5-0.7-0.8-1.2-0.7l-5.4,1.5l-2.6-9.1c-0.2-0.6-0.8-0.9-1.3-0.7c-0.6,0.2-0.9,0.8-0.8,1.3L127.2,287.2z M116.4,289.8
		l7.3-0.7c0.5,0,0.9-0.5,0.9-1.1c-0.1-0.5-0.5-0.9-1.1-0.9l-6.2,0.6l-0.3-3.3l5.3-0.5c0.5-0.1,0.9-0.5,0.9-1c-0.1-0.5-0.5-1-1.1-0.9
		l-5.3,0.5l-0.3-3.2l6.1-0.6c0.5,0,0.9-0.5,0.9-1.1c-0.1-0.5-0.5-0.9-1.1-0.9l-7.2,0.7c-0.6,0.1-1.1,0.6-1,1.2l1,10.2
		C115.3,289.4,115.8,289.8,116.4,289.8z M102.4,284.5l2.6-4.8l1.8,5.2L102.4,284.5z M98.2,288.2c-0.1,0.6,0.4,1,0.9,1.1
		c0.5,0,0.8-0.2,1.1-0.6l1.2-2.3l6,0.5l0.8,2.4c0.2,0.5,0.5,0.8,1,0.8c0.6,0,1.1-0.4,1.1-1c0-0.1,0-0.3-0.1-0.5l-3.8-10.6
		c-0.2-0.6-0.6-0.9-1.2-1l-0.1,0c-0.6,0-1.1,0.2-1.4,0.8l-5.4,9.9C98.3,287.9,98.2,288,98.2,288.2z M90.7,280.6l1-4l3.1,0.8
		c1.6,0.4,2.3,1.4,2,2.6l0,0c-0.3,1.2-1.5,1.8-3,1.4L90.7,280.6z M87.3,285.1c-0.2,0.6,0.2,1.2,0.8,1.3c0.6,0.1,1.2-0.2,1.3-0.8
		l0.8-3.2l2.7,0.7l2,4.5c0.2,0.4,0.4,0.7,0.9,0.8c0.5,0.1,1.1-0.1,1.3-0.7c0.1-0.3,0-0.6-0.1-0.9l-1.6-3.5c1.8-0.1,3.2-1,3.7-2.9
		l0,0c0.3-1,0.1-2-0.3-2.9c-0.6-1-1.7-1.7-3.2-2.1l-4.3-1.1c-0.6-0.1-1.2,0.2-1.3,0.8L87.3,285.1z M79.7,277.6l4.1-3.7l-0.1,5.5
		L79.7,277.6z M74.5,279.7c-0.2,0.5,0,1.1,0.5,1.3c0.4,0.2,0.9,0.1,1.2-0.2l1.9-1.8l5.5,2.5l0,2.5c0,0.5,0.2,0.9,0.7,1.1
		c0.5,0.2,1.1,0,1.4-0.5c0.1-0.1,0.1-0.3,0.1-0.5l0-11.3c0-0.6-0.2-1.1-0.8-1.3l-0.1,0c-0.6-0.2-1.1-0.1-1.6,0.3l-8.4,7.5
		C74.7,279.4,74.5,279.5,74.5,279.7z M71.2,271.7l2.4-3.8l2.1,1.4c1.4,0.9,1.8,2.1,1,3.3l0,0c-0.7,1.1-2.1,1.3-3.5,0.4L71.2,271.7z
		 M66.6,274.6c-0.3,0.5-0.2,1.2,0.3,1.5c0.5,0.3,1.2,0.2,1.5-0.3l1.7-2.5l2.1,1.4c2.3,1.5,5,1.5,6.5-0.8l0,0
		c1.4-2.1,0.8-4.5-1.7-6.1l-3.2-2.1c-0.5-0.3-1.2-0.2-1.5,0.3L66.6,274.6z M58.9,263.5l5-2.3l-1.7,5.2L58.9,263.5z M53.3,263.9
		c-0.4,0.4-0.3,1,0.1,1.4c0.3,0.3,0.8,0.4,1.2,0.2l2.4-1.1l4.5,4l-0.8,2.4c-0.2,0.5-0.1,0.9,0.3,1.3c0.4,0.4,1.1,0.3,1.5-0.1
		c0.1-0.1,0.2-0.2,0.2-0.4l3.4-10.8c0.2-0.6,0.1-1.1-0.4-1.5l-0.1-0.1c-0.5-0.4-1-0.5-1.6-0.2l-10.3,4.6
		C53.5,263.7,53.4,263.8,53.3,263.9z M50.5,261c-0.4,0.4-0.5,1.1,0,1.5c0.4,0.4,1.1,0.5,1.5,0l7.5-7.3c0.4-0.4,0.5-1.1,0-1.5
		c-0.4-0.4-1.1-0.5-1.5,0L50.5,261z M45,256.6c1.3,1.5,2.6,2.1,4.2,2.4c0.3,0,0.6,0,0.8-0.2c0.4-0.4,0.5-1,0.1-1.4
		c-0.2-0.2-0.4-0.3-0.6-0.3c-1.2-0.2-2.1-0.6-2.9-1.6c-1.5-1.8-1.1-4.4,0.7-6l0,0c1.9-1.6,4.5-1.5,6,0.3c0.8,0.9,1,1.9,1,3
		c0,0.2,0.1,0.4,0.3,0.6c0.4,0.5,1,0.5,1.5,0.1c0.3-0.2,0.4-0.6,0.4-0.9c-0.1-1.4-0.4-2.7-1.7-4.2c-2.4-2.9-6.3-3.1-9-0.8l0,0
		C43.1,250,42.7,253.9,45,256.6z M34.7,240.4c-0.5,0.3-0.6,1-0.3,1.5c0.3,0.5,1,0.6,1.5,0.3l6.7-4.2l-3.5,9.8
		c-0.2,0.5-0.2,0.9,0.1,1.3l0,0.1c0.3,0.5,1,0.6,1.5,0.3l8.8-5.6c0.5-0.3,0.6-1,0.3-1.5c-0.3-0.5-1-0.6-1.5-0.3l-6.5,4.1l3.5-9.6
		c0.2-0.4,0.2-0.9-0.1-1.3l-0.1-0.2c-0.3-0.5-1-0.7-1.5-0.3L34.7,240.4z M28.8,232l3.5,6.4c0.3,0.5,0.8,0.6,1.3,0.4
		c0.5-0.3,0.6-0.9,0.4-1.3l-3-5.5l2.9-1.6l2.6,4.7c0.3,0.5,0.8,0.6,1.3,0.4c0.5-0.3,0.7-0.9,0.4-1.3l-2.6-4.7l2.8-1.6l3,5.4
		c0.2,0.5,0.8,0.6,1.3,0.4c0.5-0.3,0.6-0.9,0.4-1.3l-3.5-6.3c-0.3-0.6-1-0.7-1.5-0.4l-9,4.9C28.7,230.8,28.5,231.4,28.8,232z
		 M27.1,226.1c-0.5,0.3-0.8,0.9-0.5,1.5c0.3,0.6,0.9,0.8,1.5,0.5l9.4-4.5c0.5-0.3,0.8-0.9,0.5-1.4c-0.3-0.6-0.9-0.8-1.5-0.5
		L27.1,226.1z M23.2,220.2c0.8,1.9,1.9,2.9,3.2,3.6c0.2,0.1,0.5,0.2,0.9,0c0.5-0.2,0.8-0.8,0.5-1.3c-0.1-0.2-0.3-0.4-0.5-0.5
		c-1-0.6-1.8-1.2-2.3-2.4c-0.9-2.2,0.3-4.5,2.5-5.5l0,0c2.3-0.9,4.7,0,5.6,2.2c0.5,1.1,0.4,2.1,0.1,3.2c0,0.2-0.1,0.4,0,0.7
		c0.2,0.6,0.8,0.8,1.4,0.6c0.4-0.1,0.6-0.4,0.7-0.7c0.4-1.3,0.4-2.7-0.3-4.5c-1.4-3.5-5.1-4.9-8.4-3.5l0,0
		C23.4,213.3,21.8,216.9,23.2,220.2z"/>
	<path d="M129.6,151.9c-2.8-0.7-5.2,0.7-7.1,4.1c-2,3.5-3.4,9.2-4.4,17l-0.9-0.1c1-7.9,2.5-13.7,4.5-17.3c2.1-3.8,4.8-5.3,8.1-4.5
		L129.6,151.9z M94,151.4c3.6-0.8,6.5,0.6,8.8,4.2c2.3,3.5,3.9,9.2,5,17.1l-0.9,0.1c-1.1-7.8-2.7-13.3-4.9-16.7
		c-2.1-3.3-4.7-4.5-7.9-3.8L94,151.4z"/>
	<rect x="107" y="179.2" width="0.8" height="82.1"/>
	<rect x="117.4" y="179.4" width="0.8" height="81.2"/>
	<rect x="3.8" y="180.8" width="59.9" height="0.8"/>
	<rect x="169.9" y="180.8" width="48.3" height="0.8"/>
</g>
</svg>
