<svg width="40" height="48" viewBox="0 0 40 48" fill="none" xmlns="http://www.w3.org/2000/svg">
<path d="M15.6285 5.31168C18.2852 3.56277 21.7148 3.56277 24.3715 5.31168L24.832 5.61484C25.8593 6.29109 27.0269 6.71996 28.2445 6.86831L28.7904 6.93482C31.9395 7.31849 34.5667 9.54326 35.4879 12.6064L35.6476 13.1374C36.0038 14.3218 36.6251 15.4077 37.4634 16.3113L37.8392 16.7163C40.0072 19.0531 40.6027 22.4616 39.3574 25.4057L39.1415 25.9161C38.66 27.0545 38.4442 28.2894 38.5109 29.5253L38.5408 30.0794C38.7132 33.2758 36.9985 36.2732 34.1693 37.7207L33.6789 37.9716C32.5849 38.5313 31.6331 39.3373 30.897 40.3274L30.567 40.7712C28.6632 43.3316 25.4405 44.5154 22.3512 43.789L21.8157 43.6631C20.6212 43.3822 19.3788 43.3822 18.1843 43.6631L17.6488 43.789C14.5596 44.5154 11.3368 43.3316 9.43302 40.7712L9.103 40.3274C8.36687 39.3373 7.41506 38.5313 6.32112 37.9716L5.8307 37.7207C3.00155 36.2732 1.28676 33.2758 1.45919 30.0794L1.48908 29.5253C1.55576 28.2894 1.34 27.0545 0.858482 25.9161L0.642612 25.4057C-0.60269 22.4616 -0.00714922 19.0531 2.16082 16.7163L2.53663 16.3113C3.37491 15.4077 3.99616 14.3218 4.35237 13.1374L4.51207 12.6064C5.4333 9.54326 8.06051 7.31849 11.2096 6.93482L11.7555 6.86831C12.9731 6.71996 14.1407 6.29109 15.168 5.61484L15.6285 5.31168Z" fill="#F15757"/>
<path d="M37.3901 24.3706C37.3901 34.0628 29.6046 41.9199 20.0007 41.9199C10.3968 41.9199 2.61133 34.0628 2.61133 24.3706C2.61133 14.6784 10.3968 6.82129 20.0007 6.82129C29.6046 6.82129 37.3901 14.6784 37.3901 24.3706Z" fill="white"/>
<path fill-rule="evenodd" clip-rule="evenodd" d="M20.0007 39.9199C28.4828 39.9199 35.3901 32.9756 35.3901 24.3706C35.3901 15.7657 28.4828 8.82129 20.0007 8.82129C11.5186 8.82129 4.61133 15.7657 4.61133 24.3706C4.61133 32.9756 11.5186 39.9199 20.0007 39.9199ZM20.0007 41.9199C29.6046 41.9199 37.3901 34.0628 37.3901 24.3706C37.3901 14.6784 29.6046 6.82129 20.0007 6.82129C10.3968 6.82129 2.61133 14.6784 2.61133 24.3706C2.61133 34.0628 10.3968 41.9199 20.0007 41.9199Z" fill="#F15757"/>
<path d="M33.4383 20.7708C35.4451 28.2604 31.0558 35.9439 23.6345 37.9325C16.2132 39.921 8.57019 35.4615 6.56337 27.972C4.55654 20.4824 8.94585 12.7989 16.3672 10.8103C23.7885 8.8218 31.4315 13.2813 33.4383 20.7708Z" fill="white"/>
<path fill-rule="evenodd" clip-rule="evenodd" d="M32.4458 26.0522C32.0487 26.1586 31.7565 26.4914 31.6728 26.8938C30.7809 31.1823 27.5854 34.8032 23.1173 36.0004C18.6492 37.1976 14.0714 35.6596 11.1548 32.3916C10.881 32.0849 10.4616 31.9428 10.0645 32.0492V32.0492C9.37188 32.2348 9.07715 33.0523 9.54803 33.5931C12.9417 37.4907 18.3447 39.3498 23.635 37.9323C28.9253 36.5147 32.6749 32.2032 33.665 27.131C33.8024 26.4272 33.1384 25.8666 32.4458 26.0522V26.0522ZM7.36365 26.5613C7.8654 26.4268 8.1777 25.9322 8.12964 25.415C7.59677 19.6803 11.2169 14.2608 16.8853 12.742C22.5536 11.2232 28.3985 14.1065 30.8044 19.3394C31.0213 19.8113 31.5391 20.0835 32.0408 19.949V19.949C32.6087 19.7969 32.9285 19.1901 32.6892 18.6531C29.9315 12.4667 23.0594 9.01707 16.3676 10.8101C9.6758 12.6032 5.4492 19.0267 6.15424 25.7631C6.21544 26.3478 6.79578 26.7134 7.36365 26.5613V26.5613Z" fill="#F15757"/>
<path d="M6.95709 29.7758C6.67121 28.7089 7.30437 27.6122 8.3713 27.3264L31.5535 21.1147C32.6205 20.8288 33.7171 21.462 34.003 22.5289V22.5289C34.2889 23.5958 33.6557 24.6925 32.5888 24.9784L9.40658 31.1901C8.33965 31.4759 7.24297 30.8428 6.95709 29.7758V29.7758Z" fill="#F15757"/>
<path d="M9.39799 23.4281C9.18358 22.6279 9.65846 21.8054 10.4587 21.591L26.8794 17.1911C27.6796 16.9767 28.5021 17.4516 28.7165 18.2518V18.2518C28.9309 19.052 28.456 19.8745 27.6559 20.0889L11.2351 24.4888C10.4349 24.7032 9.61241 24.2283 9.39799 23.4281V23.4281Z" fill="#F15757"/>
</svg>
