<svg width="181" height="48" viewBox="0 0 181 48" fill="none" xmlns="http://www.w3.org/2000/svg">
<path d="M15.6285 5.31168C18.2852 3.56277 21.7148 3.56277 24.3715 5.31168L24.832 5.61484C25.8593 6.29109 27.0269 6.71995 28.2445 6.86831L28.7904 6.93482C31.9395 7.31849 34.5667 9.54326 35.4879 12.6064L35.6476 13.1374C36.0038 14.3218 36.6251 15.4077 37.4634 16.3113L37.8392 16.7163C40.0071 19.0531 40.6027 22.4616 39.3574 25.4057L39.1415 25.9161C38.66 27.0545 38.4442 28.2893 38.5109 29.5253L38.5408 30.0794C38.7132 33.2758 36.9985 36.2732 34.1693 37.7207L33.6789 37.9716C32.5849 38.5313 31.6331 39.3373 30.897 40.3274L30.567 40.7712C28.6632 43.3316 25.4405 44.5154 22.3512 43.789L21.8157 43.6631C20.6212 43.3822 19.3788 43.3822 18.1843 43.6631L17.6488 43.789C14.5596 44.5154 11.3368 43.3316 9.43301 40.7712L9.103 40.3274C8.36687 39.3373 7.41506 38.5313 6.32112 37.9716L5.8307 37.7207C3.00155 36.2732 1.28676 33.2758 1.45919 30.0794L1.48908 29.5253C1.55576 28.2894 1.34 27.0545 0.858481 25.9161L0.642612 25.4057C-0.60269 22.4616 -0.00714906 19.0531 2.16082 16.7163L2.53663 16.3113C3.37491 15.4077 3.99616 14.3218 4.35237 13.1374L4.51206 12.6064C5.4333 9.54326 8.06051 7.31849 11.2096 6.93482L11.7555 6.86831C12.9731 6.71995 14.1407 6.29109 15.168 5.61484L15.6285 5.31168Z" fill="#F15757"/>
<path d="M36.3901 24.3706C36.3901 33.5192 29.0437 40.9199 20.0007 40.9199C10.9577 40.9199 3.61133 33.5192 3.61133 24.3706C3.61133 15.222 10.9577 7.82129 20.0007 7.82129C29.0437 7.82129 36.3901 15.222 36.3901 24.3706Z" fill="white" stroke="#F15757" stroke-width="2"/>
<path d="M33.4383 20.7708C35.4451 28.2604 31.0558 35.9439 23.6345 37.9325C16.2132 39.921 8.57019 35.4615 6.56337 27.972C4.55654 20.4824 8.94585 12.7989 16.3672 10.8103C23.7885 8.8218 31.4315 13.2813 33.4383 20.7708Z" fill="white"/>
<path fill-rule="evenodd" clip-rule="evenodd" d="M32.4458 26.0522C32.0487 26.1586 31.7565 26.4914 31.6728 26.8938C30.7809 31.1823 27.5854 34.8032 23.1173 36.0004C18.6492 37.1976 14.0714 35.6596 11.1548 32.3916C10.881 32.0849 10.4616 31.9428 10.0645 32.0492C9.37188 32.2348 9.07715 33.0523 9.54803 33.5931C12.9417 37.4907 18.3447 39.3498 23.635 37.9323C28.9253 36.5147 32.6749 32.2032 33.665 27.131C33.8024 26.4272 33.1384 25.8666 32.4458 26.0522ZM7.36365 26.5613C7.8654 26.4268 8.1777 25.9322 8.12964 25.415C7.59677 19.6803 11.2169 14.2608 16.8853 12.742C22.5536 11.2232 28.3985 14.1065 30.8044 19.3394C31.0213 19.8113 31.5391 20.0835 32.0408 19.949C32.6087 19.7969 32.9285 19.1901 32.6892 18.6531C29.9315 12.4667 23.0594 9.01707 16.3676 10.8101C9.67579 12.6032 5.4492 19.0267 6.15424 25.7631C6.21544 26.3478 6.79578 26.7134 7.36365 26.5613Z" fill="#F15757"/>
<rect x="6.43945" y="27.844" width="28" height="4" rx="2" transform="rotate(-15 6.43945 27.844)" fill="#F15757"/>
<rect x="9.00977" y="21.9792" width="20" height="3" rx="1.5" transform="rotate(-15 9.00977 21.9792)" fill="#F15757"/>
<path d="M59.2148 26.2812H63.0117C62.9492 27.4531 62.6289 28.4883 62.0508 29.3867C61.4805 30.2773 60.6875 30.9766 59.6719 31.4844C58.6562 31.9844 57.4492 32.2344 56.0508 32.2344C54.9336 32.2344 53.9336 32.043 53.0508 31.6602C52.168 31.2773 51.418 30.7305 50.8008 30.0195C50.1914 29.3008 49.7227 28.4375 49.3945 27.4297C49.0742 26.4141 48.9141 25.2695 48.9141 23.9961V22.9531C48.9141 21.6797 49.082 20.5352 49.418 19.5195C49.7539 18.5039 50.2344 17.6367 50.8594 16.918C51.4844 16.1992 52.2344 15.6484 53.1094 15.2656C53.9844 14.8828 54.9609 14.6914 56.0391 14.6914C57.4922 14.6914 58.7188 14.9531 59.7188 15.4766C60.7188 16 61.4922 16.7188 62.0391 17.6328C62.5938 18.5469 62.9258 19.5898 63.0352 20.7617H59.2266C59.1953 20.0977 59.0703 19.5391 58.8516 19.0859C58.6328 18.625 58.2969 18.2773 57.8438 18.043C57.3906 17.8086 56.7891 17.6914 56.0391 17.6914C55.4922 17.6914 55.0117 17.793 54.5977 17.9961C54.1914 18.1992 53.8516 18.5156 53.5781 18.9453C53.3125 19.375 53.1133 19.9219 52.9805 20.5859C52.8477 21.2422 52.7812 22.0234 52.7812 22.9297V23.9961C52.7812 24.8945 52.8398 25.6719 52.957 26.3281C53.0742 26.9844 53.2617 27.5273 53.5195 27.957C53.7852 28.3867 54.125 28.707 54.5391 28.918C54.9531 29.1289 55.457 29.2344 56.0508 29.2344C56.7305 29.2344 57.2969 29.1289 57.75 28.918C58.2031 28.6992 58.5508 28.3711 58.793 27.9336C59.0352 27.4961 59.1758 26.9453 59.2148 26.2812ZM70.9219 32.2344C69.9141 32.2344 69.0117 32.0742 68.2148 31.7539C67.418 31.4336 66.7422 30.9922 66.1875 30.4297C65.6406 29.8594 65.2227 29.2031 64.9336 28.4609C64.6445 27.7188 64.5 26.9258 64.5 26.082V25.6367C64.5 24.6914 64.6328 23.8203 64.8984 23.0234C65.1641 22.2266 65.5508 21.5352 66.0586 20.9492C66.5742 20.3555 67.207 19.8984 67.957 19.5781C68.707 19.25 69.5625 19.0859 70.5234 19.0859C71.4219 19.0859 72.2227 19.2344 72.9258 19.5312C73.6289 19.8203 74.2227 20.2383 74.707 20.7852C75.1914 21.3242 75.5586 21.9766 75.8086 22.7422C76.0664 23.5 76.1953 24.3516 76.1953 25.2969V26.7969H65.9766V24.4414H72.6094V24.1602C72.6094 23.7148 72.5273 23.3242 72.3633 22.9883C72.207 22.6523 71.9727 22.3945 71.6602 22.2148C71.3555 22.0273 70.9688 21.9336 70.5 21.9336C70.0547 21.9336 69.6836 22.0273 69.3867 22.2148C69.0898 22.4023 68.8516 22.668 68.6719 23.0117C68.5 23.3477 68.375 23.7422 68.2969 24.1953C68.2188 24.6406 68.1797 25.1211 68.1797 25.6367V26.082C68.1797 26.5742 68.2461 27.0234 68.3789 27.4297C68.5117 27.8359 68.707 28.1836 68.9648 28.4727C69.2227 28.7617 69.5352 28.9883 69.9023 29.1523C70.2695 29.3164 70.6875 29.3984 71.1562 29.3984C71.7344 29.3984 72.2852 29.2891 72.8086 29.0703C73.332 28.8438 73.7852 28.4922 74.168 28.0156L75.8789 29.9727C75.6211 30.3477 75.2578 30.7109 74.7891 31.0625C74.3281 31.4062 73.7734 31.6875 73.125 31.9062C72.4766 32.125 71.7422 32.2344 70.9219 32.2344ZM81.6445 22.2734V32H77.9883V19.3203H81.4219L81.6445 22.2734ZM85.4297 19.2266L85.3711 22.6367C85.2148 22.6133 85.0117 22.5938 84.7617 22.5781C84.5117 22.5547 84.2969 22.543 84.1172 22.543C83.6484 22.543 83.2422 22.6016 82.8984 22.7188C82.5625 22.8281 82.2812 22.9922 82.0547 23.2109C81.8359 23.4297 81.6719 23.7031 81.5625 24.0312C81.4531 24.3516 81.3984 24.7227 81.3984 25.1445L80.707 24.8047C80.707 23.9688 80.7891 23.2031 80.9531 22.5078C81.1172 21.8125 81.3555 21.2109 81.668 20.7031C81.9805 20.1875 82.3633 19.7891 82.8164 19.5078C83.2695 19.2266 83.7852 19.0859 84.3633 19.0859C84.5508 19.0859 84.7422 19.0977 84.9375 19.1211C85.1328 19.1445 85.2969 19.1797 85.4297 19.2266ZM93.9609 19.3203V21.8867H86.4375V19.3203H93.9609ZM88.1602 16.1797H91.8281V28.0273C91.8281 28.3789 91.8711 28.6484 91.957 28.8359C92.043 29.0234 92.1836 29.1562 92.3789 29.2344C92.5742 29.3047 92.8242 29.3398 93.1289 29.3398C93.3477 29.3398 93.5352 29.332 93.6914 29.3164C93.8477 29.3008 93.9922 29.2812 94.125 29.2578V31.9062C93.8125 32.0078 93.4805 32.0859 93.1289 32.1406C92.7773 32.2031 92.3945 32.2344 91.9805 32.2344C91.1914 32.2344 90.5078 32.1055 89.9297 31.8477C89.3594 31.5898 88.9219 31.1836 88.6172 30.6289C88.3125 30.0664 88.1602 29.3359 88.1602 28.4375V16.1797ZM99.5742 19.3203V32H95.9062V19.3203H99.5742ZM95.6836 16.0391C95.6836 15.5078 95.8711 15.0742 96.2461 14.7383C96.6211 14.3945 97.1133 14.2227 97.7227 14.2227C98.332 14.2227 98.8242 14.3945 99.1992 14.7383C99.582 15.0742 99.7734 15.5078 99.7734 16.0391C99.7734 16.5625 99.582 16.9961 99.1992 17.3398C98.8242 17.6758 98.332 17.8438 97.7227 17.8438C97.1133 17.8438 96.6211 17.6758 96.2461 17.3398C95.8711 16.9961 95.6836 16.5625 95.6836 16.0391ZM106.758 32H103.078V18.8633C103.078 17.7617 103.305 16.832 103.758 16.0742C104.219 15.3164 104.879 14.7422 105.738 14.3516C106.598 13.9531 107.633 13.7539 108.844 13.7539C109.539 13.7539 110.207 13.8164 110.848 13.9414C111.496 14.0664 112.164 14.2305 112.852 14.4336L112.336 17.3516C111.891 17.2188 111.418 17.0977 110.918 16.9883C110.418 16.8789 109.805 16.8242 109.078 16.8242C108.328 16.8242 107.754 17 107.355 17.3516C106.957 17.6953 106.758 18.1992 106.758 18.8633V32ZM109.254 19.3203V21.8867H101.215V19.3203H109.254ZM114.539 19.3203V32H110.871V19.3203H114.539ZM122.461 29.3867C122.852 29.3867 123.191 29.3125 123.48 29.1641C123.77 29.0156 123.992 28.8086 124.148 28.543C124.312 28.2695 124.395 27.9414 124.395 27.5586H127.84C127.84 28.4805 127.602 29.293 127.125 29.9961C126.656 30.6992 126.023 31.25 125.227 31.6484C124.43 32.0391 123.531 32.2344 122.531 32.2344C121.547 32.2344 120.688 32.0742 119.953 31.7539C119.219 31.4258 118.605 30.9688 118.113 30.3828C117.621 29.7969 117.25 29.1172 117 28.3438C116.758 27.5625 116.637 26.7188 116.637 25.8125V25.5078C116.637 24.6094 116.758 23.7695 117 22.9883C117.25 22.207 117.621 21.5234 118.113 20.9375C118.605 20.3516 119.215 19.8984 119.941 19.5781C120.676 19.25 121.535 19.0859 122.52 19.0859C123.559 19.0859 124.477 19.2852 125.273 19.6836C126.078 20.082 126.707 20.6562 127.16 21.4062C127.613 22.1484 127.84 23.043 127.84 24.0898H124.395C124.395 23.6836 124.32 23.3203 124.172 23C124.031 22.6719 123.812 22.4141 123.516 22.2266C123.227 22.0312 122.867 21.9336 122.438 21.9336C121.992 21.9336 121.625 22.0312 121.336 22.2266C121.055 22.4141 120.84 22.6758 120.691 23.0117C120.543 23.3477 120.441 23.7305 120.387 24.1602C120.332 24.582 120.305 25.0312 120.305 25.5078V25.8125C120.305 26.2969 120.332 26.7578 120.387 27.1953C120.441 27.625 120.543 28.0039 120.691 28.332C120.848 28.6602 121.066 28.918 121.348 29.1055C121.629 29.293 122 29.3867 122.461 29.3867ZM136.371 28.9766V23.5391C136.371 23.1562 136.312 22.8281 136.195 22.5547C136.078 22.2812 135.895 22.0664 135.645 21.9102C135.395 21.7539 135.07 21.6758 134.672 21.6758C134.336 21.6758 134.043 21.7344 133.793 21.8516C133.551 21.9688 133.363 22.1367 133.23 22.3555C133.105 22.5742 133.043 22.8438 133.043 23.1641H129.387C129.387 22.5938 129.516 22.0625 129.773 21.5703C130.031 21.0781 130.398 20.6445 130.875 20.2695C131.359 19.8945 131.938 19.6055 132.609 19.4023C133.281 19.1914 134.035 19.0859 134.871 19.0859C135.863 19.0859 136.746 19.2539 137.52 19.5898C138.301 19.918 138.918 20.4141 139.371 21.0781C139.824 21.7344 140.051 22.5625 140.051 23.5625V28.8711C140.051 29.6367 140.094 30.2383 140.18 30.6758C140.273 31.1055 140.406 31.4805 140.578 31.8008V32H136.887C136.715 31.6328 136.586 31.1797 136.5 30.6406C136.414 30.0938 136.371 29.5391 136.371 28.9766ZM136.828 24.2656L136.852 26.2812H135.035C134.629 26.2812 134.277 26.332 133.98 26.4336C133.691 26.5352 133.457 26.6758 133.277 26.8555C133.098 27.0273 132.965 27.2305 132.879 27.4648C132.801 27.6914 132.762 27.9414 132.762 28.2148C132.762 28.4727 132.824 28.707 132.949 28.918C133.074 29.1211 133.246 29.2812 133.465 29.3984C133.684 29.5156 133.938 29.5742 134.227 29.5742C134.703 29.5742 135.109 29.4805 135.445 29.293C135.789 29.1055 136.055 28.8789 136.242 28.6133C136.43 28.3398 136.523 28.0859 136.523 27.8516L137.402 29.375C137.262 29.6875 137.09 30.0117 136.887 30.3477C136.684 30.6758 136.426 30.9844 136.113 31.2734C135.801 31.5547 135.422 31.7852 134.977 31.9648C134.539 32.1445 134.012 32.2344 133.395 32.2344C132.598 32.2344 131.875 32.0742 131.227 31.7539C130.578 31.4258 130.059 30.9766 129.668 30.4062C129.285 29.8359 129.094 29.1797 129.094 28.4375C129.094 27.7734 129.215 27.1836 129.457 26.668C129.699 26.1523 130.062 25.7148 130.547 25.3555C131.039 24.9961 131.656 24.7266 132.398 24.5469C133.141 24.3594 134.008 24.2656 135 24.2656H136.828ZM149.836 29.1641V14H153.516V32H150.211L149.836 29.1641ZM141.938 25.8125V25.5664C141.938 24.6055 142.043 23.7305 142.254 22.9414C142.473 22.1445 142.789 21.4609 143.203 20.8906C143.625 20.3125 144.145 19.8672 144.762 19.5547C145.379 19.2422 146.086 19.0859 146.883 19.0859C147.617 19.0859 148.258 19.25 148.805 19.5781C149.352 19.8984 149.816 20.3516 150.199 20.9375C150.59 21.5156 150.906 22.1992 151.148 22.9883C151.391 23.7695 151.574 24.6172 151.699 25.5312V25.9531C151.582 26.8281 151.398 27.6445 151.148 28.4023C150.906 29.1602 150.59 29.8281 150.199 30.4062C149.816 30.9766 149.348 31.4258 148.793 31.7539C148.246 32.0742 147.602 32.2344 146.859 32.2344C146.062 32.2344 145.355 32.0742 144.738 31.7539C144.129 31.4336 143.617 30.9844 143.203 30.4062C142.789 29.8281 142.473 29.1484 142.254 28.3672C142.043 27.5859 141.938 26.7344 141.938 25.8125ZM145.594 25.5664V25.8125C145.594 26.3125 145.629 26.7773 145.699 27.207C145.777 27.6367 145.902 28.0156 146.074 28.3438C146.246 28.6719 146.473 28.9297 146.754 29.1172C147.035 29.2969 147.379 29.3867 147.785 29.3867C148.332 29.3867 148.781 29.2617 149.133 29.0117C149.484 28.7539 149.75 28.3984 149.93 27.9453C150.109 27.4922 150.203 26.9648 150.211 26.3633V25.1328C150.211 24.6328 150.16 24.1836 150.059 23.7852C149.957 23.3867 149.805 23.0508 149.602 22.7773C149.406 22.5039 149.16 22.2969 148.863 22.1562C148.566 22.0078 148.215 21.9336 147.809 21.9336C147.41 21.9336 147.07 22.0273 146.789 22.2148C146.508 22.3945 146.277 22.6484 146.098 22.9766C145.926 23.3047 145.797 23.6914 145.711 24.1367C145.633 24.5742 145.594 25.0508 145.594 25.5664ZM155.426 25.7891V25.543C155.426 24.6133 155.559 23.7578 155.824 22.9766C156.09 22.1875 156.48 21.5039 156.996 20.9258C157.512 20.3477 158.145 19.8984 158.895 19.5781C159.645 19.25 160.504 19.0859 161.473 19.0859C162.457 19.0859 163.324 19.25 164.074 19.5781C164.832 19.8984 165.469 20.3477 165.984 20.9258C166.5 21.5039 166.891 22.1875 167.156 22.9766C167.422 23.7578 167.555 24.6133 167.555 25.543V25.7891C167.555 26.7109 167.422 27.5664 167.156 28.3555C166.891 29.1367 166.5 29.8203 165.984 30.4062C165.469 30.9844 164.836 31.4336 164.086 31.7539C163.336 32.0742 162.473 32.2344 161.496 32.2344C160.527 32.2344 159.664 32.0742 158.906 31.7539C158.148 31.4336 157.512 30.9844 156.996 30.4062C156.48 29.8203 156.09 29.1367 155.824 28.3555C155.559 27.5664 155.426 26.7109 155.426 25.7891ZM159.094 25.543V25.7891C159.094 26.2891 159.133 26.7578 159.211 27.1953C159.297 27.6328 159.434 28.0156 159.621 28.3438C159.809 28.6719 160.055 28.9297 160.359 29.1172C160.672 29.2969 161.051 29.3867 161.496 29.3867C161.941 29.3867 162.316 29.2969 162.621 29.1172C162.926 28.9297 163.172 28.6719 163.359 28.3438C163.547 28.0156 163.68 27.6328 163.758 27.1953C163.844 26.7578 163.887 26.2891 163.887 25.7891V25.543C163.887 25.0508 163.844 24.5898 163.758 24.1602C163.68 23.7227 163.547 23.3359 163.359 23C163.172 22.6641 162.922 22.4023 162.609 22.2148C162.305 22.0273 161.926 21.9336 161.473 21.9336C161.035 21.9336 160.664 22.0273 160.359 22.2148C160.055 22.4023 159.809 22.6641 159.621 23C159.434 23.3359 159.297 23.7227 159.211 24.1602C159.133 24.5898 159.094 25.0508 159.094 25.543ZM176.227 28.4727C176.227 28.2383 176.152 28.0312 176.004 27.8516C175.863 27.6719 175.605 27.5078 175.23 27.3594C174.863 27.2109 174.344 27.0625 173.672 26.9141C173.039 26.7812 172.449 26.6094 171.902 26.3984C171.355 26.1797 170.879 25.918 170.473 25.6133C170.066 25.3008 169.75 24.9336 169.523 24.5117C169.297 24.082 169.184 23.5938 169.184 23.0469C169.184 22.5156 169.297 22.0117 169.523 21.5352C169.758 21.0586 170.094 20.6367 170.531 20.2695C170.977 19.9023 171.516 19.6133 172.148 19.4023C172.789 19.1914 173.516 19.0859 174.328 19.0859C175.445 19.0859 176.41 19.2617 177.223 19.6133C178.035 19.957 178.66 20.4414 179.098 21.0664C179.535 21.6836 179.754 22.3906 179.754 23.1875H176.098C176.098 22.8594 176.035 22.5742 175.91 22.332C175.785 22.0898 175.594 21.9023 175.336 21.7695C175.078 21.6289 174.738 21.5586 174.316 21.5586C173.988 21.5586 173.699 21.6172 173.449 21.7344C173.207 21.8438 173.016 21.9961 172.875 22.1914C172.742 22.3867 172.676 22.6133 172.676 22.8711C172.676 23.0508 172.715 23.2148 172.793 23.3633C172.879 23.5039 173.008 23.6367 173.18 23.7617C173.359 23.8789 173.59 23.9844 173.871 24.0781C174.16 24.1719 174.512 24.2617 174.926 24.3477C175.809 24.5117 176.613 24.7422 177.34 25.0391C178.074 25.3359 178.66 25.7461 179.098 26.2695C179.543 26.793 179.766 27.4844 179.766 28.3438C179.766 28.9062 179.637 29.4219 179.379 29.8906C179.129 30.3594 178.766 30.7695 178.289 31.1211C177.812 31.4727 177.242 31.7461 176.578 31.9414C175.914 32.1367 175.164 32.2344 174.328 32.2344C173.133 32.2344 172.121 32.0195 171.293 31.5898C170.465 31.1602 169.84 30.6211 169.418 29.9727C169.004 29.3164 168.797 28.6445 168.797 27.957H172.23C172.246 28.3789 172.352 28.7227 172.547 28.9883C172.75 29.2539 173.012 29.4492 173.332 29.5742C173.652 29.6914 174.012 29.75 174.41 29.75C174.809 29.75 175.141 29.6953 175.406 29.5859C175.672 29.4766 175.875 29.3281 176.016 29.1406C176.156 28.9453 176.227 28.7227 176.227 28.4727Z" fill="black"/>
</svg>
