<svg width="571" height="571" viewBox="0 0 571 571" fill="none" xmlns="http://www.w3.org/2000/svg">
<g clip-path="url(#clip0_376_324)">
<path d="M166.179 490.423C166.075 492.871 164.256 494.096 162.472 494.096C160.898 494.096 158.869 493.081 158.869 490.283C158.869 487.485 161.423 486.505 162.577 486.505C165.235 486.505 166.179 489.199 166.179 490.423Z" fill="#EFEFEF"/>
<path d="M411.198 490.423C411.093 492.871 409.274 494.096 407.49 494.096C405.916 494.096 403.888 493.081 403.888 490.283C403.888 487.485 406.441 486.505 407.595 486.505C410.254 486.505 411.198 489.199 411.198 490.423Z" fill="#EFEFEF"/>
<path d="M450.443 119.029L463.77 113.853L458.138 126.969L450.443 118.994V119.029ZM431.31 117.84C430.751 118.365 430.401 118.994 430.191 119.659C429.981 120.323 429.981 121.023 430.156 121.723C430.331 122.422 430.646 123.052 431.17 123.611C431.8 124.276 432.534 124.696 433.374 124.871C434.213 125.045 435.053 124.976 435.927 124.626L442.573 122.072L454.78 134.699L452.122 140.995C451.737 141.94 451.597 142.814 451.702 143.689C451.807 144.563 452.192 145.368 452.891 146.102C453.451 146.662 454.081 147.046 454.78 147.221C455.48 147.431 456.179 147.431 456.914 147.221C457.613 147.046 458.278 146.697 458.838 146.137C459.048 145.927 459.222 145.717 459.362 145.438C459.502 145.193 459.642 144.878 459.782 144.563L472.724 112.733C473.179 111.614 473.318 110.565 473.179 109.515C473.039 108.466 472.549 107.522 471.709 106.647L471.36 106.262C470.52 105.423 469.576 104.863 468.561 104.688C467.512 104.479 466.428 104.584 465.309 105.003L433.024 116.826C432.709 116.931 432.394 117.071 432.08 117.21C431.8 117.35 431.52 117.525 431.31 117.735V117.84ZM394.968 91.1171C394.514 91.7816 394.234 92.4812 394.199 93.2507C394.129 93.9852 394.269 94.6848 394.584 95.3844C394.898 96.0489 395.388 96.6436 396.018 97.0983C396.682 97.553 397.382 97.8328 398.151 97.8678C398.886 97.9377 399.62 97.7978 400.285 97.518C400.984 97.2032 401.544 96.7135 401.999 96.0839L413.367 79.8193L412.877 93.7404C412.877 94.5799 412.982 95.3144 413.227 95.979C413.507 96.6436 413.961 97.2032 414.591 97.6579C415.255 98.1126 415.92 98.3575 416.655 98.3575C417.354 98.3575 418.089 98.2525 418.858 97.9377L431.975 92.6211L420.572 108.921C420.117 109.585 419.872 110.285 419.802 111.054C419.733 111.824 419.872 112.558 420.187 113.258C420.502 113.958 420.957 114.552 421.621 115.007C422.321 115.462 423.02 115.741 423.79 115.811C424.559 115.881 425.259 115.741 425.959 115.427C426.658 115.112 427.218 114.622 427.707 113.958L445.896 87.9691C446.351 87.2695 446.63 86.57 446.7 85.8005C446.77 85.0309 446.63 84.2964 446.316 83.6318C446.001 82.9323 445.511 82.3377 444.812 81.8829L444.007 81.3233C443.273 80.8336 442.573 80.5188 441.803 80.4489C441.069 80.3789 440.299 80.5188 439.495 80.8686L420.817 88.9484L422.041 68.6963C422.111 67.9268 421.971 67.1573 421.691 66.4578C421.376 65.7232 420.852 65.0936 420.082 64.534L419.278 63.9743C418.578 63.5196 417.879 63.2398 417.109 63.1698C416.34 63.0999 415.605 63.2398 414.941 63.5546C414.241 63.8694 413.646 64.3591 413.157 65.0237L394.898 91.0821L394.968 91.1171ZM371.078 76.8461C369.435 76.2165 368.035 75.3071 366.881 74.1529C365.727 72.9986 364.887 71.7044 364.293 70.2703C363.698 68.8363 363.383 67.2622 363.383 65.6533C363.383 64.0443 363.663 62.4353 364.293 60.8263V60.7214C364.957 59.1124 365.797 57.7133 366.881 56.5241C367.965 55.3348 369.19 54.3904 370.589 53.7259C371.988 53.0613 373.492 52.6765 375.066 52.6066C376.675 52.5366 378.284 52.8164 379.963 53.446C381.607 54.0756 383.006 54.9851 384.16 56.1393C385.314 57.2936 386.154 58.5878 386.749 60.0568C387.343 61.5259 387.658 63.0649 387.658 64.6739C387.658 66.2829 387.343 67.9268 386.749 69.5358V69.6407C386.084 71.2497 385.245 72.6488 384.16 73.8381C383.076 75.0273 381.852 75.9717 380.453 76.6363C379.053 77.3358 377.549 77.6856 375.975 77.7905C374.366 77.8605 372.757 77.5807 371.078 76.9511V76.8461ZM368.07 84.3664C370.379 85.2408 372.687 85.7305 374.926 85.8704C377.2 86.0103 379.368 85.7655 381.467 85.2408C383.566 84.6812 385.489 83.8417 387.308 82.6874C389.092 81.5332 390.666 80.1341 392.065 78.4202C393.429 76.7412 394.514 74.8524 395.353 72.7188V72.6138C396.193 70.4802 396.682 68.3466 396.787 66.1779C396.892 64.0093 396.682 61.9107 396.123 59.8819C395.563 57.8183 394.688 55.9295 393.534 54.1106C392.345 52.3268 390.876 50.7178 389.127 49.2837C387.378 47.8846 385.349 46.7303 383.041 45.8209C380.732 44.9464 378.459 44.4568 376.185 44.3168C373.912 44.1769 371.743 44.4218 369.644 44.9814C367.546 45.5411 365.622 46.3805 363.838 47.5348C362.054 48.6891 360.48 50.0882 359.081 51.7671C357.717 53.446 356.633 55.3348 355.793 57.4685V57.5734C354.954 59.7071 354.499 61.8407 354.359 64.0093C354.254 66.1779 354.464 68.2416 355.024 70.3053C355.583 72.369 356.458 74.2578 357.612 76.0766C358.801 77.8605 360.27 79.4695 362.019 80.8686C363.768 82.2677 365.797 83.422 368.105 84.3314L368.07 84.3664ZM309.238 63.9743C309.098 64.7788 309.168 65.5134 309.448 66.2479C309.728 66.9474 310.147 67.5421 310.707 68.0667C311.267 68.5564 311.966 68.8712 312.771 69.0111C313.575 69.151 314.31 69.0811 315.009 68.8013C315.709 68.5214 316.338 68.1017 316.828 67.5421C317.318 66.9824 317.632 66.2829 317.772 65.4784L321.48 44.4218L334.772 70.1654C335.086 70.76 335.401 71.2497 335.751 71.7044C336.101 72.1591 336.555 72.5439 337.045 72.8237C337.535 73.1385 338.129 73.3484 338.829 73.4533H339.109C339.913 73.6282 340.683 73.5582 341.417 73.3134C342.117 73.0336 342.747 72.6138 343.236 72.0542C343.726 71.4596 344.041 70.795 344.216 69.9555L349.742 38.6854C349.882 37.8809 349.812 37.1464 349.532 36.4469C349.252 35.7473 348.833 35.1527 348.273 34.628C347.713 34.1383 347.014 33.8235 346.209 33.6836C345.405 33.5437 344.67 33.6137 343.971 33.8935C343.271 34.1733 342.677 34.593 342.152 35.1527C341.662 35.7123 341.347 36.4119 341.173 37.2164L337.605 57.5035L324.768 32.6693C324.488 32.1096 324.138 31.5849 323.789 31.1302C323.404 30.6755 322.984 30.2908 322.494 30.011C322.005 29.7311 321.41 29.4863 320.711 29.3814L319.801 29.2065C318.997 29.0666 318.227 29.1365 317.493 29.4163C316.758 29.6962 316.163 30.1159 315.674 30.6755C315.184 31.2702 314.834 31.9697 314.694 32.7742L309.168 64.0443L309.238 63.9743ZM281.151 23.9598C281.78 23.9598 282.375 23.8898 282.935 23.7849C283.494 23.68 284.019 23.4701 284.509 23.1903C285.033 22.9105 285.558 22.4907 286.083 22.001L289.545 18.6432C289.895 18.3284 290.175 18.0136 290.35 17.6638C290.56 17.314 290.665 16.9643 290.63 16.5795C290.63 16.2297 290.455 15.9149 290.175 15.6351C289.86 15.3203 289.475 15.0405 288.986 14.7956C288.496 14.5508 287.971 14.3759 287.412 14.236C286.852 14.0961 286.292 14.0261 285.768 14.0261C285.068 14.0261 284.439 14.236 283.879 14.5858C283.354 14.9355 282.9 15.4252 282.55 16.0199L279.507 20.9867C279.367 21.2315 279.227 21.4764 279.122 21.7562C279.017 22.036 278.947 22.2809 278.947 22.5607C278.947 23.0154 279.192 23.3652 279.577 23.645C279.961 23.8898 280.486 24.0298 281.116 24.0298L281.151 23.9598ZM282.06 59.812C280.276 59.812 278.667 59.5322 277.163 58.9026C275.694 58.273 274.4 57.3985 273.281 56.2443C272.196 55.125 271.322 53.7958 270.727 52.2918C270.098 50.7877 269.783 49.1788 269.748 47.4648V47.3599C269.748 45.646 269.993 44.037 270.552 42.533C271.112 41.0289 271.917 39.6998 272.931 38.5455C273.98 37.3913 275.239 36.4818 276.674 35.8173C278.143 35.1527 279.752 34.8029 281.5 34.7679C283.284 34.7679 284.893 35.0477 286.397 35.6773C287.866 36.3069 289.161 37.1814 290.28 38.3357C291.399 39.4899 292.239 40.7841 292.833 42.2881C293.463 43.7922 293.778 45.4012 293.813 47.1151V47.22C293.813 48.9339 293.568 50.5779 293.008 52.0819C292.449 53.586 291.679 54.9151 290.63 56.0694C289.58 57.2236 288.356 58.1331 286.887 58.7976C285.418 59.4622 283.809 59.812 282.06 59.847V59.812ZM282.06 67.9268C284.544 67.8918 286.852 67.4721 288.986 66.7376C291.119 66.0031 293.078 64.9887 294.792 63.6945C296.506 62.4003 298.01 60.8963 299.234 59.1474C300.458 57.3985 301.403 55.5097 302.032 53.446C302.662 51.3824 302.977 49.2137 302.942 46.9402V46.8352C302.872 44.5617 302.522 42.3931 301.823 40.3644C301.123 38.3357 300.109 36.4469 298.849 34.7679C297.555 33.089 296.051 31.6199 294.302 30.3957C292.518 29.1715 290.56 28.2271 288.391 27.5975C286.222 26.9679 283.914 26.6531 281.465 26.6881C278.982 26.723 276.709 27.1428 274.54 27.8773C272.406 28.6118 270.448 29.6262 268.734 30.9204C267.02 32.2145 265.516 33.7186 264.291 35.4675C263.067 37.2164 262.123 39.1052 261.458 41.1689C260.829 43.2325 260.514 45.4012 260.549 47.6747V47.7796C260.584 50.0532 260.969 52.2218 261.668 54.2505C262.368 56.2792 263.382 58.1331 264.641 59.847C265.935 61.5259 267.439 62.995 269.223 64.2192C270.972 65.4434 272.966 66.3878 275.1 67.0174C277.268 67.647 279.577 67.9618 282.06 67.9268ZM238.933 68.0667C239.072 68.8712 239.422 69.5708 239.912 70.1654C240.402 70.76 240.996 71.1798 241.731 71.4246C242.43 71.7044 243.2 71.7744 244.039 71.6345C244.844 71.4946 245.543 71.1448 246.138 70.6551C246.733 70.1654 247.152 69.5708 247.432 68.8362C247.677 68.1367 247.747 67.3672 247.642 66.5627L242.815 39.2101L251.14 37.741C251.874 37.6011 252.504 37.2863 253.064 36.8316C253.588 36.3769 254.008 35.8173 254.253 35.1527C254.498 34.4881 254.568 33.7885 254.428 33.054C254.288 32.3195 254.008 31.6899 253.518 31.1302C253.064 30.6056 252.504 30.2208 251.839 29.941C251.175 29.6962 250.475 29.6262 249.741 29.7661L224.487 34.2083C223.752 34.3482 223.123 34.628 222.563 35.1177C222.038 35.5724 221.619 36.1321 221.374 36.7966C221.129 37.4612 221.059 38.1608 221.164 38.8953C221.304 39.6298 221.619 40.2594 222.073 40.8191C222.528 41.3437 223.088 41.7635 223.752 42.0083C224.417 42.2532 225.116 42.3231 225.851 42.2182L234.176 40.7491L239.003 68.1017L238.933 68.0667ZM208.292 81.6731C210.81 80.7287 212.909 79.5045 214.658 78.0354C216.407 76.5663 217.701 74.8524 218.61 72.9286C219.52 71.0049 219.94 68.8013 219.87 66.4228C219.835 64.0443 219.24 61.421 218.191 58.5878L211.58 41.3437C211.265 40.5742 210.81 39.9446 210.216 39.4549C209.621 38.9653 208.957 38.6854 208.187 38.5455C207.418 38.4406 206.683 38.5455 205.879 38.7904C205.109 39.1052 204.479 39.5599 204.025 40.1545C203.535 40.7491 203.255 41.4487 203.115 42.1832C202.975 42.9527 203.08 43.7222 203.36 44.4917L210.111 62.0506C210.845 64.0093 211.16 65.7932 211.055 67.3672C210.915 68.9412 210.391 70.3053 209.446 71.4246C208.502 72.5439 207.208 73.4533 205.529 74.0829C203.85 74.7125 202.276 74.9224 200.807 74.7125C199.338 74.4677 198.044 73.8031 196.889 72.6838C195.7 71.5645 194.756 69.9905 193.951 67.9618L187.305 50.6478C186.991 49.8783 186.536 49.2487 185.941 48.759C185.347 48.2693 184.682 47.9895 183.913 47.8496C183.143 47.7447 182.409 47.8146 181.604 48.0944C180.835 48.4092 180.205 48.864 179.75 49.4236C179.261 50.0182 178.981 50.7178 178.841 51.4523C178.701 52.2218 178.806 52.9563 179.086 53.7608L185.801 71.2847C187.235 74.9224 189.054 77.7556 191.293 79.6794C193.531 81.6381 196.085 82.7924 198.953 83.1072C201.821 83.422 204.934 82.9323 208.292 81.6381V81.6731ZM158.379 87.6892L156.105 73.5932L167.788 81.848L158.414 87.7242L158.379 87.6892ZM153.237 106.158C153.657 106.822 154.181 107.312 154.811 107.627C155.441 107.941 156.105 108.116 156.805 108.116C157.504 108.116 158.204 107.906 158.834 107.487C159.603 106.997 160.163 106.367 160.512 105.563C160.862 104.793 160.967 103.954 160.827 103.01L159.708 95.979L174.608 86.6749L180.205 90.5574C181.044 91.1171 181.884 91.4669 182.758 91.5368C183.633 91.6417 184.507 91.3969 185.382 90.8722C186.046 90.4525 186.536 89.9278 186.886 89.2633C187.235 88.5987 187.375 87.9341 187.34 87.1996C187.34 86.465 187.096 85.7655 186.676 85.1009C186.536 84.8561 186.361 84.6462 186.116 84.4363C185.906 84.2264 185.626 84.0516 185.347 83.8417L156.875 64.569C155.895 63.9044 154.881 63.5196 153.832 63.4497C152.782 63.3797 151.768 63.6595 150.754 64.2891L150.334 64.569C149.32 65.1986 148.62 66.038 148.2 66.9824C147.781 67.9618 147.676 69.0461 147.816 70.2354L152.677 104.269C152.712 104.618 152.782 104.933 152.852 105.248C152.922 105.563 153.062 105.843 153.202 106.123L153.237 106.158ZM116.615 134.524L99.3014 117.805L104.023 112.908C105.283 111.614 106.647 110.635 108.081 110.005C109.515 109.375 110.984 109.026 112.523 108.991C114.027 108.991 115.496 109.271 116.965 109.865C118.434 110.46 119.763 111.404 121.058 112.628L121.128 112.698C122.387 113.923 123.366 115.252 124.031 116.686C124.66 118.12 125.01 119.554 125.045 121.058C125.045 122.562 124.765 124.031 124.171 125.5C123.541 126.969 122.632 128.333 121.372 129.628L116.65 134.524H116.615ZM113.048 143.304C113.642 143.864 114.307 144.248 115.076 144.423C115.811 144.598 116.545 144.598 117.28 144.423C118.014 144.213 118.679 143.829 119.239 143.234L127.004 135.189C128.753 133.37 130.152 131.446 131.166 129.453C132.215 127.459 132.88 125.395 133.23 123.297C133.58 121.198 133.58 119.134 133.23 117.106C132.915 115.077 132.25 113.118 131.271 111.229C130.292 109.375 128.997 107.662 127.389 106.088L127.319 106.018C125.29 104.059 123.051 102.625 120.603 101.68C118.154 100.736 115.636 100.316 113.048 100.456C110.459 100.561 107.906 101.191 105.388 102.38C102.869 103.534 100.526 105.283 98.322 107.522L90.557 115.567C89.9973 116.161 89.6126 116.826 89.4377 117.56C89.2628 118.295 89.2628 119.064 89.4726 119.764C89.6825 120.498 90.0673 121.163 90.6619 121.758L113.048 143.374V143.304ZM85.3802 161.912L77.3354 150.09L91.3964 152.643L85.3802 161.912ZM88.5282 180.835C89.1928 181.255 89.8574 181.465 90.557 181.5C91.2565 181.535 91.9211 181.395 92.5857 181.08C93.2153 180.765 93.7399 180.31 94.1946 179.646C94.6843 178.876 94.9292 178.072 94.8942 177.197C94.8942 176.358 94.6144 175.553 94.0897 174.749L90.1022 168.838L99.6861 154.112L106.402 155.266C107.381 155.441 108.291 155.371 109.13 155.091C109.97 154.812 110.669 154.252 111.229 153.377C111.649 152.713 111.858 152.013 111.893 151.279C111.893 150.544 111.788 149.88 111.439 149.215C111.124 148.551 110.599 148.026 109.97 147.571C109.725 147.431 109.48 147.291 109.165 147.186C108.885 147.081 108.57 147.012 108.221 146.977L74.2923 141.52C73.1031 141.345 72.0187 141.415 71.0743 141.8C70.095 142.185 69.2905 142.884 68.6259 143.864L68.3461 144.283C67.7165 145.298 67.4017 146.312 67.4367 147.396C67.4716 148.446 67.8214 149.495 68.486 150.509L87.2691 179.296C87.4439 179.576 87.6538 179.856 87.8637 180.1C88.0735 180.345 88.3184 180.555 88.5632 180.73L88.5282 180.835ZM73.0681 206.124L50.7523 197.1L53.3056 190.804C54.0052 189.125 54.8796 187.726 55.964 186.571C57.0483 185.417 58.3075 184.543 59.7066 183.983C61.0707 183.388 62.5748 183.109 64.1488 183.144C65.7227 183.144 67.3317 183.493 68.9757 184.158H69.0806C70.7246 184.892 72.1237 185.732 73.243 186.816C74.3623 187.9 75.2367 189.125 75.7963 190.489C76.391 191.888 76.6708 193.357 76.6358 194.931C76.6358 196.505 76.2511 198.149 75.5865 199.828L73.0331 206.124H73.0681ZM73.0681 215.603C73.8376 215.918 74.6071 215.988 75.3416 215.883C76.1111 215.778 76.7757 215.498 77.4053 215.008C77.9999 214.554 78.4547 213.924 78.8044 213.154L83.0018 202.801C83.9462 200.458 84.5058 198.184 84.7157 195.91C84.9255 193.672 84.7856 191.503 84.3309 189.44C83.8762 187.376 83.1067 185.452 82.0224 183.703C80.9381 181.919 79.6089 180.38 77.9999 178.981C76.391 177.617 74.5371 176.533 72.4385 175.658H72.3335C69.7102 174.574 67.0869 174.084 64.4985 174.119C61.8752 174.154 59.3918 174.714 57.0483 175.798C54.6698 176.882 52.5361 178.422 50.6473 180.45C48.7585 182.479 47.2195 184.962 45.9953 187.865L41.798 198.219C41.4832 198.988 41.4132 199.758 41.5181 200.492C41.6231 201.262 41.9029 201.927 42.3926 202.521C42.8823 203.151 43.4769 203.605 44.2464 203.92L73.1031 215.568L73.0681 215.603ZM69.3954 232.112C70.1999 232.322 70.9694 232.357 71.7039 232.147C72.4385 231.972 73.1031 231.623 73.6277 231.063C74.1874 230.538 74.5721 229.874 74.817 229.104C75.0268 228.3 75.0618 227.53 74.8519 226.796C74.6771 226.061 74.3273 225.397 73.7676 224.837C73.243 224.277 72.5784 223.893 71.7739 223.648L41.2033 214.868C40.3989 214.658 39.6293 214.623 38.8948 214.833C38.1603 215.043 37.4957 215.393 36.9361 215.918C36.3764 216.442 35.9917 217.107 35.7468 217.876C35.537 218.681 35.502 219.45 35.7118 220.185C35.8867 220.919 36.2715 221.584 36.7962 222.109C37.3208 222.668 37.9854 223.053 38.7899 223.298L69.3604 232.077L69.3954 232.112ZM70.1999 253.134C70.5147 251 70.5147 249.007 70.1999 247.153C69.9201 245.299 69.3255 243.655 68.486 242.221C67.6465 240.787 66.4923 239.598 65.0582 238.688C63.6591 237.779 61.9452 237.184 59.9864 236.904H59.8815C58.1676 236.659 56.6285 236.729 55.2994 237.079C53.9702 237.464 52.746 238.129 51.6967 239.038C50.6473 239.982 49.668 241.172 48.7935 242.641C47.9191 244.11 47.0796 245.824 46.2751 247.747C45.6105 249.391 45.0159 250.721 44.4913 251.805C43.9666 252.854 43.4769 253.694 43.0222 254.253C42.5675 254.848 42.0778 255.233 41.5881 255.408C41.0984 255.582 40.5388 255.652 39.8742 255.547H39.7693C39.1047 255.442 38.58 255.163 38.0903 254.708C37.6356 254.253 37.2858 253.624 37.111 252.819C36.9011 252.015 36.9011 251.07 37.041 249.951C37.2159 248.587 37.6706 247.258 38.3002 245.964C38.9648 244.634 39.8042 243.34 40.8536 242.011C41.0984 241.696 41.3083 241.381 41.4482 241.032C41.5881 240.682 41.693 240.297 41.763 239.877C41.8679 239.108 41.763 238.408 41.5181 237.744C41.2383 237.079 40.8536 236.52 40.2939 236.1C39.7343 235.645 39.1047 235.365 38.3352 235.26C37.7755 235.19 37.2509 235.225 36.7612 235.33C36.3065 235.47 35.8867 235.645 35.502 235.89C35.1522 236.135 34.8374 236.415 34.5926 236.694C33.1934 238.303 32.0742 240.122 31.1647 242.116C30.2553 244.11 29.6607 246.313 29.3109 248.727C29.0311 250.755 29.0661 252.644 29.3809 254.428C29.6957 256.177 30.2903 257.751 31.1647 259.15C32.0392 260.514 33.1585 261.669 34.5226 262.543C35.8867 263.417 37.4607 263.977 39.2796 264.257H39.3845C41.3433 264.537 43.0222 264.467 44.4213 264.012C45.8204 263.592 47.0446 262.858 48.094 261.843C49.1433 260.829 50.0877 259.535 50.8922 258.031C51.7317 256.527 52.5361 254.778 53.3056 252.854C53.9702 251.28 54.5299 249.986 55.0545 249.007C55.5792 247.992 56.0689 247.258 56.5236 246.733C56.9783 246.208 57.468 245.894 57.9227 245.719C58.4124 245.579 58.9021 245.544 59.4268 245.614H59.5317C60.686 245.789 61.5254 246.453 62.0501 247.538C62.5748 248.622 62.7147 250.056 62.4698 251.875C62.19 253.799 61.6304 255.547 60.7559 257.121C59.8815 258.695 58.7972 260.165 57.468 261.494C57.2232 261.738 56.9783 262.053 56.7684 262.438C56.5586 262.823 56.4187 263.312 56.3137 263.872C56.2088 264.642 56.3137 265.341 56.5586 266.006C56.8384 266.67 57.2232 267.23 57.7828 267.65C58.3424 268.104 58.972 268.384 59.7416 268.489C60.4411 268.559 61.0707 268.489 61.7003 268.279C62.3299 268.069 62.8196 267.755 63.2393 267.3C64.4985 265.971 65.5828 264.537 66.5272 263.033C67.4716 261.494 68.2411 259.885 68.8008 258.241C69.3954 256.562 69.8152 254.883 70.06 253.134H70.1999ZM46.9047 297.416L35.432 297.626L35.2921 288.916C35.2921 287.482 35.467 286.258 35.8518 285.209C36.2715 284.159 36.9011 283.355 37.7056 282.795C38.545 282.235 39.5944 281.921 40.8536 281.886H40.9585C42.0778 281.886 43.0921 282.131 43.9316 282.62C44.7711 283.145 45.4706 283.879 45.9603 284.859C46.45 285.873 46.6949 287.062 46.7298 288.496L46.8697 297.381L46.9047 297.416ZM63.5541 305.915C64.3936 305.915 65.1281 305.671 65.7577 305.286C66.4223 304.901 66.947 304.376 67.2967 303.677C67.6815 303.012 67.8564 302.278 67.8564 301.438C67.8564 300.599 67.6115 299.864 67.2268 299.235C66.842 298.57 66.2824 298.045 65.6178 297.696C64.9532 297.346 64.2187 297.136 63.3792 297.136L54.6698 297.276L54.5648 290.245L65.2331 281.501C65.8976 280.976 66.4223 280.382 66.842 279.682C67.2618 278.983 67.4367 278.143 67.4367 277.129C67.4367 276.429 67.2268 275.73 66.912 275.135C66.5622 274.505 66.1075 274.016 65.4779 273.631C64.8483 273.246 64.1488 273.071 63.3443 273.071C62.6797 273.071 62.0851 273.211 61.5604 273.491C61.0357 273.771 60.5111 274.121 59.9864 274.54L52.6761 280.766C51.9765 279.157 51.1021 277.758 49.9478 276.569C48.8285 275.415 47.4644 274.505 45.8904 273.876C44.3164 273.246 42.4625 272.966 40.3639 272.966H40.259C38.3702 273.001 36.6562 273.316 35.1172 273.946C33.5782 274.54 32.284 275.45 31.1647 276.569C29.8706 277.898 28.8912 279.542 28.2266 281.501C27.562 283.46 27.2472 285.733 27.3172 288.252L27.562 302.103C27.562 302.942 27.8069 303.677 28.1916 304.306C28.5764 304.971 29.136 305.496 29.8006 305.845C30.4652 306.23 31.2347 306.405 32.0392 306.405L63.5191 305.845L63.5541 305.915ZM72.6483 336.381L68.7658 314.31C68.6259 313.576 68.3461 312.981 67.8914 312.456C67.4367 311.932 66.912 311.547 66.2824 311.302C65.6528 311.057 64.9882 310.987 64.2537 311.092C63.5541 311.232 62.9245 311.512 62.3999 311.967C61.8752 312.421 61.4904 312.946 61.2456 313.611C61.0008 314.275 60.9308 314.94 61.0707 315.674L64.2187 333.478L55.964 334.947L53.3056 319.941C53.1657 319.207 52.8859 318.612 52.4312 318.088C51.9765 317.563 51.4518 317.178 50.8222 316.933C50.1926 316.689 49.5281 316.619 48.7935 316.758C48.059 316.898 47.4644 317.178 46.9397 317.633C46.415 318.088 46.0303 318.612 45.7854 319.242C45.5406 319.906 45.4706 320.571 45.6105 321.306L48.2689 336.311L40.2939 337.71L37.2159 320.186C37.076 319.452 36.7962 318.857 36.3414 318.332C35.8867 317.808 35.3621 317.423 34.7325 317.178C34.1029 316.933 33.4383 316.863 32.7038 317.003C32.0042 317.143 31.3746 317.423 30.8499 317.878C30.3253 318.332 29.9405 318.857 29.6957 319.522C29.4508 320.186 29.3809 320.851 29.5208 321.585L33.3683 343.377C33.5082 344.181 33.858 344.881 34.3477 345.475C34.8374 346.07 35.467 346.49 36.1666 346.734C36.9011 347.014 37.6706 347.084 38.4751 346.944L69.1506 341.523C69.9551 341.383 70.6546 341.033 71.2492 340.543C71.8439 340.054 72.2636 339.459 72.5434 338.724C72.7883 338.025 72.8582 337.255 72.7183 336.416L72.6483 336.381ZM82.3022 362.649L82.0923 362.125C81.6726 361.005 81.008 360.166 80.1336 359.606C79.2591 359.047 78.2448 358.767 77.0555 358.732L43.1971 357.752C42.9173 357.752 42.6025 357.752 42.2527 357.752C41.9029 357.787 41.5531 357.857 41.2383 357.997C40.5038 358.277 39.8742 358.732 39.4195 359.326C38.9648 359.921 38.6849 360.586 38.58 361.32C38.4751 362.055 38.58 362.789 38.8249 363.559C39.1047 364.223 39.4545 364.748 39.8742 365.203C40.3289 365.622 40.8186 365.972 41.3433 366.182C41.8679 366.392 42.3926 366.532 42.9173 366.532L70.9344 366.602L50.4025 385.175C49.9128 385.595 49.563 386.084 49.2482 386.644C48.9684 387.204 48.7935 387.798 48.7585 388.428C48.7236 389.057 48.8285 389.757 49.1083 390.457C49.4231 391.226 49.8429 391.856 50.4375 392.31C51.0321 392.8 51.6967 393.115 52.4312 393.22C53.1657 393.36 53.9353 393.29 54.7048 392.975C55.0545 392.835 55.3693 392.66 55.6492 392.45C55.929 392.24 56.2088 391.996 56.4886 391.751L80.7632 368.561C81.6026 367.756 82.1623 366.847 82.4421 365.832C82.7219 364.853 82.652 363.804 82.2323 362.684L82.3022 362.649ZM91.0466 393.29C91.7812 392.905 92.3758 392.415 92.7955 391.786C93.2153 391.156 93.4601 390.457 93.5301 389.687C93.6 388.918 93.4601 388.183 93.1103 387.414C92.7256 386.679 92.2359 386.084 91.6063 385.665C90.9767 385.245 90.2771 385 89.5076 384.93C88.7381 384.895 88.0036 385.035 87.2341 385.385L58.6223 399.341C57.8877 399.726 57.2931 400.215 56.8734 400.845C56.4536 401.475 56.2088 402.174 56.1388 402.944C56.0689 403.713 56.2438 404.448 56.5936 405.182C56.9783 405.917 57.468 406.511 58.0976 406.931C58.7272 407.351 59.4268 407.596 60.1963 407.666C60.9658 407.736 61.7353 407.561 62.4698 407.211L91.0816 393.255L91.0466 393.29ZM115.181 429.317C115.846 428.827 116.336 428.268 116.65 427.568C116.965 426.868 117.105 426.169 117.035 425.399C116.965 424.665 116.72 423.93 116.266 423.266C115.776 422.601 115.216 422.111 114.517 421.797C113.817 421.482 113.118 421.342 112.348 421.412C111.614 421.482 110.879 421.727 110.214 422.181L92.6906 434.459L101.505 406.861C101.68 406.232 101.855 405.637 101.89 405.077C101.96 404.483 101.89 403.923 101.785 403.363C101.645 402.804 101.4 402.244 100.98 401.649L100.805 401.405C100.316 400.74 99.7211 400.25 99.0216 399.901C98.322 399.586 97.6225 399.446 96.853 399.516C96.0834 399.586 95.3839 399.831 94.6843 400.32L68.6609 418.544C67.9963 418.998 67.5066 419.593 67.2268 420.293C66.912 420.992 66.8071 421.692 66.842 422.461C66.912 423.196 67.1568 423.93 67.6115 424.595C68.1012 425.259 68.6609 425.749 69.3604 426.064C70.06 426.379 70.7595 426.519 71.5291 426.449C72.2636 426.379 72.9981 426.134 73.6627 425.679L90.522 413.857L82.0224 440.475C81.8125 441.069 81.7076 441.699 81.6376 442.259C81.5677 442.818 81.6376 443.413 81.7426 443.973C81.8825 444.532 82.1273 445.127 82.5471 445.686L83.0717 446.421C83.5614 447.086 84.156 447.575 84.8206 447.89C85.5202 448.205 86.2547 448.345 86.9892 448.275C87.7587 448.205 88.4933 447.96 89.1578 447.47L115.181 429.247V429.317ZM136.378 443.553C134.454 441.699 132.46 440.265 130.397 439.32C128.333 438.376 126.234 437.886 124.101 437.921C121.967 437.921 119.798 438.481 117.665 439.53C115.531 440.58 113.397 442.224 111.264 444.357L98.4269 457.649C97.8673 458.243 97.4826 458.908 97.3077 459.678C97.1328 460.412 97.1328 461.147 97.3426 461.881C97.5525 462.616 97.9373 463.28 98.5319 463.875C99.1265 464.435 99.7911 464.819 100.526 464.994C101.26 465.169 102.03 465.169 102.729 464.959C103.464 464.749 104.128 464.365 104.723 463.77L117.805 450.234C119.274 448.73 120.743 447.68 122.247 447.155C123.751 446.631 125.185 446.526 126.619 446.911C128.053 447.295 129.382 448.1 130.676 449.359C131.971 450.618 132.81 451.947 133.23 453.382C133.65 454.816 133.58 456.285 133.055 457.824C132.53 459.363 131.516 460.902 130.012 462.476L117.14 475.802C116.58 476.397 116.196 477.062 116.021 477.831C115.846 478.566 115.846 479.3 116.056 480.07C116.266 480.804 116.65 481.469 117.245 482.028C117.84 482.588 118.504 482.973 119.239 483.148C120.008 483.323 120.743 483.323 121.442 483.113C122.177 482.903 122.841 482.518 123.436 481.923L136.483 468.422C139.176 465.589 140.96 462.756 141.799 459.887C142.639 457.019 142.604 454.256 141.659 451.493C140.715 448.764 138.966 446.141 136.378 443.623V443.553Z" fill="#EFEFEF"/>
<path d="M435.473 442.678L418.544 457.369C417.984 457.859 417.634 458.418 417.389 459.083C417.18 459.712 417.11 460.377 417.25 461.042C417.354 461.706 417.669 462.336 418.124 462.895C418.614 463.455 419.173 463.805 419.838 464.05C420.502 464.26 421.132 464.33 421.832 464.19C422.496 464.05 423.126 463.77 423.685 463.28L437.327 451.423L442.818 457.754L431.311 467.757C430.751 468.247 430.366 468.807 430.156 469.471C429.946 470.101 429.877 470.765 430.016 471.43C430.121 472.095 430.436 472.724 430.891 473.284C431.381 473.843 431.94 474.193 432.605 474.438C433.269 474.648 433.899 474.683 434.599 474.578C435.263 474.438 435.893 474.158 436.452 473.669L447.96 463.665L453.277 469.786L439.845 481.469C439.286 481.958 438.901 482.518 438.691 483.148C438.481 483.777 438.411 484.442 438.551 485.106C438.656 485.771 438.971 486.4 439.425 486.96C439.915 487.52 440.475 487.905 441.139 488.114C441.804 488.324 442.469 488.394 443.133 488.254C443.833 488.114 444.427 487.835 444.987 487.345L461.671 472.829C462.301 472.269 462.721 471.64 462.965 470.94C463.21 470.206 463.28 469.471 463.14 468.737C463 467.967 462.651 467.303 462.126 466.673L441.699 443.168C441.139 442.538 440.51 442.119 439.775 441.874C439.041 441.629 438.306 441.559 437.572 441.699C436.837 441.839 436.138 442.189 435.508 442.713M464.679 421.762L471.71 427.043L465.589 435.158C464.225 436.942 462.93 438.026 461.706 438.411C460.447 438.796 459.293 438.551 458.243 437.746L458.139 437.676C457.334 437.082 456.844 436.382 456.634 435.613C456.425 434.843 456.46 433.969 456.774 433.059C457.089 432.15 457.614 431.171 458.418 430.121L464.679 421.797V421.762ZM477.516 431.45L484.267 436.522L479.055 443.448C477.936 444.917 476.782 445.861 475.627 446.211C474.473 446.561 473.354 446.351 472.305 445.581L472.2 445.512C471.43 444.917 470.94 444.217 470.731 443.448C470.556 442.678 470.626 441.804 470.94 440.894C471.255 439.95 471.85 438.971 472.619 437.956L477.481 431.485L477.516 431.45ZM467.163 412.947C466.498 412.458 465.799 412.178 465.029 412.073C464.26 411.968 463.525 412.073 462.826 412.388C462.126 412.667 461.531 413.157 461.007 413.822L452.227 425.469C450.863 427.288 449.814 429.037 449.079 430.786C448.345 432.5 447.925 434.179 447.89 435.788C447.82 437.397 448.135 438.866 448.799 440.265C449.464 441.664 450.548 442.888 451.982 444.007L452.087 444.077C453.521 445.127 454.886 445.791 456.25 446.071C457.614 446.351 458.943 446.281 460.307 445.896C461.636 445.512 463.035 444.882 464.4 444.007C464.225 445.092 464.225 446.176 464.365 447.26C464.504 448.345 464.854 449.429 465.449 450.443C466.044 451.493 466.918 452.437 468.107 453.346L468.212 453.416C469.296 454.256 470.451 454.816 471.605 455.13C472.794 455.445 473.983 455.515 475.278 455.34C476.887 455.13 478.461 454.466 480 453.451C481.539 452.402 483.008 450.968 484.372 449.149L492.871 437.851C493.361 437.187 493.641 436.487 493.746 435.718C493.816 434.948 493.746 434.214 493.431 433.514C493.151 432.815 492.662 432.185 491.997 431.695L467.128 412.947H467.163ZM475.732 398.781C475.033 398.361 474.298 398.117 473.529 398.117C472.759 398.117 472.06 398.257 471.36 398.606C470.696 398.956 470.136 399.481 469.681 400.18C469.261 400.88 469.017 401.614 469.017 402.384C469.017 403.153 469.157 403.853 469.506 404.553C469.856 405.217 470.381 405.777 471.08 406.231L498.048 423.091C498.748 423.51 499.482 423.755 500.252 423.79C501.021 423.79 501.721 423.65 502.42 423.266C503.085 422.916 503.645 422.391 504.099 421.692C504.519 420.992 504.764 420.258 504.799 419.488C504.799 418.719 504.659 417.984 504.309 417.319C503.959 416.62 503.435 416.06 502.735 415.641L475.732 398.781ZM504.939 378.179L515.397 382.831L511.829 390.806C511.235 392.135 510.57 393.15 509.731 393.919C508.926 394.689 508.017 395.144 507.002 395.318C506.023 395.493 504.939 395.318 503.784 394.794H503.68C502.665 394.304 501.861 393.639 501.301 392.835C500.741 391.996 500.462 391.051 500.427 389.932C500.427 388.813 500.671 387.623 501.266 386.294L504.869 378.179H504.939ZM493.466 363.454C492.697 363.139 491.962 362.999 491.192 363.104C490.423 363.174 489.758 363.454 489.129 363.908C488.499 364.363 488.009 364.958 487.695 365.692C487.38 366.462 487.24 367.196 487.345 367.966C487.415 368.735 487.695 369.435 488.149 370.03C488.604 370.659 489.199 371.114 489.933 371.464L497.908 374.996L495.04 381.397L481.679 384.79C480.874 384.965 480.105 385.315 479.44 385.77C478.775 386.224 478.251 386.924 477.831 387.833C477.551 388.498 477.411 389.162 477.481 389.862C477.516 390.561 477.761 391.226 478.146 391.856C478.531 392.45 479.125 392.94 479.86 393.29C480.489 393.57 481.084 393.674 481.644 393.674C482.238 393.674 482.833 393.535 483.497 393.36L492.767 390.806C492.732 392.555 492.941 394.199 493.466 395.738C493.991 397.277 494.83 398.641 496.019 399.901C497.209 401.125 498.748 402.174 500.637 403.049H500.741C502.455 403.853 504.169 404.273 505.778 404.378C507.422 404.483 508.996 404.238 510.465 403.678C512.214 403.014 513.788 401.929 515.222 400.425C516.656 398.921 517.881 396.997 518.895 394.689L524.526 382.027C524.841 381.257 524.981 380.523 524.876 379.753C524.806 378.984 524.526 378.284 524.072 377.69C523.617 377.06 523.022 376.57 522.288 376.221L493.536 363.419L493.466 363.454ZM513.998 336.486L525.576 344.846L511.48 347.259L513.963 336.486H513.998ZM504.554 319.801C503.784 319.627 503.085 319.662 502.42 319.871C501.756 320.081 501.161 320.431 500.671 320.956C500.182 321.48 499.832 322.075 499.657 322.845C499.447 323.754 499.517 324.593 499.832 325.398C500.147 326.167 500.671 326.867 501.441 327.427L507.212 331.624L503.26 348.728L496.544 349.917C495.565 350.092 494.725 350.477 494.026 351.037C493.361 351.596 492.871 352.366 492.627 353.345C492.452 354.115 492.487 354.849 492.732 355.549C492.941 356.248 493.326 356.843 493.886 357.333C494.41 357.822 495.075 358.172 495.845 358.347C496.124 358.417 496.404 358.452 496.719 358.417C496.999 358.417 497.349 358.347 497.663 358.312L531.417 351.806C532.606 351.596 533.586 351.107 534.355 350.442C535.125 349.742 535.649 348.833 535.929 347.644L536.034 347.154C536.279 346 536.244 344.916 535.824 343.936C535.439 342.957 534.74 342.082 533.795 341.383L506.303 320.746C506.023 320.536 505.743 320.361 505.463 320.186C505.184 320.011 504.869 319.906 504.589 319.836L504.554 319.801ZM501.721 300.983C501.581 303.082 501.651 305.006 501.931 306.72C502.21 308.434 502.665 310.008 503.33 311.442C503.994 312.876 504.799 314.205 505.743 315.464C506.058 315.884 506.478 316.269 506.967 316.584C507.492 316.898 508.087 317.108 508.751 317.143C509.486 317.178 510.185 317.038 510.815 316.723C511.445 316.409 511.969 315.954 512.389 315.359C512.774 314.765 513.019 314.1 513.089 313.366C513.089 312.841 513.089 312.351 512.914 311.897C512.774 311.442 512.564 311.022 512.319 310.672C511.724 309.798 511.2 308.923 510.815 308.014C510.43 307.105 510.115 306.16 509.941 305.146C509.766 304.131 509.731 303.012 509.801 301.788C509.941 300.074 510.36 298.535 511.13 297.171C511.899 295.807 512.879 294.652 514.103 293.708C515.327 292.764 516.691 292.064 518.265 291.609C519.804 291.155 521.448 290.98 523.162 291.12H523.267C524.981 291.26 526.59 291.644 528.024 292.344C529.493 293.009 530.717 293.918 531.802 295.002C532.851 296.122 533.655 297.416 534.215 298.85C534.775 300.284 534.985 301.858 534.88 303.572C534.775 305.146 534.425 306.545 533.83 307.839C533.271 309.133 532.466 310.357 531.452 311.512C531.207 311.792 530.997 312.141 530.787 312.561C530.577 312.981 530.438 313.471 530.403 314.065C530.368 314.87 530.507 315.604 530.822 316.304C531.137 317.003 531.627 317.528 532.221 317.983C532.851 318.402 533.551 318.647 534.355 318.717C535.125 318.717 535.824 318.612 536.454 318.332C537.083 318.053 537.573 317.668 537.958 317.248C538.867 316.199 539.637 315.079 540.336 313.785C541.036 312.526 541.595 311.127 542.05 309.553C542.505 307.979 542.785 306.195 542.925 304.201C543.099 301.753 542.925 299.444 542.365 297.276C541.805 295.107 540.966 293.113 539.812 291.33C538.657 289.546 537.293 287.972 535.649 286.643C534.04 285.313 532.186 284.264 530.193 283.46C528.199 282.655 526.065 282.2 523.757 282.026H523.652C521.343 281.851 519.175 282.026 517.041 282.55C514.942 283.075 512.984 283.879 511.235 284.964C509.451 286.083 507.877 287.412 506.513 289.021C505.149 290.63 504.064 292.449 503.225 294.443C502.385 296.471 501.896 298.64 501.721 300.983ZM501.896 234.701C501.091 234.876 500.392 235.19 499.832 235.715C499.237 236.205 498.853 236.834 498.573 237.569C498.328 238.268 498.258 239.038 498.433 239.877L502.385 260.129C502.525 260.864 502.84 261.494 503.295 262.018C503.75 262.543 504.309 262.928 504.974 263.138C505.638 263.382 506.338 263.417 507.072 263.277C507.807 263.138 508.437 262.823 508.961 262.368C509.486 261.913 509.871 261.354 510.08 260.689C510.325 260.025 510.36 259.325 510.22 258.59L507.107 242.641L534.495 237.324C535.299 237.149 535.999 236.834 536.559 236.31C537.118 235.785 537.538 235.19 537.783 234.456C538.028 233.721 538.098 232.987 537.923 232.147C537.748 231.343 537.433 230.643 536.908 230.084C536.384 229.489 535.789 229.104 535.055 228.859C534.32 228.615 533.551 228.545 532.746 228.684L501.861 234.701H501.896ZM487.975 205.879L495.285 227.075C495.53 227.775 495.914 228.335 496.439 228.789C496.964 229.244 497.558 229.524 498.223 229.664C498.888 229.804 499.552 229.769 500.252 229.524C500.951 229.279 501.511 228.894 501.966 228.37C502.42 227.845 502.7 227.25 502.84 226.586C502.98 225.921 502.945 225.222 502.7 224.522L496.824 207.418L504.764 204.69L509.731 219.101C509.976 219.8 510.36 220.36 510.885 220.814C511.41 221.269 512.004 221.549 512.669 221.689C513.333 221.829 513.998 221.794 514.698 221.549C515.397 221.304 515.957 220.919 516.411 220.395C516.866 219.87 517.146 219.275 517.286 218.611C517.426 217.911 517.391 217.247 517.146 216.547L512.179 202.136L519.839 199.513L525.646 216.337C525.89 217.037 526.275 217.597 526.8 218.051C527.325 218.506 527.919 218.786 528.584 218.926C529.248 219.066 529.913 219.031 530.612 218.786C531.312 218.541 531.872 218.156 532.326 217.631C532.781 217.107 533.061 216.512 533.201 215.848C533.341 215.148 533.306 214.483 533.061 213.784L525.855 192.867C525.576 192.098 525.156 191.468 524.561 190.943C523.967 190.454 523.302 190.104 522.568 189.964C521.798 189.824 521.064 189.859 520.259 190.139L490.808 200.283C490.038 200.562 489.409 200.982 488.884 201.577C488.394 202.136 488.045 202.801 487.905 203.57C487.765 204.305 487.8 205.074 488.079 205.879H487.975ZM477.831 168.243L498.468 155.861L501.966 161.667C502.875 163.206 503.47 164.78 503.75 166.319C504.029 167.893 503.959 169.397 503.575 170.866C503.19 172.3 502.525 173.664 501.581 174.924C500.601 176.183 499.377 177.232 497.838 178.177L497.733 178.247C496.194 179.156 494.655 179.751 493.116 179.995C491.577 180.24 490.073 180.205 488.639 179.821C487.17 179.436 485.841 178.806 484.582 177.827C483.322 176.847 482.238 175.588 481.329 174.049L477.831 168.243ZM470.276 162.542C469.576 162.961 469.052 163.521 468.667 164.185C468.282 164.85 468.107 165.585 468.107 166.354C468.107 167.124 468.317 167.858 468.737 168.558L474.508 178.142C475.802 180.31 477.306 182.129 478.985 183.633C480.664 185.137 482.483 186.361 484.407 187.236C486.331 188.11 488.324 188.635 490.388 188.88C492.452 189.09 494.515 188.95 496.579 188.495C498.643 188.005 500.636 187.201 502.56 186.047L502.665 185.977C505.079 184.508 507.037 182.724 508.576 180.625C510.115 178.526 511.165 176.183 511.724 173.664C512.284 171.146 512.354 168.488 511.864 165.759C511.375 163.031 510.325 160.303 508.716 157.575L502.945 147.991C502.525 147.291 501.966 146.767 501.301 146.382C500.637 145.997 499.902 145.822 499.167 145.857C498.398 145.857 497.663 146.067 496.929 146.487L470.241 162.507L470.276 162.542Z" fill="#EFEFEF"/>
<path d="M383.95 509.241L383.706 502.56L388.672 507.038L383.985 509.206L383.95 509.241ZM380.523 517.531C380.663 517.846 380.872 518.125 381.152 518.3C381.432 518.475 381.712 518.615 382.062 518.65C382.376 518.65 382.726 518.65 383.041 518.475C383.426 518.3 383.741 518.021 383.915 517.671C384.125 517.321 384.23 516.936 384.195 516.482L384.09 513.159L391.541 509.696L393.919 511.829C394.269 512.144 394.654 512.354 395.038 512.424C395.423 512.529 395.843 512.459 396.298 512.284C396.647 512.109 396.892 511.899 397.067 511.62C397.242 511.34 397.382 511.025 397.382 510.675C397.417 510.325 397.382 510.011 397.207 509.661C397.137 509.556 397.067 509.416 396.997 509.311C396.892 509.206 396.787 509.101 396.682 508.996L384.545 498.433C384.125 498.048 383.671 497.838 383.181 497.733C382.691 497.629 382.202 497.733 381.712 497.943L381.502 498.048C380.977 498.293 380.628 498.608 380.383 499.063C380.138 499.482 379.998 499.972 380.033 500.532L380.348 516.621C380.348 516.621 380.348 516.936 380.383 517.111C380.383 517.251 380.453 517.391 380.488 517.531H380.523ZM365.552 522.428C365.692 522.778 365.902 523.092 366.182 523.302C366.462 523.547 366.776 523.687 367.126 523.757C367.476 523.827 367.826 523.757 368.21 523.652L377.305 520.364C377.619 520.224 377.899 520.049 378.109 519.804C378.319 519.56 378.459 519.28 378.494 518.965C378.564 518.65 378.494 518.335 378.424 517.986C378.284 517.671 378.109 517.391 377.864 517.181C377.619 516.971 377.34 516.831 377.025 516.796C376.71 516.726 376.395 516.796 376.045 516.866L368.91 519.455L364.433 507.177C364.293 506.828 364.083 506.513 363.803 506.303C363.523 506.093 363.209 505.918 362.859 505.883C362.509 505.813 362.159 505.883 361.775 505.988C361.425 506.128 361.11 506.338 360.9 506.618C360.655 506.898 360.515 507.212 360.445 507.562C360.375 507.912 360.41 508.262 360.55 508.646L365.587 522.498L365.552 522.428ZM349.218 527.604C349.322 527.989 349.497 528.269 349.777 528.514C350.022 528.759 350.337 528.934 350.687 529.039C351.036 529.108 351.386 529.108 351.771 529.039L361.075 526.38C361.425 526.275 361.705 526.1 361.914 525.856C362.124 525.611 362.299 525.331 362.369 525.016C362.439 524.701 362.439 524.387 362.369 524.037C362.264 523.687 362.089 523.407 361.879 523.197C361.635 522.987 361.355 522.812 361.04 522.743C360.725 522.673 360.41 522.673 360.061 522.743L352.75 524.841L349.148 512.284C349.043 511.899 348.868 511.585 348.588 511.34C348.343 511.095 348.028 510.92 347.679 510.85C347.329 510.78 346.979 510.78 346.594 510.85C346.209 510.955 345.895 511.13 345.65 511.41C345.405 511.69 345.23 511.969 345.16 512.319C345.09 512.669 345.09 513.019 345.16 513.403L349.218 527.569V527.604ZM340.053 529.948C340.158 530.333 340.298 530.647 340.543 530.892C340.788 531.172 341.068 531.347 341.417 531.452C341.767 531.557 342.117 531.592 342.502 531.487C342.887 531.382 343.201 531.242 343.446 530.997C343.726 530.752 343.901 530.473 344.006 530.123C344.111 529.773 344.111 529.423 344.006 529.039L340.648 514.523C340.543 514.138 340.368 513.823 340.123 513.578C339.878 513.334 339.599 513.124 339.249 513.019C338.899 512.914 338.549 512.914 338.165 513.019C337.78 513.124 337.465 513.264 337.22 513.508C336.94 513.753 336.765 514.033 336.661 514.383C336.556 514.733 336.556 515.082 336.626 515.467L339.983 529.983L340.053 529.948ZM327.321 534.705C328.546 534.46 329.63 534.075 330.574 533.551C331.484 533.026 332.253 532.326 332.813 531.522C333.373 530.682 333.757 529.738 333.932 528.619C334.107 527.5 334.037 526.275 333.792 524.876L332.148 516.377C332.078 515.992 331.904 515.677 331.694 515.397C331.449 515.117 331.169 514.942 330.819 514.803C330.469 514.698 330.12 514.663 329.735 514.733C329.35 514.803 329.035 514.977 328.756 515.222C328.476 515.467 328.301 515.747 328.161 516.097C328.056 516.447 328.021 516.796 328.091 517.181L329.77 525.821C329.945 526.8 329.945 527.639 329.77 528.339C329.595 529.074 329.21 529.633 328.686 530.088C328.161 530.543 327.496 530.822 326.657 530.997C325.817 531.172 325.083 531.137 324.418 530.892C323.754 530.647 323.229 530.263 322.774 529.633C322.32 529.039 322.005 528.234 321.795 527.22L320.151 518.72C320.081 518.335 319.906 518.021 319.661 517.741C319.416 517.461 319.137 517.286 318.787 517.146C318.437 517.041 318.087 517.006 317.703 517.076C317.318 517.146 317.003 517.321 316.723 517.531C316.443 517.776 316.269 518.056 316.129 518.405C316.024 518.755 315.989 519.105 316.059 519.49L317.738 528.094C318.087 529.878 318.717 531.347 319.591 532.431C320.466 533.516 321.55 534.25 322.844 534.635C324.139 535.02 325.608 535.055 327.286 534.705H327.321ZM305.251 531.277L307.349 532.746C306.999 532.956 306.615 533.096 306.23 533.236C305.845 533.376 305.39 533.446 304.936 533.481C304.096 533.551 303.327 533.481 302.627 533.201C301.928 532.956 301.263 532.571 300.738 532.082C300.179 531.592 299.759 530.997 299.409 530.333C299.059 529.668 298.885 528.899 298.78 528.094C298.71 527.255 298.78 526.485 298.99 525.751C299.199 525.016 299.514 524.386 299.969 523.792C300.424 523.232 300.983 522.743 301.613 522.393C302.277 522.043 303.012 521.833 303.851 521.728C304.691 521.658 305.46 521.728 306.16 522.008C306.859 522.253 307.489 522.603 308.049 523.127C308.608 523.617 309.028 524.212 309.378 524.876C309.728 525.576 309.903 526.31 310.007 527.115V527.185C310.042 527.639 310.042 528.094 310.007 528.549C309.938 528.969 309.868 529.388 309.728 529.773L307.524 528.129C307.314 527.954 307.069 527.849 306.859 527.779C306.65 527.709 306.405 527.674 306.125 527.709C305.775 527.709 305.46 527.849 305.181 528.059C304.901 528.269 304.691 528.514 304.551 528.829C304.411 529.143 304.341 529.458 304.376 529.843C304.376 530.193 304.516 530.473 304.656 530.717C304.831 530.962 305.006 531.172 305.251 531.347V531.277ZM305.216 537.258C306.265 537.153 307.209 536.943 308.119 536.594C309.028 536.244 309.833 535.789 310.602 535.195L311.686 535.999C311.861 536.139 312.071 536.279 312.316 536.349C312.561 536.419 312.806 536.454 313.086 536.454C313.435 536.419 313.75 536.314 314.03 536.104C314.31 535.894 314.52 535.649 314.66 535.335C314.799 535.02 314.869 534.705 314.834 534.32C314.834 533.97 314.695 533.691 314.555 533.446C314.38 533.201 314.205 532.991 313.96 532.816L313.12 532.222C313.575 531.417 313.89 530.543 314.1 529.598C314.31 528.654 314.38 527.709 314.275 526.73C314.17 525.611 313.925 524.631 313.54 523.687C313.155 522.743 312.631 521.903 311.966 521.169C311.302 520.434 310.567 519.804 309.693 519.28C308.818 518.755 307.874 518.405 306.859 518.16C305.845 517.916 304.726 517.846 303.572 517.951C302.417 518.056 301.368 518.3 300.389 518.72C299.409 519.14 298.535 519.664 297.765 520.329C296.996 520.994 296.366 521.763 295.842 522.603C295.317 523.442 294.932 524.386 294.722 525.366C294.477 526.345 294.407 527.395 294.512 528.444V528.514C294.617 529.563 294.862 530.578 295.247 531.487C295.632 532.431 296.156 533.236 296.821 534.005C297.485 534.74 298.22 535.37 299.094 535.894C299.969 536.419 300.913 536.769 301.928 537.013C302.942 537.258 304.061 537.328 305.216 537.223V537.258ZM274.365 535.649C274.365 536.034 274.435 536.384 274.575 536.699C274.75 537.013 274.96 537.258 275.275 537.468C275.554 537.678 275.904 537.783 276.289 537.783C276.674 537.783 277.023 537.713 277.338 537.573C277.653 537.398 277.898 537.188 278.108 536.874C278.318 536.594 278.423 536.244 278.423 535.859L278.947 525.856L286.607 537.048C286.782 537.293 286.957 537.538 287.167 537.713C287.377 537.888 287.587 538.063 287.832 538.168C288.076 538.273 288.356 538.343 288.671 538.378H288.811C289.196 538.378 289.546 538.308 289.86 538.168C290.175 537.993 290.42 537.783 290.63 537.468C290.84 537.153 290.945 536.839 290.98 536.454L291.749 521.623C291.749 521.238 291.679 520.889 291.539 520.574C291.364 520.259 291.154 520.014 290.84 519.804C290.56 519.595 290.21 519.49 289.825 519.49C289.441 519.49 289.091 519.56 288.776 519.699C288.461 519.874 288.216 520.084 288.006 520.399C287.797 520.679 287.692 521.029 287.692 521.413L287.202 531.032L279.822 520.224C279.647 519.979 279.472 519.734 279.262 519.56C279.052 519.385 278.842 519.21 278.597 519.105C278.353 519 278.073 518.93 277.758 518.895H277.338C276.954 518.86 276.604 518.895 276.289 519.105C275.974 519.28 275.694 519.49 275.519 519.804C275.31 520.119 275.205 520.434 275.205 520.819L274.435 535.649H274.365ZM259.01 528.654L262.123 522.743L264.152 529.108L259.01 528.654ZM251.874 534.11C251.874 534.46 251.874 534.81 252.049 535.09C252.189 535.404 252.399 535.649 252.679 535.824C252.959 536.034 253.274 536.139 253.623 536.174C254.043 536.174 254.428 536.139 254.778 535.929C255.127 535.719 255.407 535.439 255.617 535.055L257.191 532.117L265.376 532.851L266.355 535.894C266.495 536.349 266.74 536.699 267.02 536.978C267.335 537.258 267.719 537.433 268.174 537.468C268.559 537.468 268.874 537.433 269.188 537.293C269.503 537.153 269.748 536.943 269.923 536.664C270.133 536.384 270.238 536.069 270.273 535.684C270.273 535.544 270.273 535.404 270.273 535.265C270.273 535.125 270.203 534.985 270.168 534.845L264.956 519.629C264.781 519.105 264.501 518.685 264.117 518.37C263.732 518.055 263.277 517.881 262.718 517.811H262.473C261.913 517.741 261.423 517.846 261.004 518.09C260.584 518.335 260.234 518.72 259.954 519.21L252.189 533.306C252.189 533.306 252.049 533.586 251.979 533.726C251.909 533.865 251.874 534.005 251.874 534.145V534.11ZM239.283 523.827L240.297 518.545L244.319 519.315C244.984 519.455 245.509 519.664 245.963 519.944C246.383 520.224 246.698 520.609 246.873 521.029C247.048 521.448 247.083 521.973 246.978 522.568C246.873 523.127 246.663 523.582 246.348 523.897C246.033 524.247 245.613 524.456 245.124 524.596C244.634 524.736 244.039 524.736 243.375 524.596L239.283 523.792V523.827ZM233.791 530.613C233.721 530.997 233.756 531.347 233.861 531.697C233.966 532.047 234.176 532.326 234.456 532.571C234.735 532.816 235.05 532.956 235.435 533.061C235.82 533.131 236.169 533.096 236.519 532.991C236.869 532.886 237.149 532.676 237.394 532.396C237.639 532.117 237.778 531.802 237.848 531.417L238.618 527.395L241.836 528.024L244.809 533.761C244.984 534.11 245.229 534.425 245.509 534.67C245.788 534.915 246.173 535.09 246.628 535.195C246.943 535.265 247.292 535.23 247.607 535.125C247.922 535.02 248.202 534.845 248.447 534.635C248.692 534.39 248.831 534.075 248.936 533.691C248.971 533.376 248.971 533.096 248.936 532.816C248.866 532.571 248.761 532.291 248.587 532.012L246.453 528.059C247.257 527.884 247.992 527.639 248.622 527.22C249.251 526.835 249.811 526.275 250.266 525.611C250.685 524.946 251 524.142 251.21 523.162V523.092C251.385 522.218 251.42 521.413 251.28 520.644C251.14 519.874 250.86 519.21 250.475 518.58C249.986 517.846 249.321 517.251 248.482 516.761C247.642 516.272 246.628 515.922 245.474 515.677L239.108 514.453C238.723 514.383 238.373 514.418 238.023 514.523C237.674 514.628 237.394 514.838 237.149 515.117C236.904 515.397 236.764 515.712 236.659 516.097L233.861 530.578L233.791 530.613ZM220.534 519.385L222.108 514.243L226.026 515.432C226.656 515.642 227.18 515.887 227.6 516.237C228.02 516.586 228.265 516.971 228.404 517.426C228.544 517.881 228.509 518.405 228.334 518.965V519.035C228.16 519.525 227.915 519.944 227.565 520.259C227.215 520.574 226.795 520.749 226.271 520.819C225.746 520.889 225.186 520.819 224.557 520.644L220.569 519.42L220.534 519.385ZM214.343 525.576C214.238 525.96 214.203 526.31 214.308 526.66C214.378 527.01 214.553 527.325 214.798 527.569C215.043 527.849 215.358 528.024 215.707 528.129C216.092 528.234 216.442 528.234 216.792 528.164C217.142 528.094 217.456 527.919 217.701 527.674C217.946 527.43 218.156 527.115 218.261 526.765L219.45 522.847L222.598 523.792L224.942 529.808C225.082 530.158 225.256 530.508 225.536 530.787C225.781 531.067 226.131 531.277 226.586 531.417C226.9 531.522 227.215 531.522 227.565 531.452C227.88 531.382 228.195 531.242 228.439 531.032C228.684 530.822 228.894 530.508 228.999 530.158C229.069 529.843 229.104 529.563 229.069 529.318C229.034 529.039 228.929 528.759 228.824 528.479L227.11 524.316C227.915 524.247 228.684 524.037 229.349 523.722C230.048 523.407 230.643 522.917 231.133 522.323C231.657 521.693 232.042 520.924 232.322 520.014V519.944C232.602 519.105 232.707 518.3 232.637 517.531C232.602 516.761 232.392 516.062 232.042 515.397C231.622 514.628 231.028 513.963 230.258 513.369C229.489 512.809 228.509 512.319 227.39 511.969L221.199 510.081C220.814 509.976 220.464 509.941 220.115 510.046C219.765 510.116 219.45 510.29 219.205 510.535C218.925 510.78 218.751 511.095 218.646 511.445L214.343 525.541V525.576ZM201.087 515.222L205.459 510.151L206.019 516.831L201.087 515.222ZM192.902 518.93C192.797 519.28 192.762 519.595 192.832 519.944C192.902 520.259 193.042 520.574 193.252 520.819C193.462 521.064 193.741 521.238 194.091 521.378C194.511 521.518 194.896 521.518 195.28 521.378C195.665 521.273 195.98 521.064 196.295 520.714L198.498 518.195L206.333 520.749L206.613 523.932C206.648 524.386 206.788 524.806 207.033 525.156C207.278 525.506 207.593 525.751 208.047 525.891C208.397 525.995 208.747 526.03 209.062 525.925C209.377 525.856 209.691 525.681 209.936 525.471C210.181 525.226 210.356 524.946 210.496 524.596C210.531 524.456 210.566 524.351 210.566 524.212C210.566 524.072 210.566 523.932 210.566 523.757L208.922 507.737C208.852 507.177 208.677 506.688 208.397 506.303C208.117 505.918 207.698 505.638 207.173 505.463L206.928 505.394C206.403 505.219 205.879 505.219 205.424 505.359C204.934 505.498 204.515 505.778 204.165 506.198L193.427 518.16C193.427 518.16 193.217 518.405 193.147 518.51C193.077 518.65 192.972 518.755 192.937 518.895L192.902 518.93ZM180.415 511.27L182.094 507.527L186.431 509.451C187.376 509.871 188.005 510.36 188.32 510.885C188.635 511.41 188.635 511.969 188.39 512.529C188.215 513.019 187.935 513.299 187.585 513.473C187.271 513.648 186.851 513.718 186.396 513.683C185.941 513.648 185.452 513.508 184.892 513.264L180.415 511.27ZM183.493 504.379L185.102 500.776L188.81 502.42C189.614 502.77 190.139 503.19 190.419 503.68C190.698 504.169 190.733 504.694 190.489 505.254C190.314 505.743 190.034 506.023 189.684 506.198C189.334 506.373 188.95 506.408 188.495 506.373C188.04 506.338 187.515 506.163 186.956 505.918L183.493 504.379ZM176.148 511.025C176.008 511.375 175.938 511.725 175.973 512.074C176.008 512.424 176.148 512.774 176.358 513.054C176.567 513.333 176.847 513.578 177.197 513.718L183.423 516.516C184.402 516.936 185.312 517.251 186.186 517.391C187.061 517.531 187.865 517.566 188.6 517.391C189.334 517.251 189.999 516.971 190.558 516.516C191.118 516.062 191.573 515.432 191.923 514.663C192.272 513.858 192.412 513.159 192.412 512.494C192.412 511.864 192.237 511.235 191.923 510.675C191.608 510.116 191.188 509.556 190.628 508.996C191.153 508.961 191.643 508.856 192.132 508.681C192.622 508.507 193.042 508.227 193.462 507.842C193.881 507.457 194.231 506.968 194.511 506.338C194.756 505.708 194.896 505.114 194.931 504.554C194.931 503.994 194.861 503.435 194.616 502.84C194.336 502.141 193.881 501.476 193.252 500.881C192.622 500.287 191.818 499.762 190.838 499.342L184.787 496.649C184.437 496.509 184.088 496.439 183.738 496.474C183.388 496.509 183.038 496.649 182.758 496.859C182.479 497.069 182.234 497.349 182.059 497.698L176.148 511.025Z" fill="#EFEFEF"/>
<path d="M426.588 143.479C390.351 107.242 340.298 84.856 285.033 84.856C229.768 84.856 179.715 107.277 143.478 143.479C107.241 179.716 84.8555 229.769 84.8555 285.034C84.8555 340.298 107.276 390.352 143.478 426.589C179.715 462.826 229.768 485.211 285.033 485.211C340.298 485.211 390.351 462.791 426.588 426.589C462.825 390.352 485.211 340.298 485.211 285.034C485.211 229.769 462.79 179.681 426.588 143.479ZM285.033 80.6587C341.452 80.6587 392.555 103.534 429.561 140.506C466.533 177.477 489.408 228.58 489.408 285.034C489.408 341.488 466.533 392.555 429.561 429.562C392.59 466.533 341.487 489.409 285.033 489.409C228.579 489.409 177.512 466.533 140.505 429.562C103.499 392.59 80.6582 341.488 80.6582 285.034C80.6582 228.58 103.534 177.512 140.505 140.506C177.477 103.534 228.579 80.6587 285.033 80.6587Z" fill="#EFEFEF"/>
<path d="M483.602 86.43C432.78 35.6073 362.579 4.16235 285.034 4.16235C207.488 4.16235 137.253 35.6073 86.43 86.43C35.6073 137.253 4.16235 207.488 4.16235 285.034C4.16235 362.579 35.6073 432.815 86.43 483.637C137.253 534.46 207.453 565.905 285.034 565.905C362.614 565.905 432.815 534.46 483.637 483.637C534.46 432.815 565.905 362.614 565.905 285.034C565.905 207.453 534.46 137.253 483.637 86.43M285.034 0C363.734 0 434.983 31.8997 486.575 83.4919C538.168 135.084 570.067 206.334 570.067 285.034C570.067 363.734 538.168 434.983 486.575 486.575C434.983 538.168 363.734 570.067 285.034 570.067C206.334 570.067 135.084 538.168 83.4919 486.575C31.8997 434.983 0 363.734 0 285.034C0 206.334 31.8997 135.049 83.4919 83.4919C135.049 31.8997 206.299 0 285.034 0Z" fill="#EFEFEF"/>
<path d="M227.95 302.767L212 293.044L222.284 278.353L213.015 269.573L195.631 277.828L181.605 256.457L196.89 243.34L194.127 229.734L173.77 227.495V200.422L192.098 199.618L196.12 186.152L182.444 174.014L196.085 151.943L212.175 157.365L222.529 148.725L215.463 133.37L239.947 117.001L251.105 131.306L265.656 127.599L266.705 109.69L295.947 110.53L297.801 127.564L311.372 130.992L320.956 120.288C320.956 120.288 322.285 118.505 323.719 118.26C325.153 118.015 326.587 119.064 326.587 119.064L345.475 130.887C345.475 130.887 346.63 131.586 346.944 132.775C347.399 134.524 346.804 135.224 346.804 135.224L341.173 146.487L350.232 157.225L368.875 150.824L381.327 171.566L368.526 184.682L370.275 198.254L390.736 200.003L391.156 227.18L370.729 229.034L367.301 242.396L381.083 256.072L367.127 276.884L350.407 270.063L342.292 277.199L338.13 272.442L349.183 262.718L364.748 269.084L372.933 256.877L360.271 244.32L365.692 223.158L384.72 221.409L384.475 205.844L364.643 204.13L361.845 182.444L373.353 170.621L366.042 158.414L348.134 164.57L333.583 147.361L339.844 134.839L324.803 125.395L313.471 138.022L291.924 132.601L290.14 116.651L272.547 116.161L271.602 132.566L248.552 138.442L238.478 125.535L223.368 135.644L230.189 150.474L213.399 164.5L198.709 159.533L190.524 172.79L203.256 184.053L196.82 205.669L180.031 206.404V221.759L199.338 223.893L203.745 245.614L189.859 257.541L197.799 269.643L214.134 261.878L230.468 277.374L220.92 291.015L231.133 297.241L227.845 302.627L227.95 302.767Z" fill="#EFEFEF"/>
<path d="M239.003 259.36C224.802 247.572 216.652 230.538 216.652 212.665C216.652 198.359 221.864 184.438 231.343 173.385C240.647 162.542 256.492 151.943 275.24 150.789L276.499 155.581C244.53 158.379 222.983 186.641 222.983 212.665C222.983 228.684 230.294 243.935 243.026 254.533L239.003 259.395V259.36Z" fill="#EFEFEF"/>
<path d="M324.244 259.64L320.257 254.743C333.723 243.795 341.383 228.475 341.453 212.665C341.558 185.522 325.748 164.291 289.966 156.141L291.4 150.614C329.421 157.575 347.749 184.788 347.749 212.665C347.749 230.364 339.179 247.503 324.244 259.64Z" fill="#EFEFEF"/>
<path d="M391.051 317.318L319.976 263.977L314.17 259.675L317.913 254.603L323.754 258.905L396.263 313.89L391.051 317.318Z" fill="#EFEFEF"/>
<path d="M177.162 329.42L259.605 281.046L262.788 286.503L226.9 307.524L188.355 330.19L183.353 333.653L177.162 329.42Z" fill="#EFEFEF"/>
<path d="M267.51 419.033L177.512 358.977L177.337 329.385L268.874 382.762L267.51 392.031L183.843 340.683L183.283 352.681L268.874 407.211L267.51 419.033Z" fill="#EFEFEF"/>
<path d="M303.082 396.788L302.942 395.878L385.524 335.367L385.245 323.579L303.292 380.523L301.823 373.038L391.261 312.316L391.925 337.57L396.263 339.949L302.697 408.75L298.255 400.076L303.082 396.788Z" fill="#EFEFEF"/>
<path d="M283.389 139.911C282.515 140.715 281.151 143.304 281.151 147.291C281.151 151.279 282.55 153.797 283.389 154.637C284.194 153.832 285.523 151.314 285.523 147.291C285.523 143.269 284.194 140.715 283.389 139.911ZM283.389 161.142C277.793 161.142 273.596 155.196 273.596 147.291C273.596 139.386 277.723 133.405 283.389 133.405C289.056 133.405 293.113 139.106 293.113 147.291C293.113 155.476 289.126 161.142 283.389 161.142Z" fill="#EFEFEF"/>
<path d="M291.295 215.008L284.719 200.772L278.913 212L273.316 209.097L285.034 186.396L297.031 212.35L291.295 215.008Z" fill="#EFEFEF"/>
<path d="M215.218 335.437L209.446 332.848L242.78 247.922L248.656 250.231L237.883 277.723L248.691 256.772L254.323 259.71L215.218 335.437Z" fill="#EFEFEF"/>
<path d="M315.114 241.591L283.389 160.478L265.866 205.494L259.989 203.186L281.291 151.664L283.529 155.896L285.558 151.769L320.99 239.283L315.114 241.591Z" fill="#EFEFEF"/>
<path d="M348.868 330.295L315.045 261.808L320.711 259.01L323.614 264.886L320.921 257.926L326.832 255.652L354.64 327.776L348.868 330.295Z" fill="#EFEFEF"/>
<path d="M252.574 253.973H315.884C316.968 253.834 318.123 252.19 318.472 250.196C318.927 247.712 318.298 244.529 315.254 242.816H252.015C249.356 243.69 248.307 245.859 248.202 247.712C248.027 250.371 249.706 252.679 252.574 254.008M316.129 260.339H251.35L250.79 260.13C245.054 257.891 241.556 252.924 241.871 247.363C242.186 242.186 245.649 237.989 250.756 236.625L251.14 236.485H316.724L317.353 236.799C324.139 240.017 325.538 246.663 324.663 251.385C323.719 256.422 320.326 260.025 316.234 260.304H316.129V260.339Z" fill="#EFEFEF"/>
<path d="M267.685 309.098C265.376 292.239 259.535 279.927 250.336 272.547L249.392 271.777V255.373L318.787 255.093L319.312 271.987L318.508 272.757C309.553 281.536 304.412 293.568 303.187 308.574L298.186 308.154C299.445 292.589 304.971 279.402 314.205 269.958L313.891 260.165L254.428 260.409V269.399C264.117 277.688 270.238 290.805 272.652 308.434L267.65 309.098H267.685Z" fill="#EFEFEF"/>
<path d="M285.313 468.877C277.968 468.877 271.602 466.638 267.999 462.791L267.3 462.056V461.042L267.65 317.598H272.686L272.372 459.992C275.345 462.581 280.836 464.05 286.747 463.77C291.714 463.56 296.086 462.126 298.185 460.097V317.738H303.222V461.916L302.697 462.581C299.934 466.148 294.058 468.492 286.992 468.807C286.433 468.807 285.873 468.807 285.313 468.807" fill="#EFEFEF"/>
<path d="M267.125 314.87H304.026C304.271 314.765 304.866 314.065 304.971 312.806C305.041 312.001 304.901 310.567 303.502 309.658H266.705C265.551 310.113 265.061 311.092 265.026 311.932C264.991 313.191 265.726 314.24 267.09 314.905M304.201 319.941H266.145L265.726 319.767C262.088 318.402 259.849 315.219 260.024 311.687C260.199 308.329 262.403 305.601 265.656 304.691L265.97 304.586H304.726L305.25 304.866C308.853 306.58 310.637 310.323 309.833 314.31C309.168 317.528 306.929 319.767 304.271 319.906H304.201V319.941Z" fill="#EFEFEF"/>
<path d="M269.364 236.834H261.389C240.367 225.956 235.331 215.218 233.897 204.9C233.092 199.128 235.331 193.287 240.752 187.131C241.067 188.53 241.452 189.859 241.871 191.153C242.291 192.343 242.606 192.657 242.991 194.651L243.62 197.309L244.705 199.723L245.649 193.532C246.349 189.509 249.147 186.396 251.525 185.312C254.988 201.262 264.257 210.566 279.053 213.014H279.263C291.54 213.924 298.99 216.827 301.474 221.619C303.257 225.117 302.488 230.014 299.165 236.24H278.598L269.399 236.834H269.364ZM305.776 219.275C302.418 212.735 293.918 209.062 279.717 208.013C265.691 205.669 257.751 196.4 255.478 179.646L254.813 174.784L251.35 178.212C248.972 180.555 246.978 182.899 245.334 185.207C245.089 184.053 244.845 182.899 244.705 181.674L244.075 176.952L240.647 180.205C231.658 188.775 227.88 197.099 229.07 205.634C230.783 217.946 234.701 229.699 257.856 241.591L266.531 241.836H289.686V241.311H301.928L302.663 240.052C307.455 231.623 308.504 224.627 305.741 219.275H305.776Z" fill="#EFEFEF"/>
<path d="M316.129 268.314C311.057 267.125 306.79 269.574 303.397 275.625C299.864 281.956 297.206 292.134 295.457 306.195L293.813 305.985C295.597 291.749 298.29 281.361 301.963 274.82C305.775 268.035 310.602 265.341 316.479 266.705L316.129 268.314ZM252.015 267.51C258.416 266.111 263.732 268.559 267.93 275.065C271.987 281.361 274.995 291.54 276.954 305.81L275.31 306.02C273.421 291.994 270.483 282.026 266.53 275.94C262.753 270.063 257.996 267.86 252.364 269.084L252.015 267.475V267.51Z" fill="#EFEFEF"/>
<path d="M276.849 317.493H275.484V465.064H276.849V317.493Z" fill="#EFEFEF"/>
<path d="M295.457 317.773H294.093V463.84H295.457V317.773Z" fill="#EFEFEF"/>
<path d="M199.583 320.256H85.9053V321.62H199.583V320.256Z" fill="#EFEFEF"/>
<path d="M484.267 320.256H389.022V321.62H484.267V320.256Z" fill="#EFEFEF"/>
</g>
<defs>
<clipPath id="clip0_376_324">
<rect width="570.032" height="570.067" fill="white"/>
</clipPath>
</defs>
</svg>
