<svg width="571" height="572" viewBox="0 0 571 572" fill="none" xmlns="http://www.w3.org/2000/svg">
<g clip-path="url(#clip0_437_24)">
<path d="M167.147 491.384C167.042 493.833 165.223 495.057 163.44 495.057C161.866 495.057 159.837 494.043 159.837 491.244C159.837 488.446 162.39 487.467 163.545 487.467C166.203 487.467 167.147 490.16 167.147 491.384Z" fill="#FFEEEE"/>
<path d="M412.166 491.384C412.061 493.833 410.242 495.057 408.458 495.057C406.884 495.057 404.855 494.043 404.855 491.244C404.855 488.446 407.409 487.467 408.563 487.467C411.221 487.467 412.166 490.16 412.166 491.384Z" fill="#FFEEEE"/>
<path d="M451.411 119.99L464.737 114.814L459.106 127.93L451.411 119.956V119.99ZM432.278 118.801C431.718 119.326 431.369 119.956 431.159 120.62C430.949 121.285 430.949 121.984 431.124 122.684C431.299 123.383 431.613 124.013 432.138 124.573C432.768 125.237 433.502 125.657 434.342 125.832C435.181 126.007 436.021 125.937 436.895 125.587L443.541 123.034L455.748 135.661L453.09 141.957C452.705 142.901 452.565 143.775 452.67 144.65C452.775 145.524 453.16 146.329 453.859 147.063C454.419 147.623 455.048 148.008 455.748 148.183C456.448 148.392 457.147 148.392 457.882 148.183C458.581 148.008 459.246 147.658 459.805 147.098C460.015 146.888 460.19 146.678 460.33 146.399C460.47 146.154 460.61 145.839 460.75 145.524L473.692 113.694C474.146 112.575 474.286 111.526 474.146 110.477C474.006 109.427 473.517 108.483 472.677 107.608L472.327 107.224C471.488 106.384 470.544 105.825 469.529 105.65C468.48 105.44 467.396 105.545 466.276 105.964L433.992 117.787C433.677 117.892 433.362 118.032 433.047 118.172C432.768 118.312 432.488 118.486 432.278 118.696V118.801ZM395.936 92.0782C395.481 92.7428 395.202 93.4424 395.167 94.2119C395.097 94.9464 395.237 95.646 395.551 96.3455C395.866 97.0101 396.356 97.6047 396.985 98.0594C397.65 98.5142 398.35 98.794 399.119 98.829C399.854 98.8989 400.588 98.759 401.253 98.4792C401.952 98.1644 402.512 97.6747 402.967 97.0451L414.334 80.7804L413.845 94.7016C413.845 95.541 413.95 96.2756 414.194 96.9402C414.474 97.6047 414.929 98.1644 415.559 98.6191C416.223 99.0738 416.888 99.3186 417.622 99.3186C418.322 99.3186 419.056 99.2137 419.826 98.8989L432.943 93.5823L421.54 109.882C421.085 110.546 420.84 111.246 420.77 112.016C420.7 112.785 420.84 113.52 421.155 114.219C421.47 114.919 421.925 115.513 422.589 115.968C423.289 116.423 423.988 116.703 424.758 116.773C425.527 116.842 426.227 116.703 426.926 116.388C427.626 116.073 428.186 115.583 428.675 114.919L446.864 88.9303C447.318 88.2307 447.598 87.5311 447.668 86.7616C447.738 85.9921 447.598 85.2576 447.283 84.593C446.969 83.8935 446.479 83.2988 445.779 82.8441L444.975 82.2845C444.24 81.7948 443.541 81.48 442.771 81.41C442.037 81.3401 441.267 81.48 440.463 81.8298L421.785 89.9096L423.009 69.6575C423.079 68.888 422.939 68.1185 422.659 67.4189C422.344 66.6844 421.82 66.0548 421.05 65.4952L420.246 64.9355C419.546 64.4808 418.846 64.201 418.077 64.131C417.307 64.0611 416.573 64.201 415.908 64.5158C415.209 64.8306 414.614 65.3203 414.125 65.9849L395.866 92.0433L395.936 92.0782ZM372.046 77.8073C370.402 77.1777 369.003 76.2683 367.849 75.114C366.695 73.9598 365.855 72.6656 365.261 71.2315C364.666 69.7974 364.351 68.2234 364.351 66.6145C364.351 65.0055 364.631 63.3965 365.261 61.7875V61.6826C365.925 60.0736 366.765 58.6745 367.849 57.4853C368.933 56.296 370.157 55.3516 371.557 54.687C372.956 54.0225 374.46 53.6377 376.034 53.5678C377.643 53.4978 379.252 53.7776 380.931 54.4072C382.575 55.0368 383.974 55.9462 385.128 57.1005C386.282 58.2548 387.122 59.5489 387.716 61.018C388.311 62.4871 388.626 64.0261 388.626 65.6351C388.626 67.244 388.311 68.888 387.716 70.497V70.6019C387.052 72.2109 386.212 73.61 385.128 74.7992C384.044 75.9885 382.819 76.9329 381.42 77.5975C380.021 78.297 378.517 78.6468 376.943 78.7517C375.334 78.8217 373.725 78.5419 372.046 77.9123V77.8073ZM369.038 85.3276C371.347 86.202 373.655 86.6917 375.894 86.8316C378.167 86.9715 380.336 86.7267 382.435 86.202C384.533 85.6423 386.457 84.8029 388.276 83.6486C390.06 82.4943 391.634 81.0952 393.033 79.3813C394.397 77.7024 395.481 75.8136 396.321 73.68V73.575C397.16 71.4414 397.65 69.3077 397.755 67.1391C397.86 64.9705 397.65 62.8718 397.09 60.8431C396.531 58.7794 395.656 56.8906 394.502 55.0718C393.313 53.2879 391.844 51.679 390.095 50.2449C388.346 48.8458 386.317 47.6915 384.009 46.7821C381.7 45.9076 379.427 45.4179 377.153 45.278C374.879 45.1381 372.711 45.383 370.612 45.9426C368.514 46.5023 366.59 47.3417 364.806 48.496C363.022 49.6502 361.448 51.0494 360.049 52.7283C358.685 54.4072 357.6 56.296 356.761 58.4297V58.5346C355.922 60.6682 355.467 62.8019 355.327 64.9705C355.222 67.1391 355.432 69.2028 355.991 71.2665C356.551 73.3302 357.426 75.219 358.58 77.0378C359.769 78.8217 361.238 80.4307 362.987 81.8298C364.736 83.2289 366.765 84.3831 369.073 85.2926L369.038 85.3276ZM310.206 64.9355C310.066 65.74 310.136 66.4745 310.415 67.2091C310.695 67.9086 311.115 68.5033 311.675 69.0279C312.234 69.5176 312.934 69.8324 313.738 69.9723C314.543 70.1122 315.277 70.0423 315.977 69.7625C316.676 69.4826 317.306 69.0629 317.796 68.5033C318.285 67.9436 318.6 67.2441 318.74 66.4396L322.448 45.383L335.739 71.1266C336.054 71.7212 336.369 72.2109 336.719 72.6656C337.069 73.1203 337.523 73.5051 338.013 73.7849C338.503 74.0997 339.097 74.3096 339.797 74.4145H340.077C340.881 74.5894 341.651 74.5194 342.385 74.2746C343.085 73.9948 343.714 73.575 344.204 73.0154C344.694 72.4208 345.008 71.7562 345.183 70.9167L350.71 39.6466C350.85 38.8421 350.78 38.1076 350.5 37.408C350.22 36.7085 349.8 36.1139 349.241 35.5892C348.681 35.0995 347.982 34.7847 347.177 34.6448C346.373 34.5049 345.638 34.5748 344.939 34.8547C344.239 35.1345 343.644 35.5542 343.12 36.1139C342.63 36.6735 342.315 37.3731 342.14 38.1775L338.573 58.4646L325.736 33.6304C325.456 33.0708 325.106 32.5461 324.756 32.0914C324.372 31.6367 323.952 31.252 323.462 30.9721C322.972 30.6923 322.378 30.4475 321.678 30.3425L320.769 30.1676C319.964 30.0277 319.195 30.0977 318.46 30.3775C317.726 30.6573 317.131 31.0771 316.642 31.6367C316.152 32.2313 315.802 32.9309 315.662 33.7354L310.136 65.0055L310.206 64.9355ZM282.118 24.921C282.748 24.921 283.343 24.851 283.902 24.7461C284.462 24.6412 284.987 24.4313 285.476 24.1515C286.001 23.8717 286.526 23.4519 287.05 22.9622L290.513 19.6044C290.863 19.2896 291.143 18.9748 291.318 18.625C291.527 18.2752 291.632 17.9254 291.597 17.5407C291.597 17.1909 291.423 16.8761 291.143 16.5963C290.828 16.2815 290.443 16.0017 289.953 15.7568C289.464 15.512 288.939 15.3371 288.379 15.1972C287.82 15.0573 287.26 14.9873 286.736 14.9873C286.036 14.9873 285.406 15.1972 284.847 15.5469C284.322 15.8967 283.867 16.3864 283.518 16.981L280.475 21.9479C280.335 22.1927 280.195 22.4376 280.09 22.7174C279.985 22.9972 279.915 23.2421 279.915 23.5219C279.915 23.9766 280.16 24.3264 280.544 24.6062C280.929 24.851 281.454 24.9909 282.084 24.9909L282.118 24.921ZM283.028 60.7732C281.244 60.7732 279.635 60.4934 278.131 59.8638C276.662 59.2341 275.368 58.3597 274.248 57.2054C273.164 56.0862 272.29 54.757 271.695 53.253C271.066 51.7489 270.751 50.1399 270.716 48.426V48.3211C270.716 46.6072 270.961 44.9982 271.52 43.4942C272.08 41.9901 272.884 40.661 273.899 39.5067C274.948 38.3524 276.207 37.443 277.641 36.7784C279.11 36.1139 280.719 35.7641 282.468 35.7291C284.252 35.7291 285.861 36.0089 287.365 36.6385C288.834 37.2681 290.128 38.1426 291.248 39.2968C292.367 40.4511 293.206 41.7453 293.801 43.2493C294.431 44.7534 294.745 46.3623 294.78 48.0763V48.1812C294.78 49.8951 294.536 51.539 293.976 53.0431C293.416 54.5471 292.647 55.8763 291.597 57.0306C290.548 58.1848 289.324 59.0942 287.855 59.7588C286.386 60.4234 284.777 60.7732 283.028 60.8082V60.7732ZM283.028 68.888C285.511 68.853 287.82 68.4333 289.953 67.6988C292.087 66.9642 294.046 65.9499 295.76 64.6557C297.474 63.3615 298.978 61.8575 300.202 60.1086C301.426 58.3597 302.371 56.4709 303 54.4072C303.63 52.3435 303.945 50.1749 303.91 47.9014V47.7964C303.84 45.5229 303.49 43.3543 302.79 41.3255C302.091 39.2968 301.076 37.408 299.817 35.7291C298.523 34.0502 297.019 32.5811 295.27 31.3569C293.486 30.1327 291.527 29.1883 289.359 28.5587C287.19 27.9291 284.882 27.6143 282.433 27.6492C279.95 27.6842 277.676 28.104 275.508 28.8385C273.374 29.573 271.415 30.5874 269.701 31.8816C267.987 33.1757 266.483 34.6798 265.259 36.4287C264.035 38.1775 263.091 40.0663 262.426 42.13C261.796 44.1937 261.482 46.3623 261.517 48.6359V48.7408C261.552 51.0144 261.936 53.183 262.636 55.2117C263.335 57.2404 264.35 59.0942 265.609 60.8082C266.903 62.4871 268.407 63.9561 270.191 65.1804C271.94 66.4046 273.934 67.349 276.067 67.9786C278.236 68.6082 280.544 68.923 283.028 68.888ZM239.9 69.0279C240.04 69.8324 240.39 70.532 240.88 71.1266C241.369 71.7212 241.964 72.1409 242.699 72.3858C243.398 72.6656 244.168 72.7356 245.007 72.5956C245.812 72.4557 246.511 72.106 247.106 71.6163C247.7 71.1266 248.12 70.532 248.4 69.7974C248.645 69.0979 248.715 68.3284 248.61 67.5239L243.783 40.1713L252.108 38.7022C252.842 38.5623 253.472 38.2475 254.031 37.7928C254.556 37.3381 254.976 36.7784 255.221 36.1139C255.465 35.4493 255.535 34.7497 255.395 34.0152C255.256 33.2807 254.976 32.6511 254.486 32.0914C254.031 31.5668 253.472 31.182 252.807 30.9022C252.143 30.6573 251.443 30.5874 250.708 30.7273L225.455 35.1695C224.72 35.3094 224.09 35.5892 223.531 36.0789C223.006 36.5336 222.586 37.0932 222.342 37.7578C222.097 38.4224 222.027 39.1219 222.132 39.8565C222.272 40.591 222.586 41.2206 223.041 41.7803C223.496 42.3049 224.055 42.7247 224.72 42.9695C225.385 43.2143 226.084 43.2843 226.819 43.1794L235.143 41.7103L239.97 69.0629L239.9 69.0279ZM209.26 82.6343C211.778 81.6899 213.877 80.4656 215.626 78.9966C217.375 77.5275 218.669 75.8136 219.578 73.8898C220.488 71.966 220.907 69.7625 220.837 67.384C220.802 65.0055 220.208 62.3821 219.159 59.549L212.548 42.3049C212.233 41.5354 211.778 40.9058 211.184 40.4161C210.589 39.9264 209.924 39.6466 209.155 39.5067C208.385 39.4018 207.651 39.5067 206.846 39.7515C206.077 40.0663 205.447 40.5211 204.993 41.1157C204.503 41.7103 204.223 42.4099 204.083 43.1444C203.943 43.9139 204.048 44.6834 204.328 45.4529L211.079 63.0117C211.813 64.9705 212.128 66.7544 212.023 68.3284C211.883 69.9024 211.358 71.2665 210.414 72.3858C209.47 73.5051 208.176 74.4145 206.497 75.0441C204.818 75.6737 203.244 75.8836 201.775 75.6737C200.306 75.4288 199.011 74.7643 197.857 73.645C196.668 72.5257 195.723 70.9517 194.919 68.923L188.273 51.609C187.958 50.8395 187.504 50.2099 186.909 49.7202C186.314 49.2305 185.65 48.9507 184.88 48.8108C184.111 48.7058 183.376 48.7758 182.572 49.0556C181.802 49.3704 181.173 49.8251 180.718 50.3848C180.228 50.9794 179.948 51.679 179.809 52.4135C179.669 53.183 179.774 53.9175 180.053 54.722L186.769 72.2459C188.203 75.8836 190.022 78.7168 192.261 80.6405C194.499 82.5993 197.053 83.7536 199.921 84.0684C202.789 84.3831 205.902 83.8935 209.26 82.5993V82.6343ZM159.347 88.6504L157.073 74.5544L168.756 82.8092L159.382 88.6854L159.347 88.6504ZM154.205 107.119C154.625 107.783 155.149 108.273 155.779 108.588C156.408 108.903 157.073 109.077 157.773 109.077C158.472 109.077 159.172 108.868 159.801 108.448C160.571 107.958 161.13 107.329 161.48 106.524C161.83 105.755 161.935 104.915 161.795 103.971L160.676 96.9402L175.576 87.6361L181.173 91.5186C182.012 92.0783 182.852 92.428 183.726 92.498C184.601 92.6029 185.475 92.3581 186.349 91.8334C187.014 91.4137 187.504 90.889 187.853 90.2244C188.203 89.5599 188.343 88.8953 188.308 88.1607C188.308 87.4262 188.063 86.7267 187.644 86.0621C187.504 85.8172 187.329 85.6074 187.084 85.3975C186.874 85.1876 186.594 85.0127 186.314 84.8029L157.843 65.5301C156.863 64.8656 155.849 64.4808 154.799 64.4109C153.75 64.3409 152.736 64.6207 151.721 65.2503L151.302 65.5301C150.287 66.1597 149.588 66.9992 149.168 67.9436C148.748 68.923 148.643 70.0073 148.783 71.1965L153.645 105.23C153.68 105.58 153.75 105.894 153.82 106.209C153.89 106.524 154.03 106.804 154.17 107.084L154.205 107.119ZM117.583 135.486L100.269 118.766L104.991 113.869C106.25 112.575 107.614 111.596 109.049 110.966C110.483 110.337 111.952 109.987 113.491 109.952C114.995 109.952 116.464 110.232 117.933 110.826C119.402 111.421 120.731 112.365 122.025 113.59L122.095 113.66C123.354 114.884 124.334 116.213 124.998 117.647C125.628 119.081 125.978 120.515 126.013 122.019C126.013 123.523 125.733 124.992 125.138 126.461C124.509 127.93 123.599 129.295 122.34 130.589L117.618 135.486H117.583ZM114.015 144.265C114.61 144.825 115.275 145.209 116.044 145.384C116.779 145.559 117.513 145.559 118.248 145.384C118.982 145.174 119.647 144.79 120.206 144.195L127.972 136.15C129.72 134.331 131.12 132.408 132.134 130.414C133.183 128.42 133.848 126.356 134.198 124.258C134.547 122.159 134.547 120.095 134.198 118.067C133.883 116.038 133.218 114.079 132.239 112.19C131.259 110.337 129.965 108.623 128.356 107.049L128.286 106.979C126.258 105.02 124.019 103.586 121.571 102.642C119.122 101.697 116.604 101.277 114.015 101.417C111.427 101.522 108.874 102.152 106.355 103.341C103.837 104.495 101.493 106.244 99.2898 108.483L91.5247 116.528C90.9651 117.122 90.5803 117.787 90.4054 118.521C90.2306 119.256 90.2306 120.025 90.4404 120.725C90.6503 121.46 91.035 122.124 91.6297 122.719L114.015 144.335V144.265ZM86.348 162.873L78.3031 151.051L92.3642 153.604L86.348 162.873ZM89.496 181.796C90.1606 182.216 90.8252 182.426 91.5247 182.461C92.2243 182.496 92.8889 182.356 93.5534 182.041C94.183 181.726 94.7077 181.271 95.1624 180.607C95.6521 179.837 95.8969 179.033 95.862 178.158C95.862 177.319 95.5821 176.515 95.0575 175.71L91.07 169.799L100.654 155.073L107.37 156.227C108.349 156.402 109.258 156.332 110.098 156.053C110.937 155.773 111.637 155.213 112.197 154.339C112.616 153.674 112.826 152.974 112.861 152.24C112.861 151.505 112.756 150.841 112.406 150.176C112.092 149.512 111.567 148.987 110.937 148.532C110.693 148.392 110.448 148.253 110.133 148.148C109.853 148.043 109.538 147.973 109.188 147.938L75.2601 142.481C74.0708 142.306 72.9865 142.376 72.0421 142.761C71.0627 143.146 70.2583 143.845 69.5937 144.825L69.3139 145.244C68.6843 146.259 68.3695 147.273 68.4044 148.357C68.4394 149.407 68.7892 150.456 69.4538 151.47L88.2368 180.257C88.4117 180.537 88.6216 180.817 88.8314 181.062C89.0413 181.306 89.2862 181.516 89.531 181.691L89.496 181.796ZM74.0359 207.085L51.72 198.061L54.2734 191.765C54.973 190.086 55.8474 188.687 56.9317 187.533C58.016 186.378 59.2752 185.504 60.6744 184.944C62.0385 184.35 63.5425 184.07 65.1165 184.105C66.6905 184.105 68.2995 184.454 69.9435 185.119H70.0484C71.6923 185.854 73.0915 186.693 74.2107 187.777C75.33 188.862 76.2045 190.086 76.7641 191.45C77.3587 192.849 77.6386 194.318 77.6036 195.892C77.6036 197.466 77.2188 199.11 76.5543 200.789L74.0009 207.085H74.0359ZM74.0359 216.564C74.8054 216.879 75.5749 216.949 76.3094 216.844C77.0789 216.739 77.7435 216.459 78.3731 215.969C78.9677 215.515 79.4224 214.885 79.7722 214.116L83.9695 203.762C84.9139 201.419 85.4736 199.145 85.6834 196.872C85.8933 194.633 85.7534 192.464 85.2987 190.401C84.844 188.337 84.0745 186.413 82.9902 184.664C81.9058 182.88 80.5767 181.341 78.9677 179.942C77.3587 178.578 75.5049 177.494 73.4062 176.619H73.3013C70.678 175.535 68.0547 175.045 65.4663 175.08C62.843 175.115 60.3596 175.675 58.016 176.759C55.6376 177.844 53.5039 179.383 51.6151 181.411C49.7263 183.44 48.1873 185.924 46.9631 188.827L42.7657 199.18C42.4509 199.95 42.381 200.719 42.4859 201.454C42.5909 202.223 42.8707 202.888 43.3604 203.482C43.8501 204.112 44.4447 204.567 45.2142 204.881L74.0708 216.529L74.0359 216.564ZM70.3632 233.074C71.1677 233.283 71.9372 233.318 72.6717 233.109C73.4062 232.934 74.0708 232.584 74.5955 232.024C75.1551 231.5 75.5399 230.835 75.7847 230.065C75.9946 229.261 76.0296 228.491 75.8197 227.757C75.6448 227.022 75.295 226.358 74.7354 225.798C74.2107 225.239 73.5462 224.854 72.7417 224.609L42.1711 215.829C41.3666 215.62 40.5971 215.585 39.8626 215.795C39.1281 216.004 38.4635 216.354 37.9038 216.879C37.3442 217.404 36.9594 218.068 36.7146 218.838C36.5047 219.642 36.4698 220.412 36.6796 221.146C36.8545 221.881 37.2393 222.545 37.7639 223.07C38.2886 223.63 38.9532 224.014 39.7577 224.259L70.3282 233.039L70.3632 233.074ZM71.1677 254.095C71.4825 251.962 71.4825 249.968 71.1677 248.114C70.8879 246.26 70.2932 244.616 69.4538 243.182C68.6143 241.748 67.46 240.559 66.0259 239.649C64.6268 238.74 62.9129 238.145 60.9542 237.865H60.8492C59.1353 237.621 57.5963 237.691 56.2672 238.04C54.938 238.425 53.7138 239.09 52.6644 239.999C51.6151 240.944 50.6357 242.133 49.7613 243.602C48.8869 245.071 48.0474 246.785 47.2429 248.709C46.5783 250.353 45.9837 251.682 45.459 252.766C44.9344 253.815 44.4447 254.655 43.99 255.214C43.5353 255.809 43.0456 256.194 42.5559 256.369C42.0662 256.544 41.5065 256.614 40.842 256.509H40.737C40.0725 256.404 39.5478 256.124 39.0581 255.669C38.6034 255.214 38.2536 254.585 38.0787 253.78C37.8689 252.976 37.8689 252.031 38.0088 250.912C38.1837 249.548 38.6384 248.219 39.268 246.925C39.9325 245.596 40.772 244.301 41.8213 242.972C42.0662 242.657 42.2761 242.343 42.416 241.993C42.5559 241.643 42.6608 241.258 42.7308 240.839C42.8357 240.069 42.7308 239.37 42.4859 238.705C42.2061 238.04 41.8213 237.481 41.2617 237.061C40.7021 236.606 40.0725 236.326 39.3029 236.222C38.7433 236.152 38.2186 236.187 37.7289 236.291C37.2742 236.431 36.8545 236.606 36.4697 236.851C36.12 237.096 35.8052 237.376 35.5603 237.656C34.1612 239.265 33.0419 241.083 32.1325 243.077C31.2231 245.071 30.6285 247.274 30.2787 249.688C29.9989 251.717 30.0338 253.605 30.3486 255.389C30.6634 257.138 31.2581 258.712 32.1325 260.111C33.007 261.475 34.1262 262.63 35.4904 263.504C36.8545 264.379 38.4285 264.938 40.2473 265.218H40.3523C42.311 265.498 43.99 265.428 45.3891 264.973C46.7882 264.553 48.0124 263.819 49.0617 262.805C50.1111 261.79 51.0555 260.496 51.86 258.992C52.6994 257.488 53.5039 255.739 54.2734 253.815C54.938 252.241 55.4976 250.947 56.0223 249.968C56.547 248.953 57.0367 248.219 57.4914 247.694C57.9461 247.17 58.4358 246.855 58.8905 246.68C59.3802 246.54 59.8699 246.505 60.3945 246.575H60.4995C61.6537 246.75 62.4932 247.414 63.0179 248.499C63.5425 249.583 63.6824 251.017 63.4376 252.836C63.1578 254.76 62.5981 256.509 61.7237 258.083C60.8492 259.657 59.7649 261.126 58.4358 262.455C58.1909 262.7 57.9461 263.014 57.7362 263.399C57.5264 263.784 57.3864 264.274 57.2815 264.833C57.1766 265.603 57.2815 266.302 57.5264 266.967C57.8062 267.632 58.1909 268.191 58.7506 268.611C59.3102 269.066 59.9398 269.345 60.7093 269.45C61.4089 269.52 62.0385 269.45 62.6681 269.241C63.2977 269.031 63.7874 268.716 64.2071 268.261C65.4663 266.932 66.5506 265.498 67.495 263.994C68.4394 262.455 69.2089 260.846 69.7686 259.202C70.3632 257.523 70.7829 255.844 71.0278 254.095H71.1677ZM47.8725 298.377L36.3998 298.587L36.2599 289.877C36.2599 288.443 36.4348 287.219 36.8195 286.17C37.2393 285.12 37.8689 284.316 38.6733 283.756C39.5128 283.197 40.5621 282.882 41.8213 282.847H41.9263C43.0456 282.847 44.0599 283.092 44.8994 283.581C45.7389 284.106 46.4384 284.841 46.9281 285.82C47.4178 286.834 47.6626 288.024 47.6976 289.458L47.8375 298.342L47.8725 298.377ZM64.5219 306.877C65.3614 306.877 66.0959 306.632 66.7255 306.247C67.3901 305.862 67.9147 305.338 68.2645 304.638C68.6493 303.973 68.8242 303.239 68.8242 302.399C68.8242 301.56 68.5793 300.825 68.1946 300.196C67.8098 299.531 67.2502 299.007 66.5856 298.657C65.921 298.307 65.1865 298.097 64.347 298.097L55.6376 298.237L55.5326 291.207L66.2008 282.462C66.8654 281.937 67.3901 281.343 67.8098 280.643C68.2295 279.944 68.4044 279.104 68.4044 278.09C68.4044 277.39 68.1946 276.691 67.8798 276.096C67.53 275.467 67.0753 274.977 66.4457 274.592C65.8161 274.207 65.1165 274.032 64.312 274.032C63.6475 274.032 63.0528 274.172 62.5282 274.452C62.0035 274.732 61.4788 275.082 60.9542 275.502L53.6438 281.728C52.9443 280.119 52.0698 278.719 50.9156 277.53C49.7963 276.376 48.4321 275.467 46.8581 274.837C45.2841 274.207 43.4303 273.928 41.3317 273.928H41.2267C39.3379 273.963 37.624 274.277 36.085 274.907C34.546 275.502 33.2518 276.411 32.1325 277.53C30.8383 278.859 29.859 280.503 29.1944 282.462C28.5298 284.421 28.215 286.694 28.285 289.213L28.5298 303.064C28.5298 303.903 28.7746 304.638 29.1594 305.268C29.5442 305.932 30.1038 306.457 30.7684 306.807C31.433 307.191 32.2025 307.366 33.007 307.366L64.4869 306.807L64.5219 306.877ZM73.6161 337.342L69.7336 315.271C69.5937 314.537 69.3139 313.942 68.8591 313.417C68.4044 312.893 67.8798 312.508 67.2502 312.263C66.6206 312.018 65.956 311.948 65.2215 312.053C64.5219 312.193 63.8923 312.473 63.3676 312.928C62.843 313.382 62.4582 313.907 62.2134 314.572C61.9685 315.236 61.8986 315.901 62.0385 316.635L65.1865 334.439L56.9317 335.908L54.2734 320.903C54.1335 320.168 53.8537 319.573 53.399 319.049C52.9443 318.524 52.4196 318.139 51.79 317.895C51.1604 317.65 50.4958 317.58 49.7613 317.72C49.0268 317.86 48.4321 318.139 47.9075 318.594C47.3828 319.049 46.9981 319.573 46.7532 320.203C46.5084 320.868 46.4384 321.532 46.5783 322.267L49.2366 337.272L41.2617 338.671L38.1837 321.147C38.0437 320.413 37.7639 319.818 37.3092 319.294C36.8545 318.769 36.3298 318.384 35.7002 318.139C35.0706 317.895 34.4061 317.825 33.6715 317.965C32.972 318.104 32.3424 318.384 31.8177 318.839C31.293 319.294 30.9083 319.818 30.6634 320.483C30.4186 321.147 30.3486 321.812 30.4886 322.547L34.3361 344.338C34.476 345.142 34.8258 345.842 35.3155 346.436C35.8052 347.031 36.4348 347.451 37.1343 347.696C37.8689 347.975 38.6384 348.045 39.4429 347.905L70.1183 342.484C70.9228 342.344 71.6224 341.994 72.217 341.505C72.8116 341.015 73.2314 340.42 73.5112 339.686C73.756 338.986 73.826 338.217 73.6861 337.377L73.6161 337.342ZM83.27 363.61L83.0601 363.086C82.6404 361.966 81.9758 361.127 81.1014 360.567C80.2269 360.008 79.2126 359.728 78.0233 359.693L44.1649 358.714C43.885 358.714 43.5702 358.714 43.2205 358.714C42.8707 358.749 42.5209 358.819 42.2061 358.958C41.4716 359.238 40.842 359.693 40.3873 360.288C39.9325 360.882 39.6527 361.547 39.5478 362.281C39.4429 363.016 39.5478 363.75 39.7926 364.52C40.0725 365.184 40.4222 365.709 40.842 366.164C41.2967 366.584 41.7864 366.933 42.311 367.143C42.8357 367.353 43.3604 367.493 43.885 367.493L71.9022 367.563L51.3703 386.136C50.8806 386.556 50.5308 387.046 50.216 387.605C49.9362 388.165 49.7613 388.759 49.7263 389.389C49.6913 390.019 49.7963 390.718 50.0761 391.418C50.3909 392.187 50.8106 392.817 51.4052 393.272C51.9999 393.761 52.6644 394.076 53.399 394.181C54.1335 394.321 54.903 394.251 55.6725 393.936C56.0223 393.796 56.3371 393.621 56.6169 393.411C56.8968 393.202 57.1766 392.957 57.4564 392.712L81.731 369.522C82.5704 368.717 83.1301 367.808 83.4099 366.793C83.6897 365.814 83.6198 364.765 83.2 363.645L83.27 363.61ZM92.0144 394.251C92.749 393.866 93.3436 393.377 93.7633 392.747C94.183 392.117 94.4279 391.418 94.4978 390.648C94.5678 389.879 94.4279 389.144 94.0781 388.375C93.6934 387.64 93.2037 387.046 92.5741 386.626C91.9445 386.206 91.2449 385.961 90.4754 385.891C89.7059 385.856 88.9714 385.996 88.2018 386.346L59.59 400.302C58.8555 400.687 58.2609 401.177 57.8412 401.806C57.4214 402.436 57.1766 403.135 57.1066 403.905C57.0367 404.674 57.2116 405.409 57.5613 406.143C57.9461 406.878 58.4358 407.473 59.0654 407.892C59.695 408.312 60.3945 408.557 61.164 408.627C61.9335 408.697 62.7031 408.522 63.4376 408.172L92.0494 394.216L92.0144 394.251ZM116.149 430.278C116.814 429.788 117.303 429.229 117.618 428.529C117.933 427.83 118.073 427.13 118.003 426.361C117.933 425.626 117.688 424.891 117.233 424.227C116.744 423.562 116.184 423.073 115.484 422.758C114.785 422.443 114.085 422.303 113.316 422.373C112.581 422.443 111.847 422.688 111.182 423.143L93.6584 435.42L102.473 407.822C102.648 407.193 102.823 406.598 102.858 406.038C102.927 405.444 102.858 404.884 102.753 404.325C102.613 403.765 102.368 403.205 101.948 402.611L101.773 402.366C101.284 401.701 100.689 401.212 99.9893 400.862C99.2898 400.547 98.5902 400.407 97.8207 400.477C97.0512 400.547 96.3517 400.792 95.6521 401.281L69.6287 419.505C68.9641 419.96 68.4744 420.554 68.1946 421.254C67.8798 421.953 67.7748 422.653 67.8098 423.422C67.8798 424.157 68.1246 424.891 68.5793 425.556C69.069 426.221 69.6287 426.71 70.3282 427.025C71.0278 427.34 71.7273 427.48 72.4968 427.41C73.2314 427.34 73.9659 427.095 74.6305 426.64L91.4897 414.818L82.9902 441.436C82.7803 442.031 82.6754 442.66 82.6054 443.22C82.5354 443.779 82.6054 444.374 82.7103 444.934C82.8502 445.493 83.0951 446.088 83.5148 446.648L84.0395 447.382C84.5292 448.047 85.1238 448.536 85.7884 448.851C86.4879 449.166 87.2225 449.306 87.957 449.236C88.7265 449.166 89.461 448.921 90.1256 448.431L116.149 430.208V430.278ZM137.346 444.514C135.422 442.66 133.428 441.226 131.364 440.282C129.301 439.337 127.202 438.848 125.068 438.883C122.935 438.883 120.766 439.442 118.632 440.492C116.499 441.541 114.365 443.185 112.232 445.318L99.3947 458.61C98.8351 459.205 98.4503 459.869 98.2754 460.639C98.1005 461.373 98.1005 462.108 98.3104 462.842C98.5203 463.577 98.905 464.241 99.4997 464.836C100.094 465.396 100.759 465.78 101.493 465.955C102.228 466.13 102.997 466.13 103.697 465.92C104.432 465.711 105.096 465.326 105.691 464.731L118.772 451.195C120.241 449.691 121.711 448.641 123.215 448.117C124.719 447.592 126.153 447.487 127.587 447.872C129.021 448.257 130.35 449.061 131.644 450.32C132.938 451.579 133.778 452.909 134.198 454.343C134.617 455.777 134.547 457.246 134.023 458.785C133.498 460.324 132.484 461.863 130.98 463.437L118.108 476.763C117.548 477.358 117.163 478.023 116.989 478.792C116.814 479.527 116.814 480.261 117.024 481.031C117.233 481.765 117.618 482.43 118.213 482.99C118.807 483.549 119.472 483.934 120.206 484.109C120.976 484.284 121.711 484.284 122.41 484.074C123.145 483.864 123.809 483.479 124.404 482.885L137.451 469.383C140.144 466.55 141.928 463.717 142.767 460.849C143.607 457.98 143.572 455.217 142.627 452.454C141.683 449.726 139.934 447.102 137.346 444.584V444.514Z" fill="#FFEEEE"/>
<path d="M436.441 443.64L419.512 458.331C418.952 458.82 418.602 459.38 418.357 460.045C418.147 460.674 418.077 461.339 418.217 462.003C418.322 462.668 418.637 463.297 419.092 463.857C419.581 464.417 420.141 464.767 420.806 465.011C421.47 465.221 422.1 465.291 422.799 465.151C423.464 465.011 424.094 464.732 424.653 464.242L438.295 452.384L443.786 458.715L432.278 468.719C431.719 469.209 431.334 469.768 431.124 470.433C430.914 471.063 430.844 471.727 430.984 472.392C431.089 473.056 431.404 473.686 431.859 474.245C432.348 474.805 432.908 475.155 433.573 475.4C434.237 475.61 434.867 475.645 435.566 475.54C436.231 475.4 436.86 475.12 437.42 474.63L448.928 464.627L454.244 470.748L440.813 482.43C440.253 482.92 439.869 483.48 439.659 484.109C439.449 484.739 439.379 485.403 439.519 486.068C439.624 486.733 439.938 487.362 440.393 487.922C440.883 488.481 441.443 488.866 442.107 489.076C442.772 489.286 443.436 489.356 444.101 489.216C444.8 489.076 445.395 488.796 445.955 488.307L462.639 473.791C463.269 473.231 463.688 472.602 463.933 471.902C464.178 471.167 464.248 470.433 464.108 469.698C463.968 468.929 463.618 468.264 463.094 467.635L442.667 444.13C442.107 443.5 441.478 443.08 440.743 442.835C440.008 442.591 439.274 442.521 438.539 442.661C437.805 442.801 437.105 443.15 436.476 443.675M465.647 422.723L472.678 428.005L466.557 436.12C465.192 437.904 463.898 438.988 462.674 439.373C461.415 439.757 460.261 439.513 459.211 438.708L459.106 438.638C458.302 438.044 457.812 437.344 457.602 436.574C457.392 435.805 457.427 434.931 457.742 434.021C458.057 433.112 458.582 432.132 459.386 431.083L465.647 422.758V422.723ZM478.484 432.412L485.235 437.484L480.023 444.409C478.904 445.879 477.749 446.823 476.595 447.173C475.441 447.523 474.322 447.313 473.272 446.543L473.167 446.473C472.398 445.879 471.908 445.179 471.698 444.409C471.523 443.64 471.593 442.766 471.908 441.856C472.223 440.912 472.818 439.932 473.587 438.918L478.449 432.447L478.484 432.412ZM468.131 413.909C467.466 413.419 466.766 413.139 465.997 413.034C465.227 412.93 464.493 413.034 463.793 413.349C463.094 413.629 462.499 414.119 461.974 414.783L453.195 426.431C451.831 428.25 450.782 429.999 450.047 431.748C449.313 433.461 448.893 435.14 448.858 436.749C448.788 438.358 449.103 439.827 449.767 441.227C450.432 442.626 451.516 443.85 452.95 444.969L453.055 445.039C454.489 446.088 455.853 446.753 457.218 447.033C458.582 447.313 459.911 447.243 461.275 446.858C462.604 446.473 464.003 445.844 465.367 444.969C465.192 446.053 465.192 447.138 465.332 448.222C465.472 449.306 465.822 450.391 466.417 451.405C467.011 452.454 467.886 453.399 469.075 454.308L469.18 454.378C470.264 455.218 471.418 455.777 472.573 456.092C473.762 456.407 474.951 456.477 476.245 456.302C477.854 456.092 479.428 455.427 480.967 454.413C482.506 453.364 483.975 451.93 485.34 450.111L493.839 438.813C494.329 438.148 494.609 437.449 494.714 436.679C494.784 435.91 494.714 435.175 494.399 434.476C494.119 433.776 493.629 433.147 492.965 432.657L468.096 413.909H468.131ZM476.7 399.743C476.001 399.323 475.266 399.078 474.497 399.078C473.727 399.078 473.027 399.218 472.328 399.568C471.663 399.918 471.104 400.442 470.649 401.142C470.229 401.842 469.984 402.576 469.984 403.346C469.984 404.115 470.124 404.815 470.474 405.514C470.824 406.179 471.348 406.738 472.048 407.193L499.016 424.052C499.715 424.472 500.45 424.717 501.22 424.752C501.989 424.752 502.689 424.612 503.388 424.227C504.053 423.878 504.612 423.353 505.067 422.653C505.487 421.954 505.732 421.219 505.767 420.45C505.767 419.68 505.627 418.946 505.277 418.281C504.927 417.582 504.402 417.022 503.703 416.602L476.7 399.743ZM505.907 379.141L516.365 383.793L512.797 391.768C512.203 393.097 511.538 394.111 510.698 394.881C509.894 395.651 508.985 396.105 507.97 396.28C506.991 396.455 505.907 396.28 504.752 395.755H504.647C503.633 395.266 502.829 394.601 502.269 393.797C501.709 392.957 501.429 392.013 501.394 390.894C501.394 389.774 501.639 388.585 502.234 387.256L505.837 379.141H505.907ZM494.434 364.415C493.664 364.101 492.93 363.961 492.16 364.066C491.391 364.136 490.726 364.415 490.097 364.87C489.467 365.325 488.977 365.919 488.662 366.654C488.348 367.423 488.208 368.158 488.313 368.928C488.383 369.697 488.662 370.397 489.117 370.991C489.572 371.621 490.167 372.075 490.901 372.425L498.876 375.958L496.008 382.359L482.646 385.752C481.842 385.927 481.072 386.276 480.408 386.731C479.743 387.186 479.219 387.885 478.799 388.795C478.519 389.459 478.379 390.124 478.449 390.824C478.484 391.523 478.729 392.188 479.114 392.817C479.498 393.412 480.093 393.902 480.827 394.251C481.457 394.531 482.052 394.636 482.611 394.636C483.206 394.636 483.801 394.496 484.465 394.321L493.734 391.768C493.699 393.517 493.909 395.161 494.434 396.7C494.958 398.239 495.798 399.603 496.987 400.862C498.176 402.086 499.715 403.136 501.604 404.01H501.709C503.423 404.815 505.137 405.234 506.746 405.339C508.39 405.444 509.964 405.199 511.433 404.64C513.182 403.975 514.756 402.891 516.19 401.387C517.624 399.883 518.848 397.959 519.863 395.65L525.494 382.989C525.809 382.219 525.949 381.485 525.844 380.715C525.774 379.945 525.494 379.246 525.039 378.651C524.585 378.022 523.99 377.532 523.256 377.182L494.504 364.38L494.434 364.415ZM514.966 337.448L526.543 345.807L512.447 348.221L514.931 337.448H514.966ZM505.522 320.763C504.752 320.588 504.053 320.623 503.388 320.833C502.724 321.043 502.129 321.393 501.639 321.917C501.15 322.442 500.8 323.037 500.625 323.806C500.415 324.716 500.485 325.555 500.8 326.36C501.115 327.129 501.639 327.829 502.409 328.388L508.18 332.586L504.228 349.69L497.512 350.879C496.533 351.054 495.693 351.439 494.993 351.998C494.329 352.558 493.839 353.327 493.594 354.307C493.419 355.076 493.454 355.811 493.699 356.51C493.909 357.21 494.294 357.805 494.854 358.294C495.378 358.784 496.043 359.134 496.812 359.309C497.092 359.379 497.372 359.414 497.687 359.379C497.967 359.379 498.316 359.309 498.631 359.274L532.385 352.768C533.574 352.558 534.553 352.068 535.323 351.404C536.092 350.704 536.617 349.795 536.897 348.605L537.002 348.116C537.247 346.961 537.212 345.877 536.792 344.898C536.407 343.918 535.708 343.044 534.763 342.344L507.271 321.708C506.991 321.498 506.711 321.323 506.431 321.148C506.151 320.973 505.837 320.868 505.557 320.798L505.522 320.763ZM502.689 301.945C502.549 304.044 502.619 305.968 502.898 307.681C503.178 309.395 503.633 310.969 504.298 312.403C504.962 313.838 505.767 315.167 506.711 316.426C507.026 316.846 507.446 317.23 507.935 317.545C508.46 317.86 509.055 318.07 509.719 318.105C510.454 318.14 511.153 318 511.783 317.685C512.412 317.37 512.937 316.916 513.357 316.321C513.742 315.726 513.986 315.062 514.056 314.327C514.056 313.803 514.056 313.313 513.881 312.858C513.742 312.403 513.532 311.984 513.287 311.634C512.692 310.76 512.168 309.885 511.783 308.976C511.398 308.066 511.083 307.122 510.908 306.107C510.733 305.093 510.698 303.974 510.768 302.75C510.908 301.036 511.328 299.497 512.098 298.133C512.867 296.768 513.846 295.614 515.071 294.67C516.295 293.725 517.659 293.026 519.233 292.571C520.772 292.116 522.416 291.942 524.13 292.081H524.235C525.949 292.221 527.558 292.606 528.992 293.306C530.461 293.97 531.685 294.88 532.769 295.964C533.819 297.083 534.623 298.377 535.183 299.811C535.743 301.246 535.952 302.82 535.847 304.533C535.743 306.107 535.393 307.507 534.798 308.801C534.238 310.095 533.434 311.319 532.42 312.473C532.175 312.753 531.965 313.103 531.755 313.523C531.545 313.943 531.405 314.432 531.37 315.027C531.335 315.831 531.475 316.566 531.79 317.265C532.105 317.965 532.595 318.49 533.189 318.944C533.819 319.364 534.518 319.609 535.323 319.679C536.092 319.679 536.792 319.574 537.421 319.294C538.051 319.014 538.541 318.63 538.926 318.21C539.835 317.16 540.604 316.041 541.304 314.747C542.004 313.488 542.563 312.089 543.018 310.515C543.473 308.941 543.752 307.157 543.892 305.163C544.067 302.715 543.892 300.406 543.333 298.237C542.773 296.069 541.934 294.075 540.779 292.291C539.625 290.507 538.261 288.933 536.617 287.604C535.008 286.275 533.154 285.226 531.16 284.421C529.167 283.617 527.033 283.162 524.725 282.987H524.62C522.311 282.812 520.143 282.987 518.009 283.512C515.91 284.037 513.951 284.841 512.203 285.925C510.419 287.045 508.845 288.374 507.481 289.983C506.116 291.592 505.032 293.411 504.193 295.404C503.353 297.433 502.863 299.602 502.689 301.945ZM502.863 235.662C502.059 235.837 501.359 236.152 500.8 236.677C500.205 237.166 499.82 237.796 499.541 238.53C499.296 239.23 499.226 240 499.401 240.839L503.353 261.091C503.493 261.826 503.808 262.455 504.263 262.98C504.717 263.505 505.277 263.889 505.941 264.099C506.606 264.344 507.306 264.379 508.04 264.239C508.775 264.099 509.404 263.784 509.929 263.33C510.454 262.875 510.838 262.315 511.048 261.651C511.293 260.986 511.328 260.287 511.188 259.552L508.075 243.602L535.463 238.286C536.267 238.111 536.967 237.796 537.526 237.271C538.086 236.747 538.506 236.152 538.751 235.417C538.995 234.683 539.065 233.948 538.891 233.109C538.716 232.304 538.401 231.605 537.876 231.045C537.352 230.451 536.757 230.066 536.022 229.821C535.288 229.576 534.518 229.506 533.714 229.646L502.828 235.662H502.863ZM488.942 206.841L496.253 228.037C496.498 228.737 496.882 229.296 497.407 229.751C497.932 230.206 498.526 230.486 499.191 230.626C499.855 230.765 500.52 230.73 501.22 230.486C501.919 230.241 502.479 229.856 502.933 229.331C503.388 228.807 503.668 228.212 503.808 227.547C503.948 226.883 503.913 226.183 503.668 225.484L497.792 208.38L505.732 205.651L510.698 220.062C510.943 220.762 511.328 221.321 511.853 221.776C512.377 222.231 512.972 222.511 513.637 222.651C514.301 222.79 514.966 222.756 515.665 222.511C516.365 222.266 516.925 221.881 517.379 221.356C517.834 220.832 518.114 220.237 518.254 219.573C518.394 218.873 518.359 218.208 518.114 217.509L513.147 203.098L520.807 200.475L526.613 217.299C526.858 217.999 527.243 218.558 527.768 219.013C528.292 219.468 528.887 219.747 529.551 219.887C530.216 220.027 530.881 219.992 531.58 219.747C532.28 219.503 532.839 219.118 533.294 218.593C533.749 218.068 534.029 217.474 534.169 216.809C534.308 216.11 534.273 215.445 534.029 214.746L526.823 193.829C526.543 193.059 526.124 192.43 525.529 191.905C524.934 191.415 524.27 191.066 523.535 190.926C522.766 190.786 522.031 190.821 521.227 191.101L491.776 201.244C491.006 201.524 490.376 201.944 489.852 202.538C489.362 203.098 489.012 203.763 488.872 204.532C488.732 205.267 488.767 206.036 489.047 206.841H488.942ZM478.799 169.205L499.436 156.822L502.933 162.629C503.843 164.168 504.437 165.742 504.717 167.281C504.997 168.855 504.927 170.359 504.542 171.828C504.158 173.262 503.493 174.626 502.549 175.885C501.569 177.145 500.345 178.194 498.806 179.138L498.701 179.208C497.162 180.118 495.623 180.712 494.084 180.957C492.545 181.202 491.041 181.167 489.607 180.782C488.138 180.397 486.809 179.768 485.549 178.788C484.29 177.809 483.206 176.55 482.297 175.011L478.799 169.205ZM471.244 163.503C470.544 163.923 470.019 164.483 469.635 165.147C469.25 165.812 469.075 166.546 469.075 167.316C469.075 168.085 469.285 168.82 469.705 169.519L475.476 179.103C476.77 181.272 478.274 183.091 479.953 184.595C481.632 186.099 483.451 187.323 485.375 188.197C487.298 189.072 489.292 189.597 491.356 189.841C493.419 190.051 495.483 189.911 497.547 189.457C499.611 188.967 501.604 188.163 503.528 187.008L503.633 186.938C506.046 185.469 508.005 183.685 509.544 181.587C511.083 179.488 512.133 177.145 512.692 174.626C513.252 172.108 513.322 169.449 512.832 166.721C512.342 163.993 511.293 161.265 509.684 158.536L503.913 148.952C503.493 148.253 502.933 147.728 502.269 147.343C501.604 146.959 500.87 146.784 500.135 146.819C499.366 146.819 498.631 147.029 497.897 147.448L471.209 163.468L471.244 163.503Z" fill="#FFEEEE"/>
<path d="M384.918 510.203L384.673 503.522L389.64 507.999L384.953 510.168L384.918 510.203ZM381.49 518.492C381.63 518.807 381.84 519.087 382.12 519.262C382.4 519.437 382.68 519.577 383.029 519.612C383.344 519.612 383.694 519.612 384.009 519.437C384.394 519.262 384.708 518.982 384.883 518.632C385.093 518.282 385.198 517.898 385.163 517.443L385.058 514.12L392.508 510.657L394.887 512.791C395.237 513.106 395.621 513.316 396.006 513.386C396.391 513.49 396.811 513.421 397.265 513.246C397.615 513.071 397.86 512.861 398.035 512.581C398.21 512.301 398.35 511.986 398.35 511.637C398.385 511.287 398.35 510.972 398.175 510.622C398.105 510.517 398.035 510.377 397.965 510.272C397.86 510.168 397.755 510.063 397.65 509.958L385.513 499.394C385.093 499.01 384.638 498.8 384.149 498.695C383.659 498.59 383.169 498.695 382.68 498.905L382.47 499.01C381.945 499.255 381.595 499.569 381.35 500.024C381.106 500.444 380.966 500.933 381.001 501.493L381.315 517.583C381.315 517.583 381.316 517.898 381.35 518.073C381.35 518.212 381.42 518.352 381.455 518.492H381.49ZM366.52 523.389C366.66 523.739 366.87 524.054 367.15 524.264C367.429 524.508 367.744 524.648 368.094 524.718C368.444 524.788 368.793 524.718 369.178 524.613L378.272 521.325C378.587 521.186 378.867 521.011 379.077 520.766C379.287 520.521 379.427 520.241 379.462 519.926C379.532 519.612 379.462 519.297 379.392 518.947C379.252 518.632 379.077 518.352 378.832 518.142C378.587 517.933 378.307 517.793 377.993 517.758C377.678 517.688 377.363 517.758 377.013 517.828L369.878 520.416L365.401 508.139C365.261 507.789 365.051 507.474 364.771 507.264C364.491 507.055 364.176 506.88 363.827 506.845C363.477 506.775 363.127 506.845 362.742 506.95C362.393 507.09 362.078 507.299 361.868 507.579C361.623 507.859 361.483 508.174 361.413 508.524C361.343 508.873 361.378 509.223 361.518 509.608L366.555 523.459L366.52 523.389ZM350.185 528.566C350.29 528.951 350.465 529.23 350.745 529.475C350.99 529.72 351.305 529.895 351.654 530C352.004 530.07 352.354 530.07 352.739 530L362.043 527.342C362.393 527.237 362.672 527.062 362.882 526.817C363.092 526.572 363.267 526.292 363.337 525.978C363.407 525.663 363.407 525.348 363.337 524.998C363.232 524.648 363.057 524.369 362.847 524.159C362.602 523.949 362.323 523.774 362.008 523.704C361.693 523.634 361.378 523.634 361.028 523.704L353.718 525.803L350.115 513.246C350.01 512.861 349.836 512.546 349.556 512.301C349.311 512.056 348.996 511.881 348.646 511.812C348.297 511.742 347.947 511.742 347.562 511.812C347.177 511.916 346.862 512.091 346.618 512.371C346.373 512.651 346.198 512.931 346.128 513.281C346.058 513.63 346.058 513.98 346.128 514.365L350.185 528.531V528.566ZM341.021 530.909C341.126 531.294 341.266 531.609 341.511 531.854C341.756 532.134 342.035 532.308 342.385 532.413C342.735 532.518 343.085 532.553 343.47 532.448C343.854 532.343 344.169 532.204 344.414 531.959C344.694 531.714 344.869 531.434 344.974 531.084C345.079 530.734 345.079 530.385 344.974 530L341.616 515.484C341.511 515.099 341.336 514.785 341.091 514.54C340.846 514.295 340.566 514.085 340.217 513.98C339.867 513.875 339.517 513.875 339.132 513.98C338.748 514.085 338.433 514.225 338.188 514.47C337.908 514.715 337.733 514.994 337.628 515.344C337.523 515.694 337.523 516.044 337.593 516.429L340.951 530.944L341.021 530.909ZM328.289 535.666C329.513 535.421 330.598 535.037 331.542 534.512C332.452 533.987 333.221 533.288 333.781 532.483C334.34 531.644 334.725 530.7 334.9 529.58C335.075 528.461 335.005 527.237 334.76 525.838L333.116 517.338C333.046 516.953 332.871 516.638 332.661 516.359C332.417 516.079 332.137 515.904 331.787 515.764C331.437 515.659 331.087 515.624 330.703 515.694C330.318 515.764 330.003 515.939 329.723 516.184C329.444 516.429 329.269 516.708 329.129 517.058C329.024 517.408 328.989 517.758 329.059 518.142L330.738 526.782C330.913 527.761 330.913 528.601 330.738 529.3C330.563 530.035 330.178 530.595 329.653 531.049C329.129 531.504 328.464 531.784 327.625 531.959C326.785 532.134 326.051 532.099 325.386 531.854C324.722 531.609 324.197 531.224 323.742 530.595C323.287 530 322.973 529.195 322.763 528.181L321.119 519.682C321.049 519.297 320.874 518.982 320.629 518.702C320.384 518.422 320.104 518.247 319.755 518.108C319.405 518.003 319.055 517.968 318.67 518.038C318.286 518.108 317.971 518.282 317.691 518.492C317.411 518.737 317.236 519.017 317.096 519.367C316.991 519.717 316.956 520.066 317.026 520.451L318.705 529.056C319.055 530.839 319.685 532.308 320.559 533.393C321.434 534.477 322.518 535.212 323.812 535.596C325.106 535.981 326.575 536.016 328.254 535.666H328.289ZM306.218 532.239L308.317 533.708C307.967 533.917 307.582 534.057 307.198 534.197C306.813 534.337 306.358 534.407 305.903 534.442C305.064 534.512 304.295 534.442 303.595 534.162C302.895 533.917 302.231 533.533 301.706 533.043C301.147 532.553 300.727 531.959 300.377 531.294C300.027 530.63 299.852 529.86 299.747 529.056C299.677 528.216 299.747 527.447 299.957 526.712C300.167 525.977 300.482 525.348 300.937 524.753C301.391 524.194 301.951 523.704 302.581 523.354C303.245 523.004 303.98 522.795 304.819 522.69C305.659 522.62 306.428 522.69 307.128 522.969C307.827 523.214 308.457 523.564 309.016 524.089C309.576 524.578 309.996 525.173 310.346 525.838C310.695 526.537 310.87 527.272 310.975 528.076V528.146C311.01 528.601 311.01 529.056 310.975 529.51C310.905 529.93 310.835 530.35 310.695 530.734L308.492 529.091C308.282 528.916 308.037 528.811 307.827 528.741C307.617 528.671 307.373 528.636 307.093 528.671C306.743 528.671 306.428 528.811 306.148 529.021C305.869 529.23 305.659 529.475 305.519 529.79C305.379 530.105 305.309 530.42 305.344 530.804C305.344 531.154 305.484 531.434 305.624 531.679C305.799 531.924 305.973 532.134 306.218 532.308V532.239ZM306.183 538.22C307.233 538.115 308.177 537.905 309.086 537.555C309.996 537.205 310.8 536.751 311.57 536.156L312.654 536.961C312.829 537.1 313.039 537.24 313.284 537.31C313.529 537.38 313.773 537.415 314.053 537.415C314.403 537.38 314.718 537.275 314.998 537.065C315.278 536.856 315.487 536.611 315.627 536.296C315.767 535.981 315.837 535.666 315.802 535.282C315.802 534.932 315.662 534.652 315.522 534.407C315.347 534.162 315.173 533.952 314.928 533.778L314.088 533.183C314.543 532.378 314.858 531.504 315.068 530.56C315.278 529.615 315.347 528.671 315.243 527.691C315.138 526.572 314.893 525.593 314.508 524.648C314.123 523.704 313.599 522.864 312.934 522.13C312.269 521.395 311.535 520.766 310.66 520.241C309.786 519.717 308.842 519.367 307.827 519.122C306.813 518.877 305.694 518.807 304.539 518.912C303.385 519.017 302.336 519.262 301.356 519.682C300.377 520.101 299.503 520.626 298.733 521.29C297.964 521.955 297.334 522.725 296.809 523.564C296.285 524.404 295.9 525.348 295.69 526.327C295.445 527.307 295.375 528.356 295.48 529.405V529.475C295.585 530.525 295.83 531.539 296.215 532.448C296.599 533.393 297.124 534.197 297.789 534.967C298.453 535.701 299.188 536.331 300.062 536.856C300.937 537.38 301.881 537.73 302.895 537.975C303.91 538.22 305.029 538.29 306.183 538.185V538.22ZM275.333 536.611C275.333 536.995 275.403 537.345 275.543 537.66C275.718 537.975 275.928 538.22 276.242 538.43C276.522 538.639 276.872 538.744 277.257 538.744C277.641 538.744 277.991 538.674 278.306 538.535C278.621 538.36 278.866 538.15 279.076 537.835C279.285 537.555 279.39 537.205 279.39 536.821L279.915 526.817L287.575 538.01C287.75 538.255 287.925 538.5 288.135 538.674C288.345 538.849 288.555 539.024 288.799 539.129C289.044 539.234 289.324 539.304 289.639 539.339H289.779C290.164 539.339 290.513 539.269 290.828 539.129C291.143 538.954 291.388 538.744 291.598 538.43C291.807 538.115 291.912 537.8 291.947 537.415L292.717 522.585C292.717 522.2 292.647 521.85 292.507 521.535C292.332 521.221 292.122 520.976 291.807 520.766C291.528 520.556 291.178 520.451 290.793 520.451C290.408 520.451 290.059 520.521 289.744 520.661C289.429 520.836 289.184 521.046 288.974 521.36C288.764 521.64 288.659 521.99 288.659 522.375L288.17 531.994L280.789 521.186C280.615 520.941 280.44 520.696 280.23 520.521C280.02 520.346 279.81 520.171 279.565 520.066C279.32 519.961 279.041 519.891 278.726 519.856H278.306C277.921 519.821 277.572 519.856 277.257 520.066C276.942 520.241 276.662 520.451 276.487 520.766C276.277 521.081 276.172 521.395 276.172 521.78L275.403 536.611H275.333ZM259.978 529.615L263.091 523.704L265.119 530.07L259.978 529.615ZM252.842 535.072C252.842 535.421 252.842 535.771 253.017 536.051C253.157 536.366 253.367 536.611 253.647 536.786C253.927 536.995 254.241 537.1 254.591 537.135C255.011 537.135 255.396 537.1 255.745 536.891C256.095 536.681 256.375 536.401 256.585 536.016L258.159 533.078L266.344 533.813L267.323 536.856C267.463 537.31 267.708 537.66 267.988 537.94C268.302 538.22 268.687 538.395 269.142 538.43C269.527 538.43 269.841 538.395 270.156 538.255C270.471 538.115 270.716 537.905 270.891 537.625C271.101 537.345 271.206 537.03 271.241 536.646C271.241 536.506 271.241 536.366 271.241 536.226C271.241 536.086 271.171 535.946 271.136 535.806L265.924 520.591C265.749 520.066 265.469 519.647 265.084 519.332C264.7 519.017 264.245 518.842 263.685 518.772H263.441C262.881 518.702 262.391 518.807 261.971 519.052C261.552 519.297 261.202 519.682 260.922 520.171L253.157 534.267C253.157 534.267 253.017 534.547 252.947 534.687C252.877 534.827 252.842 534.967 252.842 535.107V535.072ZM240.25 524.788L241.265 519.507L245.287 520.276C245.952 520.416 246.476 520.626 246.931 520.906C247.351 521.186 247.666 521.57 247.84 521.99C248.015 522.41 248.05 522.934 247.945 523.529C247.84 524.089 247.631 524.543 247.316 524.858C247.001 525.208 246.581 525.418 246.092 525.558C245.602 525.698 245.007 525.698 244.343 525.558L240.25 524.753V524.788ZM234.759 531.574C234.689 531.959 234.724 532.308 234.829 532.658C234.934 533.008 235.144 533.288 235.423 533.533C235.703 533.778 236.018 533.917 236.403 534.022C236.787 534.092 237.137 534.057 237.487 533.952C237.837 533.848 238.117 533.638 238.361 533.358C238.606 533.078 238.746 532.763 238.816 532.378L239.586 528.356L242.804 528.986L245.777 534.722C245.952 535.072 246.196 535.387 246.476 535.631C246.756 535.876 247.141 536.051 247.596 536.156C247.91 536.226 248.26 536.191 248.575 536.086C248.89 535.981 249.17 535.806 249.414 535.596C249.659 535.352 249.799 535.037 249.904 534.652C249.939 534.337 249.939 534.057 249.904 533.778C249.834 533.533 249.729 533.253 249.554 532.973L247.421 529.021C248.225 528.846 248.96 528.601 249.589 528.181C250.219 527.796 250.779 527.237 251.233 526.572C251.653 525.908 251.968 525.103 252.178 524.124V524.054C252.353 523.179 252.388 522.375 252.248 521.605C252.108 520.836 251.828 520.171 251.443 519.542C250.953 518.807 250.289 518.212 249.449 517.723C248.61 517.233 247.596 516.883 246.441 516.638L240.075 515.414C239.691 515.344 239.341 515.379 238.991 515.484C238.641 515.589 238.361 515.799 238.117 516.079C237.872 516.359 237.732 516.673 237.627 517.058L234.829 531.539L234.759 531.574ZM221.502 520.346L223.076 515.204L226.994 516.394C227.623 516.603 228.148 516.848 228.568 517.198C228.987 517.548 229.232 517.933 229.372 518.387C229.512 518.842 229.477 519.367 229.302 519.926V519.996C229.127 520.486 228.882 520.906 228.533 521.221C228.183 521.535 227.763 521.71 227.239 521.78C226.714 521.85 226.154 521.78 225.525 521.605L221.537 520.381L221.502 520.346ZM215.311 526.537C215.206 526.922 215.171 527.272 215.276 527.621C215.346 527.971 215.521 528.286 215.766 528.531C216.011 528.811 216.325 528.986 216.675 529.091C217.06 529.195 217.41 529.195 217.76 529.125C218.109 529.056 218.424 528.881 218.669 528.636C218.914 528.391 219.124 528.076 219.229 527.726L220.418 523.809L223.566 524.753L225.909 530.769C226.049 531.119 226.224 531.469 226.504 531.749C226.749 532.029 227.099 532.238 227.553 532.378C227.868 532.483 228.183 532.483 228.533 532.413C228.848 532.343 229.162 532.204 229.407 531.994C229.652 531.784 229.862 531.469 229.967 531.119C230.037 530.804 230.072 530.525 230.037 530.28C230.002 530 229.897 529.72 229.792 529.44L228.078 525.278C228.882 525.208 229.652 524.998 230.317 524.683C231.016 524.369 231.611 523.879 232.1 523.284C232.625 522.655 233.01 521.885 233.29 520.976V520.906C233.57 520.066 233.674 519.262 233.604 518.492C233.57 517.723 233.36 517.023 233.01 516.359C232.59 515.589 231.996 514.925 231.226 514.33C230.457 513.77 229.477 513.281 228.358 512.931L222.167 511.042C221.782 510.937 221.432 510.902 221.082 511.007C220.733 511.077 220.418 511.252 220.173 511.497C219.893 511.742 219.718 512.056 219.613 512.406L215.311 526.502V526.537ZM202.055 516.184L206.427 511.112L206.986 517.793L202.055 516.184ZM193.87 519.891C193.765 520.241 193.73 520.556 193.8 520.906C193.87 521.221 194.01 521.535 194.22 521.78C194.429 522.025 194.709 522.2 195.059 522.34C195.479 522.48 195.864 522.48 196.248 522.34C196.633 522.235 196.948 522.025 197.263 521.675L199.466 519.157L207.301 521.71L207.581 524.893C207.616 525.348 207.756 525.768 208.001 526.117C208.246 526.467 208.56 526.712 209.015 526.852C209.365 526.957 209.715 526.992 210.029 526.887C210.344 526.817 210.659 526.642 210.904 526.432C211.149 526.187 211.324 525.908 211.464 525.558C211.499 525.418 211.534 525.313 211.534 525.173C211.534 525.033 211.534 524.893 211.534 524.718L209.89 508.699C209.82 508.139 209.645 507.649 209.365 507.264C209.085 506.88 208.665 506.6 208.141 506.425L207.896 506.355C207.371 506.18 206.847 506.18 206.392 506.32C205.902 506.46 205.482 506.74 205.133 507.159L194.394 519.122C194.394 519.122 194.185 519.367 194.115 519.472C194.045 519.612 193.94 519.717 193.905 519.856L193.87 519.891ZM181.383 512.231L183.062 508.489L187.399 510.412C188.343 510.832 188.973 511.322 189.288 511.846C189.602 512.371 189.602 512.931 189.358 513.49C189.183 513.98 188.903 514.26 188.553 514.435C188.238 514.61 187.819 514.68 187.364 514.645C186.909 514.61 186.42 514.47 185.86 514.225L181.383 512.231ZM184.461 505.341L186.07 501.738L189.777 503.382C190.582 503.732 191.107 504.151 191.386 504.641C191.666 505.131 191.701 505.655 191.456 506.215C191.281 506.705 191.002 506.985 190.652 507.159C190.302 507.334 189.917 507.369 189.463 507.334C189.008 507.299 188.483 507.124 187.924 506.88L184.461 505.341ZM177.115 511.986C176.976 512.336 176.906 512.686 176.941 513.036C176.976 513.385 177.115 513.735 177.325 514.015C177.535 514.295 177.815 514.54 178.165 514.68L184.391 517.478C185.37 517.898 186.28 518.212 187.154 518.352C188.028 518.492 188.833 518.527 189.568 518.352C190.302 518.212 190.967 517.933 191.526 517.478C192.086 517.023 192.541 516.394 192.89 515.624C193.24 514.82 193.38 514.12 193.38 513.455C193.38 512.826 193.205 512.196 192.89 511.637C192.576 511.077 192.156 510.517 191.596 509.958C192.121 509.923 192.611 509.818 193.1 509.643C193.59 509.468 194.01 509.188 194.429 508.803C194.849 508.419 195.199 507.929 195.479 507.299C195.724 506.67 195.864 506.075 195.898 505.516C195.898 504.956 195.829 504.396 195.584 503.802C195.304 503.102 194.849 502.437 194.22 501.843C193.59 501.248 192.785 500.724 191.806 500.304L185.755 497.611C185.405 497.471 185.055 497.401 184.706 497.436C184.356 497.471 184.006 497.611 183.726 497.82C183.446 498.03 183.202 498.31 183.027 498.66L177.115 511.986Z" fill="#FFEEEE"/>
<path d="M427.556 144.44C391.319 108.203 341.266 85.8174 286.001 85.8174C230.736 85.8174 180.683 108.238 144.446 144.44C108.209 180.677 85.8233 230.73 85.8233 285.995C85.8233 341.26 108.244 391.313 144.446 427.55C180.683 463.787 230.736 486.173 286.001 486.173C341.266 486.173 391.319 463.752 427.556 427.55C463.793 391.313 486.179 341.26 486.179 285.995C486.179 230.73 463.758 180.642 427.556 144.44ZM286.001 81.6201C342.42 81.6201 393.523 104.496 430.529 141.467C467.5 178.439 490.376 229.541 490.376 285.995C490.376 342.449 467.5 393.517 430.529 430.523C393.558 467.495 342.455 490.37 286.001 490.37C229.547 490.37 178.479 467.495 141.473 430.523C104.466 393.552 81.626 342.449 81.626 285.995C81.626 229.541 104.501 178.473 141.473 141.467C178.444 104.496 229.547 81.6201 286.001 81.6201Z" fill="#FFEEEE"/>
<path d="M484.57 87.3914C433.747 36.5688 363.547 5.12378 286.001 5.12378C208.456 5.12378 138.22 36.5688 87.3978 87.3914C36.5751 138.214 5.13013 208.449 5.13013 285.995C5.13013 363.541 36.5751 433.776 87.3978 484.599C138.22 535.421 208.421 566.866 286.001 566.866C363.582 566.866 433.782 535.421 484.605 484.599C535.428 433.776 566.873 363.576 566.873 285.995C566.873 208.414 535.428 138.214 484.605 87.3914M286.001 0.961426C364.701 0.961426 435.951 32.8611 487.543 84.4533C539.135 136.045 571.035 207.295 571.035 285.995C571.035 364.695 539.135 435.945 487.543 487.537C435.951 539.129 364.701 571.029 286.001 571.029C207.301 571.029 136.052 539.129 84.4596 487.537C32.8675 435.945 0.967773 364.695 0.967773 285.995C0.967773 207.295 32.8675 136.01 84.4596 84.4533C136.017 32.8611 207.267 0.961426 286.001 0.961426Z" fill="#FFEEEE"/>
<path d="M228.918 303.729L212.968 294.005L223.251 279.315L213.982 270.535L196.598 278.79L182.572 257.418L197.858 244.302L195.094 230.695L174.737 228.457V201.384L193.066 200.58L197.088 187.113L183.412 174.976L197.053 152.905L213.143 158.327L223.496 149.687L216.431 134.332L240.915 117.962L252.073 132.268L266.624 128.56L267.673 110.652L296.915 111.491L298.768 128.525L312.34 131.953L321.924 121.25C321.924 121.25 323.253 119.466 324.687 119.221C326.121 118.977 327.555 120.026 327.555 120.026L346.443 131.848C346.443 131.848 347.597 132.548 347.912 133.737C348.367 135.486 347.772 136.186 347.772 136.186L342.141 147.448L351.2 158.187L369.843 151.786L382.295 172.527L369.493 185.644L371.242 199.215L391.704 200.964L392.124 228.142L371.697 229.996L368.269 243.357L382.05 257.034L368.094 277.845L351.375 271.025L343.26 278.16L339.098 273.403L350.151 263.679L365.716 270.045L373.901 257.838L361.239 245.281L366.66 224.12L385.688 222.371L385.443 206.806L365.611 205.092L362.813 183.406L374.32 171.583L367.01 159.376L349.101 165.532L334.551 148.323L340.812 135.801L325.771 126.357L314.438 138.984L292.892 133.562L291.108 117.612L273.514 117.123L272.57 133.527L249.52 139.404L239.446 126.497L224.336 136.605L231.156 151.436L214.367 165.462L199.676 160.495L191.492 173.752L204.224 185.015L197.788 206.631L180.998 207.365V222.721L200.306 224.854L204.713 246.575L190.827 258.503L198.767 270.605L215.102 262.84L231.436 278.335L221.887 291.976L232.101 298.203L228.813 303.589L228.918 303.729Z" fill="#FFEEEE"/>
<path d="M239.971 260.321C225.77 248.534 217.62 231.5 217.62 213.626C217.62 199.32 222.832 185.399 232.311 174.346C241.615 163.503 257.46 152.905 276.208 151.75L277.467 156.542C245.497 159.341 223.951 187.603 223.951 213.626C223.951 229.646 231.261 244.896 243.993 255.494L239.971 260.356V260.321Z" fill="#FFEEEE"/>
<path d="M325.212 260.601L321.224 255.704C334.691 244.756 342.351 229.436 342.421 213.626C342.526 186.483 326.716 165.252 290.934 157.102L292.368 151.576C330.388 158.536 348.717 185.749 348.717 213.626C348.717 231.325 340.147 248.464 325.212 260.601Z" fill="#FFEEEE"/>
<path d="M392.019 318.28L320.944 264.938L315.138 260.636L318.88 255.564L324.722 259.867L397.23 314.852L392.019 318.28Z" fill="#FFEEEE"/>
<path d="M178.13 330.382L260.572 282.008L263.755 287.464L227.868 308.486L189.323 331.152L184.321 334.614L178.13 330.382Z" fill="#FFEEEE"/>
<path d="M268.477 419.995L178.48 359.938L178.305 330.347L269.841 383.723L268.477 392.992L184.811 341.645L184.251 353.642L269.841 408.172L268.477 419.995Z" fill="#FFEEEE"/>
<path d="M304.05 397.749L303.91 396.84L386.492 336.328L386.212 324.541L304.259 381.484L302.79 373.999L392.229 313.278L392.893 338.532L397.23 340.91L303.665 409.711L299.223 401.037L304.05 397.749Z" fill="#FFEEEE"/>
<path d="M284.357 140.873C283.483 141.677 282.119 144.265 282.119 148.253C282.119 152.24 283.518 154.759 284.357 155.598C285.162 154.794 286.491 152.275 286.491 148.253C286.491 144.23 285.162 141.677 284.357 140.873ZM284.357 162.104C278.761 162.104 274.563 156.158 274.563 148.253C274.563 140.348 278.691 134.367 284.357 134.367C290.024 134.367 294.081 140.068 294.081 148.253C294.081 156.438 290.094 162.104 284.357 162.104Z" fill="#FFEEEE"/>
<path d="M292.263 215.97L285.687 201.734L279.881 212.962L274.284 210.058L286.002 187.358L297.999 213.311L292.263 215.97Z" fill="#FFEEEE"/>
<path d="M216.185 336.398L210.414 333.81L243.748 248.884L249.624 251.192L238.851 278.685L249.659 257.733L255.291 260.671L216.185 336.398Z" fill="#FFEEEE"/>
<path d="M316.082 242.553L284.357 161.439L266.833 206.456L260.957 204.147L282.258 152.625L284.497 156.857L286.526 152.73L321.958 240.244L316.082 242.553Z" fill="#FFEEEE"/>
<path d="M349.836 331.256L316.013 262.77L321.679 259.972L324.582 265.848L321.889 258.887L327.8 256.614L355.608 328.738L349.836 331.256Z" fill="#FFEEEE"/>
<path d="M253.542 254.935H316.852C317.936 254.795 319.09 253.151 319.44 251.157C319.895 248.674 319.265 245.491 316.222 243.777H252.982C250.324 244.651 249.275 246.82 249.17 248.674C248.995 251.332 250.674 253.641 253.542 254.97M317.097 261.301H252.318L251.758 261.091C246.022 258.852 242.524 253.885 242.839 248.324C243.154 243.147 246.617 238.95 251.723 237.586L252.108 237.446H317.691L318.321 237.761C325.107 240.979 326.506 247.624 325.631 252.346C324.687 257.383 321.294 260.986 317.202 261.266H317.097V261.301Z" fill="#FFEEEE"/>
<path d="M268.653 310.06C266.344 293.201 260.503 280.888 251.304 273.508L250.359 272.739V256.334L319.755 256.054L320.28 272.948L319.475 273.718C310.521 282.497 305.379 294.53 304.155 309.535L299.153 309.115C300.413 293.55 305.939 280.364 315.173 270.92L314.858 261.126L255.396 261.371V270.36C265.085 278.65 271.206 291.766 273.62 309.395L268.618 310.06H268.653Z" fill="#FFEEEE"/>
<path d="M286.281 469.838C278.936 469.838 272.57 467.6 268.967 463.752L268.268 463.018V462.003L268.617 318.56H273.654L273.339 460.954C276.312 463.542 281.804 465.011 287.715 464.732C292.682 464.522 297.054 463.088 299.153 461.059V318.699H304.19V462.878L303.665 463.542C300.902 467.11 295.026 469.454 287.96 469.768C287.4 469.768 286.841 469.768 286.281 469.768" fill="#FFEEEE"/>
<path d="M268.092 315.831H304.994C305.239 315.726 305.833 315.027 305.938 313.768C306.008 312.963 305.868 311.529 304.469 310.62H267.673C266.518 311.074 266.029 312.054 265.994 312.893C265.959 314.152 266.693 315.202 268.057 315.866M305.169 320.903H267.113L266.693 320.728C263.056 319.364 260.817 316.181 260.992 312.648C261.167 309.29 263.37 306.562 266.623 305.653L266.938 305.548H305.694L306.218 305.828C309.821 307.542 311.605 311.284 310.8 315.272C310.136 318.49 307.897 320.728 305.239 320.868H305.169V320.903Z" fill="#FFEEEE"/>
<path d="M270.332 237.796H262.357C241.335 226.918 236.298 216.179 234.864 205.861C234.06 200.09 236.298 194.248 241.72 188.092C242.035 189.491 242.419 190.821 242.839 192.115C243.259 193.304 243.574 193.619 243.959 195.612L244.588 198.271L245.672 200.684L246.617 194.493C247.316 190.471 250.115 187.358 252.493 186.273C255.956 202.223 265.225 211.527 280.021 213.976H280.23C292.508 214.885 299.958 217.788 302.441 222.58C304.225 226.078 303.456 230.975 300.133 237.201H279.566L270.367 237.796H270.332ZM306.744 220.237C303.386 213.696 294.886 210.023 280.685 208.974C266.659 206.63 258.719 197.361 256.446 180.607L255.781 175.745L252.318 179.173C249.94 181.516 247.946 183.86 246.302 186.168C246.057 185.014 245.812 183.86 245.672 182.636L245.043 177.914L241.615 181.167C232.626 189.736 228.848 198.061 230.037 206.595C231.751 218.908 235.669 230.66 258.824 242.553L267.499 242.797H290.654V242.273H302.896L303.631 241.014C308.422 232.584 309.472 225.588 306.709 220.237H306.744Z" fill="#FFEEEE"/>
<path d="M317.097 269.276C312.025 268.086 307.758 270.535 304.365 276.586C300.832 282.917 298.174 293.095 296.425 307.156L294.781 306.947C296.565 292.711 299.258 282.322 302.931 275.781C306.743 268.996 311.57 266.302 317.446 267.667L317.097 269.276ZM252.982 268.471C259.383 267.072 264.7 269.52 268.897 276.026C272.955 282.322 275.963 292.501 277.922 306.772L276.278 306.982C274.389 292.955 271.451 282.987 267.498 276.901C263.721 271.024 258.964 268.821 253.332 270.045L252.982 268.436V268.471Z" fill="#FFEEEE"/>
<path d="M277.816 318.455H276.452V466.026H277.816V318.455Z" fill="#FFEEEE"/>
<path d="M296.425 318.734H295.061V464.801H296.425V318.734Z" fill="#FFEEEE"/>
<path d="M200.551 321.218H86.873V322.582H200.551V321.218Z" fill="#FFEEEE"/>
<path d="M485.235 321.218H389.99V322.582H485.235V321.218Z" fill="#FFEEEE"/>
</g>
<defs>
<clipPath id="clip0_437_24">
<rect width="570.032" height="570.067" fill="white" transform="translate(0.967773 0.961426)"/>
</clipPath>
</defs>
</svg>
