<svg width="32" height="32" viewBox="0 0 32 32" fill="none" xmlns="http://www.w3.org/2000/svg">
<path d="M16.2758 26.536C14.7558 26.536 13.3638 26.288 12.0998 25.792C10.8518 25.312 9.77176 24.608 8.85976 23.68C7.96376 22.768 7.26776 21.672 6.77176 20.392C6.29176 19.112 6.05176 17.672 6.05176 16.072C6.05176 14.488 6.30776 13.048 6.81976 11.752C7.33176 10.456 8.05176 9.33599 8.97976 8.39199C9.92376 7.44799 11.0438 6.72799 12.3398 6.23199C13.6358 5.71999 15.0598 5.46399 16.6118 5.46399C18.4678 5.46399 20.0918 5.83999 21.4838 6.59199C22.8918 7.32799 23.9878 8.35999 24.7718 9.68799C25.5558 11.016 25.9478 12.568 25.9478 14.344C25.9478 15.736 25.7558 16.944 25.3718 17.968C24.9878 18.992 24.4518 19.784 23.7638 20.344C23.0758 20.904 22.2678 21.184 21.3398 21.184C20.3798 21.184 19.6518 20.912 19.1558 20.368C18.6598 19.808 18.4358 19.056 18.4838 18.112L18.9878 18.16C18.5878 19.152 18.0198 19.904 17.2838 20.416C16.5478 20.928 15.7718 21.184 14.9558 21.184C13.7078 21.184 12.7398 20.792 12.0518 20.008C11.3638 19.224 11.0198 18.152 11.0198 16.792C11.0198 15.624 11.2438 14.584 11.6918 13.672C12.1398 12.744 12.7558 12.016 13.5398 11.488C14.3238 10.96 15.2118 10.696 16.2038 10.696C17.0678 10.696 17.7718 10.912 18.3158 11.344C18.8758 11.776 19.2438 12.384 19.4198 13.168H19.1078L19.3718 11.656C19.4518 11.096 19.7798 10.816 20.3558 10.816C20.6278 10.816 20.8358 10.896 20.9798 11.056C21.1238 11.216 21.1638 11.456 21.0998 11.776L20.1878 17.032C20.1398 17.256 20.0998 17.464 20.0678 17.656C20.0518 17.848 20.0438 18.032 20.0438 18.208C20.0438 18.736 20.1638 19.128 20.4038 19.384C20.6438 19.64 20.9958 19.768 21.4598 19.768C22.0678 19.768 22.5878 19.544 23.0198 19.096C23.4678 18.648 23.8198 18.016 24.0758 17.2C24.3318 16.384 24.4598 15.432 24.4598 14.344C24.4598 12.84 24.1318 11.536 23.4758 10.432C22.8198 9.32799 21.9078 8.47199 20.7398 7.86399C19.5718 7.23999 18.1878 6.92799 16.5878 6.92799C14.8118 6.92799 13.2598 7.31199 11.9318 8.07999C10.6038 8.83199 9.56376 9.89599 8.81176 11.272C8.07576 12.632 7.70776 14.232 7.70776 16.072C7.70776 17.944 8.05976 19.552 8.76376 20.896C9.46776 22.24 10.4598 23.264 11.7398 23.968C13.0198 24.688 14.5318 25.048 16.2758 25.048C17.4278 25.048 18.4678 24.896 19.3958 24.592C20.3238 24.288 21.1318 23.856 21.8198 23.296C22.0438 23.104 22.2598 23.024 22.4678 23.056C22.6758 23.088 22.8358 23.184 22.9478 23.344C23.0598 23.504 23.0998 23.688 23.0678 23.896C23.0518 24.104 22.9318 24.296 22.7078 24.472C21.9558 25.112 21.0278 25.616 19.9238 25.984C18.8358 26.352 17.6198 26.536 16.2758 26.536ZM15.2198 19.672C15.9078 19.672 16.5158 19.464 17.0438 19.048C17.5878 18.632 18.0118 18.056 18.3158 17.32C18.6198 16.584 18.7718 15.752 18.7718 14.824C18.7718 13.944 18.5798 13.288 18.1958 12.856C17.8118 12.424 17.2198 12.208 16.4198 12.208C15.7478 12.208 15.1318 12.408 14.5718 12.808C14.0278 13.192 13.6038 13.728 13.2998 14.416C12.9958 15.104 12.8438 15.896 12.8438 16.792C12.8438 17.72 13.0518 18.432 13.4678 18.928C13.8838 19.424 14.4678 19.672 15.2198 19.672Z" fill="#A3A3A3"/>
</svg>
