<svg width="32" height="32" viewBox="0 0 32 32" fill="none" xmlns="http://www.w3.org/2000/svg">
<path d="M25.9846 22.33C25.9846 22.69 25.9046 23.06 25.7346 23.42C25.5646 23.78 25.3446 24.12 25.0546 24.44C24.5646 24.98 24.0246 25.37 23.4146 25.62C22.8146 25.87 22.1646 26 21.4646 26C20.4446 26 19.3546 25.76 18.2046 25.27C17.0546 24.78 15.9046 24.12 14.7646 23.29C13.6028 22.4401 12.5063 21.5041 11.4846 20.49C10.4734 19.472 9.54075 18.3789 8.69465 17.22C7.87465 16.08 7.21465 14.94 6.73465 13.81C6.25465 12.67 6.01465 11.58 6.01465 10.54C6.01465 9.86 6.13465 9.21 6.37465 8.61C6.61465 8 6.99465 7.44 7.52465 6.94C8.16465 6.31 8.86465 6 9.60465 6C9.88465 6 10.1646 6.06 10.4146 6.18C10.6746 6.3 10.9046 6.48 11.0846 6.74L13.4046 10.01C13.5846 10.26 13.7146 10.49 13.8046 10.71C13.8946 10.92 13.9446 11.13 13.9446 11.32C13.9446 11.56 13.8746 11.8 13.7346 12.03C13.6046 12.26 13.4146 12.5 13.1746 12.74L12.4146 13.53C12.3046 13.64 12.2546 13.77 12.2546 13.93C12.2546 14.01 12.2646 14.08 12.2846 14.16C12.3146 14.24 12.3446 14.3 12.3646 14.36C12.5446 14.69 12.8546 15.12 13.2946 15.64C13.7446 16.16 14.2246 16.69 14.7446 17.22C15.2846 17.75 15.8046 18.24 16.3346 18.69C16.8546 19.13 17.2846 19.43 17.6246 19.61C17.6746 19.63 17.7346 19.66 17.8046 19.69C17.8846 19.72 17.9646 19.73 18.0546 19.73C18.2246 19.73 18.3546 19.67 18.4646 19.56L19.2246 18.81C19.4746 18.56 19.7146 18.37 19.9446 18.25C20.1746 18.11 20.4046 18.04 20.6546 18.04C20.8446 18.04 21.0446 18.08 21.2646 18.17C21.4846 18.26 21.7146 18.39 21.9646 18.56L25.2746 20.91C25.5346 21.09 25.7146 21.3 25.8246 21.55C25.9246 21.8 25.9846 22.05 25.9846 22.33Z" stroke="#A3A3A3" stroke-width="1.5" stroke-miterlimit="10"/>
</svg>
