<svg width="32" height="32" viewBox="0 0 32 32" fill="none" xmlns="http://www.w3.org/2000/svg">
<path d="M10.9 24.6C12.4 25.5 14.2 26 16 26C21.5 26 26 21.5 26 16C26 10.5 21.5 6 16 6C10.5 6 6 10.5 6 16C6 17.8 6.5 19.5 7.3 21L6.44 24.306C6.39563 24.4767 6.39718 24.656 6.4445 24.8259C6.49181 24.9958 6.58321 25.1501 6.70941 25.2733C6.83562 25.3965 6.99215 25.4841 7.16313 25.5272C7.33411 25.5704 7.51347 25.5675 7.683 25.519L10.9 24.6Z" stroke="#A3A3A3" stroke-width="1.5" stroke-miterlimit="10" stroke-linecap="round" stroke-linejoin="round"/>
<path d="M20.5 18.848C20.5 19.01 20.464 19.177 20.387 19.339C20.3084 19.5064 20.2053 19.6611 20.081 19.798C19.86 20.041 19.617 20.216 19.341 20.329C19.071 20.442 18.778 20.5 18.463 20.5C18.003 20.5 17.512 20.392 16.993 20.172C16.4443 19.9341 15.9243 19.6349 15.443 19.28C14.9195 18.8976 14.4254 18.4764 13.965 18.02C13.5095 17.5621 13.0893 17.0704 12.708 16.549C12.3576 16.0719 12.0611 15.5574 11.824 15.015C11.608 14.5 11.5 14.01 11.5 13.543C11.5 13.237 11.554 12.945 11.662 12.675C11.77 12.4 11.942 12.148 12.181 11.923C12.469 11.639 12.784 11.5 13.118 11.5C13.244 11.5 13.37 11.527 13.483 11.581C13.6 11.635 13.703 11.716 13.785 11.833L14.831 13.305C14.911 13.417 14.971 13.521 15.011 13.62C15.051 13.714 15.074 13.809 15.074 13.894C15.0727 14.0074 15.0398 14.1182 14.979 14.214C14.9096 14.3311 14.8248 14.4383 14.727 14.533L14.384 14.889C14.3601 14.9123 14.3414 14.9404 14.329 14.9714C14.3166 15.0024 14.3108 15.0356 14.312 15.069C14.312 15.104 14.317 15.136 14.326 15.172C14.339 15.208 14.353 15.235 14.362 15.262C14.442 15.411 14.582 15.604 14.781 15.838C14.984 16.072 15.2 16.311 15.434 16.549C15.678 16.788 15.912 17.008 16.151 17.211C16.385 17.408 16.579 17.543 16.732 17.624L16.814 17.661C16.8499 17.6738 16.8879 17.6799 16.926 17.679C16.9605 17.6797 16.9948 17.6733 17.0266 17.66C17.0585 17.6468 17.0872 17.627 17.111 17.602L17.453 17.264C17.566 17.152 17.674 17.067 17.778 17.012C17.8736 16.9511 17.9846 16.9185 18.098 16.918C18.1927 16.9194 18.2861 16.9394 18.373 16.977C18.472 17.017 18.576 17.075 18.688 17.152L20.18 18.21C20.2881 18.2803 20.3741 18.3798 20.428 18.497C20.4747 18.6082 20.4992 18.7274 20.5 18.848Z" stroke="#A3A3A3" stroke-width="1.5" stroke-miterlimit="10"/>
</svg>
