<svg width="21" height="21" viewBox="0 0 21 21" fill="none" xmlns="http://www.w3.org/2000/svg">
<path d="M19.9862 9.55986C19.6462 3.75986 14.3762 -0.710136 8.30616 0.289864C4.12616 0.979864 0.776155 4.36986 0.126155 8.54986C-0.253845 10.9699 0.246155 13.2599 1.33615 15.1499L0.446155 18.4599C0.246155 19.2099 0.936155 19.8899 1.67616 19.6799L4.93615 18.7799C6.41615 19.6499 8.14615 20.1499 9.99615 20.1499C15.6362 20.1499 20.3162 15.1799 19.9862 9.55986ZM14.8862 13.8699C14.645 14.3646 14.233 14.7553 13.7262 14.9699C13.4262 15.0999 13.0962 15.1599 12.7462 15.1599C12.2362 15.1599 11.6862 15.0399 11.1162 14.7899C10.5087 14.5231 9.93194 14.1912 9.39616 13.7999C8.81616 13.3799 8.27616 12.9099 7.75616 12.3999C7.23616 11.8799 6.77616 11.3299 6.35616 10.7599C5.94616 10.1899 5.61615 9.61986 5.37615 9.04986C5.13616 8.47986 5.01616 7.92986 5.01616 7.40986C5.01616 7.06986 5.07616 6.73986 5.19616 6.43986C5.31615 6.12986 5.50616 5.84986 5.77615 5.59986C6.09616 5.27986 6.44616 5.12986 6.81616 5.12986C6.95616 5.12986 7.09616 5.15986 7.22616 5.21986C7.35616 5.27986 7.47616 5.36986 7.56616 5.49986L8.72616 7.13986C8.81616 7.26986 8.88616 7.37986 8.92616 7.48986C8.97616 7.59986 8.99615 7.69986 8.99615 7.79986C8.99615 7.91986 8.95615 8.03986 8.88616 8.15986C8.81616 8.27986 8.72616 8.39986 8.60616 8.51986L8.22616 8.91986C8.16615 8.97987 8.14616 9.03986 8.14616 9.11986C8.14616 9.15986 8.15615 9.19986 8.16615 9.23986C8.18616 9.27986 8.19615 9.30986 8.20615 9.33986C8.29615 9.50986 8.45615 9.71986 8.67616 9.97986C9.14434 10.53 9.65599 11.0417 10.2062 11.5099C10.4662 11.7299 10.6862 11.8799 10.8562 11.9699C10.8862 11.9799 10.9162 11.9999 10.9462 12.0099C10.9862 12.0299 11.0262 12.0299 11.0762 12.0299C11.1662 12.0299 11.2262 11.9999 11.2862 11.9399L11.6662 11.5599C11.7962 11.4299 11.9162 11.3399 12.0262 11.2799C12.1462 11.2099 12.2562 11.1699 12.3862 11.1699C12.4862 11.1699 12.5862 11.1899 12.6962 11.2399C12.8062 11.2899 12.9262 11.3499 13.0462 11.4399L14.7062 12.6199C14.8362 12.7099 14.9262 12.8199 14.9862 12.9399C15.0362 13.0699 15.0662 13.1899 15.0662 13.3299C15.0062 13.4999 14.9662 13.6899 14.8862 13.8699Z" fill="#40C24E"/>
</svg>
